<?xml version="1.0" encoding="utf-8"?>
<!-- Generator: Adobe Illustrator 27.1.1, SVG Export Plug-In . SVG Version: 6.00 Build 0)  -->
<svg version="1.1" id="Black" xmlns="http://www.w3.org/2000/svg" xmlns:xlink="http://www.w3.org/1999/xlink" x="0px" y="0px"
	 viewBox="0 0 393 688" style="enable-background:new 0 0 393 688;" xml:space="preserve">
<style type="text/css">
	.st0{opacity:0.5;enable-background:new    ;}
	.st1{fill:#FFFFFF;}
	.st2{opacity:0.5;}
</style>
<path id="Background_Bottom_" class="st0" d="M21.9,267.7c0-2.6,5.6-3.7,9.3-3.7h332.2c3.7,0,4.5,1.1,4.5,3.7V622
	c0,2.6-1.6,5.7-4.9,6.9l-159,58.2c-3.3,1.2-8.4,1.2-11.7,0L29,628.9c-3.3-1.2-7.1-4.3-7.1-6.9L21.9,267.7
	C21.9,267.7,21.9,267.7,21.9,267.7z"/>
<g id="Official_Plate">
	<path id="Plate_Background" class="st1" d="M377.2,332.5c0,0-159.8,52.8-361.4,0V229.7c186,48.4,361.4,0,361.4,0V332.5z"/>
	<path id="Plate_Border" d="M377.2,229.7v102.8c0,0-71,23.5-178.1,23.5c-53.5,0-116.1-5.9-183.3-23.5V229.7
		c62,16.1,122.8,21.5,176.3,21.5C299.2,251.3,377.2,229.7,377.2,229.7 M392.7,209.3l-19.7,5.4c-0.8,0.2-77.5,21-180.9,21
		c-60.8,0-118.8-7.1-172.4-21l-19.5-5.1v135l11.6,3c60.7,15.9,123.7,24,187.2,24c108.3,0,180-23.3,183-24.3l10.7-3.5L392.7,209.3
		L392.7,209.3L392.7,209.3z"/>
	<g id="Official">
		<g>
			<path d="M75.6,269.9c1.1,0.2,2.1,0.6,3,1.2s1.6,1.3,2.2,2.1c0.6,0.8,1,1.8,1.3,2.8c0.3,1,0.3,2.1,0.1,3.2
				c-1.8,10.4-3.7,20.8-5.5,31.2c-0.2,1.1-0.6,2-1.2,2.9c-0.6,0.9-1.4,1.6-2.2,2.2c-0.9,0.6-1.9,1-3,1.2s-2.2,0.2-3.4,0
				c-8.5-1.6-17.1-3.4-25.6-5.3c-1.2-0.3-2.2-0.7-3.1-1.4s-1.7-1.4-2.3-2.3c-0.6-0.9-1-1.9-1.2-2.9c-0.2-1-0.2-2.1,0.1-3.2
				c2.5-10.3,4.9-20.5,7.4-30.8c0.2-1.1,0.7-2,1.3-2.9c0.6-0.9,1.4-1.5,2.3-2c0.9-0.5,1.8-0.9,2.9-1.1c1.1-0.2,2.1-0.2,3.2,0.1
				C59.6,266.7,67.6,268.4,75.6,269.9z M69.3,280.5c-5.4-1-10.8-2.2-16.1-3.4c-1.8,8-3.5,15.9-5.3,23.9c5.5,1.2,11.1,2.4,16.7,3.5
				C66.2,296.5,67.7,288.5,69.3,280.5L69.3,280.5L69.3,280.5z"/>
			<path d="M130.1,278.3c0.2,0.3,0.3,0.6,0.3,1c-0.3,3-0.6,6-0.9,8.9c0,0.4-0.2,0.6-0.5,0.9s-0.6,0.3-1,0.3
				c-7.8-0.8-15.5-1.8-23.2-2.9c-0.2,0-0.4,0-0.4,0.2c-0.3,2.5-0.7,4.9-1,7.3c0,0.2,0.1,0.4,0.3,0.4c5.9,0.8,11.9,1.6,17.8,2.3
				c0.4,0,0.7,0.2,0.9,0.5c0.2,0.3,0.3,0.6,0.2,1c-0.3,2.8-0.6,5.6-0.9,8.5c0,0.4-0.2,0.6-0.5,0.9s-0.6,0.3-1,0.3
				c-6-0.7-12.1-1.5-18.1-2.3c-0.2,0-0.4,0.1-0.4,0.3c-0.7,5-1.4,10.1-2.2,15.1c-0.1,0.9-0.6,1.2-1.6,1.1c-3.3-0.5-6.7-1-10-1.5
				c-0.9-0.1-1.3-0.6-1.2-1.5c2.4-14.8,4.8-29.6,7.1-44.5c0.1-0.9,0.6-1.2,1.5-1.1c11.2,1.8,22.5,3.3,33.8,4.5
				C129.6,277.9,129.9,278,130.1,278.3L130.1,278.3L130.1,278.3z"/>
			<path d="M173.5,281.4c0.2,0.3,0.4,0.6,0.3,0.9c-0.1,3-0.2,6-0.4,9c0,0.4-0.1,0.7-0.4,0.9s-0.6,0.4-0.9,0.3
				c-7.8-0.3-15.5-0.8-23.3-1.4c-0.2,0-0.4,0.1-0.4,0.2c-0.2,2.5-0.4,4.9-0.6,7.4c0,0.2,0.1,0.4,0.3,0.4c5.9,0.5,11.9,0.8,17.9,1.1
				c0.4,0,0.7,0.2,0.9,0.4c0.2,0.3,0.3,0.6,0.3,0.9c-0.1,2.8-0.3,5.7-0.4,8.5c0,0.4-0.1,0.7-0.4,0.9s-0.6,0.4-0.9,0.3
				c-6.1-0.3-12.1-0.7-18.2-1.1c-0.2,0-0.4,0.1-0.4,0.3c-0.4,5.1-0.8,10.2-1.2,15.3c-0.1,0.9-0.6,1.2-1.5,1.2
				c-3.4-0.3-6.7-0.5-10.1-0.9c-0.9-0.1-1.4-0.6-1.3-1.4c1.4-14.9,2.8-29.9,4.2-44.8c0.1-0.9,0.6-1.2,1.4-1.2
				c11.3,1,22.6,1.8,34,2.2C172.9,281,173.2,281.1,173.5,281.4L173.5,281.4L173.5,281.4z"/>
			<path d="M192.3,327.8c0,0.9-0.5,1.3-1.4,1.3c-3.4,0-6.8-0.1-10.1-0.2c-0.9,0-1.4-0.5-1.4-1.3c0.4-15,0.9-30,1.3-45
				c0-0.9,0.5-1.3,1.3-1.3c3.1,0.1,6.3,0.1,9.4,0.2c0.9,0,1.3,0.5,1.3,1.3C192.6,297.8,192.4,312.8,192.3,327.8L192.3,327.8
				L192.3,327.8z"/>
			<path d="M216,293.3c-0.2,0.2-0.4,0.5-0.4,0.9c0.2,7.3,0.3,14.7,0.5,22c0,0.4,0.1,0.6,0.4,0.9s0.6,0.3,1,0.3
				c7.7-0.2,15.4-0.5,23.1-1c0.4,0,0.7,0.1,1,0.3c0.3,0.2,0.4,0.5,0.4,0.9c0.2,3,0.4,6,0.5,9c0,0.4-0.1,0.7-0.4,0.9
				c-0.2,0.3-0.6,0.4-1,0.4c-5.1,0.3-10.2,0.5-15.3,0.7c-4.2,0.1-8.4,0.3-12.6,0.4c-0.4,0-0.9,0-1.3,0c-1.2,0-2.3-0.2-3.3-0.6
				c-1.1-0.4-2-1-2.8-1.7c-0.8-0.7-1.4-1.6-1.8-2.5c-0.4-1-0.7-2-0.7-3.1V320c0-1.6,0-3.3,0-5c0-5.3-0.1-10.6-0.1-15.8
				c0-1.5,0-3,0-4.4c0-1.8,0-3.5,0-5.2c0-1.1,0.2-2.1,0.6-3.1c0.4-1,1-1.8,1.7-2.5s1.6-1.3,2.6-1.7c1-0.4,2-0.7,3.1-0.7
				c0.4,0,0.8,0,1.2,0c8.7-0.2,17.4-0.5,26.1-1c0.4,0,0.7,0.1,0.9,0.3s0.4,0.5,0.4,0.9c0.2,3,0.4,6,0.5,9c0,0.4-0.1,0.7-0.3,0.9
				s-0.6,0.4-0.9,0.4c-7.4,0.4-14.9,0.8-22.4,0.9C216.6,292.9,216.3,293,216,293.3L216,293.3L216,293.3z"/>
			<path d="M267.2,324.7c0.1,0.9-0.3,1.3-1.3,1.4c-3.4,0.3-6.7,0.6-10.1,0.9c-0.9,0.1-1.4-0.3-1.5-1.2c-1.1-15-2.3-29.9-3.4-44.9
				c-0.1-0.9,0.3-1.3,1.2-1.4c3.1-0.2,6.3-0.5,9.4-0.8c0.9-0.1,1.3,0.3,1.4,1.2C264.4,294.8,265.8,309.8,267.2,324.7L267.2,324.7
				L267.2,324.7z"/>
			<path d="M305.5,273.1c1.1-0.2,2.1-0.1,3.2,0.1c1,0.3,2,0.7,2.8,1.3c0.8,0.6,1.5,1.3,2.1,2.2s1,1.9,1.2,2.9
				c2.2,12.6,4.4,25.2,6.5,37.8c0.1,0.4,0,0.7-0.2,1s-0.5,0.5-0.9,0.5c-3.4,0.6-6.7,1.1-10.1,1.6c-0.4,0.1-0.7,0-1-0.2
				c-0.3-0.2-0.5-0.5-0.5-0.9c-0.6-4-1.2-8-1.9-12c0-0.4-0.2-0.6-0.5-0.9c-0.3-0.2-0.6-0.3-1-0.2c-4.7,0.7-9.4,1.4-14.1,2
				c-0.4,0-0.7,0.2-0.9,0.5s-0.3,0.6-0.3,1c0.5,4,1,8,1.6,12.1c0.1,0.9-0.3,1.3-1.2,1.5c-3.4,0.4-6.7,0.8-10.1,1.2
				c-0.9,0.1-1.4-0.3-1.5-1.1c-1.4-12.7-2.8-25.4-4.2-38.1c-0.1-1.1,0-2.1,0.3-3.1c0.3-1,0.8-1.9,1.4-2.7s1.4-1.4,2.4-2
				c0.9-0.5,1.9-0.9,3-1C289.5,275.6,297.5,274.4,305.5,273.1L305.5,273.1L305.5,273.1z M304.9,296.2c-0.6-3.9-1.2-7.9-1.8-11.8
				c-5.4,0.8-10.8,1.6-16.2,2.3c0.5,4,1,7.9,1.5,11.9C293.9,297.8,299.4,297,304.9,296.2z"/>
			<path d="M362.8,298.5c0.4-0.1,0.7,0,1,0.1c0.3,0.2,0.5,0.5,0.6,0.8c0.7,2.9,1.4,5.8,2.1,8.7c0.1,0.4,0,0.7-0.1,1
				c-0.2,0.3-0.5,0.5-0.9,0.6c-10.4,2.5-20.7,4.7-31.1,6.7c-0.9,0.2-1.5-0.2-1.6-1c-2.8-14.7-5.6-29.5-8.4-44.2
				c-0.2-0.9,0.2-1.4,1-1.5c3.1-0.6,6.2-1.2,9.3-1.9c0.9-0.2,1.4,0.2,1.5,1l6.8,32.8c0.1,0.4,0.3,0.6,0.6,0.8c0.3,0.2,0.6,0.2,1,0.1
				C350.8,301.3,356.8,299.9,362.8,298.5L362.8,298.5L362.8,298.5z"/>
		</g>
	</g>
</g>
<g id="Background_Top_" class="st2">
	<path d="M393,209.2l-19.9-9.9L372.9,0h-355l0.4,201L0,210l18.3,12.7v0.3h0.4l1.1,0.8l0.1-0.8H26c0,0,170.4,51.2,344.5,0.8h2.6V223
		c0,0,0.1,0,0.1,0L393,209.2L393,209.2L393,209.2z"/>
</g>
<g id="Season">
	<path class="st1" d="M88.1,561.4c1,0.4,1.8,1,2.5,1.7c0.7,0.7,1.3,1.5,1.7,2.5c0.4,0.9,0.6,2,0.6,3v12.7c0,1.1-0.2,2.1-0.6,3.1
		c-0.4,1-1,1.8-1.7,2.5c-0.7,0.7-1.5,1.3-2.5,1.7s-2,0.6-3.1,0.6H58.1c-0.9,0-1.3-0.4-1.3-1.3v-8.2c0-0.4,0.1-0.7,0.4-0.9
		s0.5-0.4,0.9-0.4H81c0.4,0,0.7-0.1,0.9-0.3c0.2-0.2,0.4-0.5,0.4-0.9v-5.6c0-0.4-0.1-0.7-0.4-0.9s-0.6-0.4-0.9-0.4H64.7
		c-1.1,0-2.1-0.2-3.1-0.6s-1.8-1-2.5-1.7c-0.7-0.7-1.3-1.5-1.7-2.5s-0.6-2-0.6-3v-12.7c0-1.1,0.2-2.1,0.6-3.1c0.4-1,1-1.8,1.7-2.5
		c0.7-0.7,1.6-1.3,2.5-1.7c1-0.4,2-0.6,3.1-0.6h25.4c0.8,0,1.3,0.4,1.3,1.3v8.3c0,0.4-0.1,0.7-0.4,0.9s-0.6,0.3-0.9,0.3H68.6
		c-0.4,0-0.7,0.1-0.9,0.4c-0.2,0.2-0.3,0.5-0.3,0.9v5.5c0,0.4,0.1,0.7,0.3,0.9c0.2,0.2,0.5,0.4,0.9,0.4H85
		C86.1,560.8,87.1,561,88.1,561.4z"/>
	<path class="st1" d="M138.9,542.4c0.2,0.2,0.4,0.5,0.4,0.9v8.5c0,0.4-0.1,0.7-0.4,0.9s-0.6,0.3-0.9,0.3h-22.6
		c-0.2,0-0.3,0.1-0.3,0.3v7.4c0,0.2,0.1,0.3,0.3,0.3h19.3c0.4,0,0.6,0.1,0.9,0.4c0.2,0.2,0.3,0.5,0.3,0.9v6.8c0,0.4-0.1,0.7-0.3,0.9
		c-0.2,0.2-0.5,0.4-0.9,0.4h-19.3c-0.2,0-0.3,0.1-0.3,0.3v7.3c0,0.2,0.1,0.3,0.3,0.3H138c0.4,0,0.7,0.1,0.9,0.4s0.4,0.5,0.4,0.9v8.4
		c0,0.4-0.1,0.7-0.4,0.9s-0.6,0.4-0.9,0.4h-33.5c-0.9,0-1.3-0.4-1.3-1.3v-44.7c0-0.4,0.1-0.7,0.4-0.9s0.6-0.4,0.9-0.4H138
		C138.3,542,138.6,542.1,138.9,542.4L138.9,542.4L138.9,542.4z"/>
	<path class="st1" d="M181.7,542c1.1,0,2.1,0.2,3.1,0.6s1.8,1,2.5,1.7s1.3,1.5,1.7,2.5c0.4,1,0.6,2,0.6,3.1V588
		c0,0.4-0.1,0.7-0.4,0.9s-0.6,0.4-0.9,0.4h-9.4c-0.4,0-0.7-0.1-0.9-0.4s-0.4-0.5-0.4-0.9v-12.1c0-0.4-0.1-0.7-0.3-0.9
		s-0.5-0.4-0.9-0.4h-13.4c-0.4,0-0.7,0.1-0.9,0.4s-0.4,0.5-0.4,0.9V588c0,0.9-0.4,1.3-1.3,1.3h-9.3c-0.9,0-1.3-0.4-1.3-1.3v-38.1
		c0-1.1,0.2-2.1,0.6-3.1c0.4-1,1-1.8,1.7-2.5s1.6-1.3,2.5-1.7s2-0.6,3.1-0.6H181.7L181.7,542L181.7,542z M177.6,564.5v-11.9h-15.9
		v11.9H177.6z"/>
	<path class="st1" d="M231.3,561.4c1,0.4,1.8,1,2.5,1.7s1.3,1.5,1.7,2.5c0.4,0.9,0.6,2,0.6,3v12.7c0,1.1-0.2,2.1-0.6,3.1
		s-1,1.8-1.7,2.5c-0.7,0.7-1.5,1.3-2.5,1.7s-2,0.6-3.1,0.6h-26.9c-0.9,0-1.3-0.4-1.3-1.3v-8.2c0-0.4,0.1-0.7,0.4-0.9
		s0.6-0.4,0.9-0.4h22.9c0.4,0,0.7-0.1,0.9-0.3c0.2-0.2,0.4-0.5,0.4-0.9v-5.6c0-0.4-0.1-0.7-0.4-0.9s-0.6-0.4-0.9-0.4h-16.3
		c-1.1,0-2.1-0.2-3.1-0.6s-1.8-1-2.5-1.7c-0.7-0.7-1.3-1.5-1.7-2.5s-0.6-2-0.6-3v-12.7c0-1.1,0.2-2.1,0.6-3.1c0.4-1,1-1.8,1.7-2.5
		s1.6-1.3,2.5-1.7s2-0.6,3.1-0.6h25.4c0.9,0,1.3,0.4,1.3,1.3v8.3c0,0.4-0.1,0.7-0.4,0.9s-0.6,0.3-0.9,0.3h-21.5
		c-0.4,0-0.6,0.1-0.9,0.4c-0.2,0.2-0.3,0.5-0.3,0.9v5.5c0,0.4,0.1,0.7,0.3,0.9c0.2,0.2,0.5,0.4,0.9,0.4h16.4
		C229.3,560.8,230.4,561,231.3,561.4L231.3,561.4z"/>
	<path class="st1" d="M278.1,542c1.1,0,2.1,0.2,3.1,0.6s1.8,1,2.5,1.7s1.3,1.5,1.7,2.5s0.6,2,0.6,3.1v31.5c0,1.1-0.2,2.1-0.6,3.1
		c-0.4,1-1,1.8-1.7,2.5c-0.7,0.7-1.5,1.3-2.5,1.7s-2,0.6-3.1,0.6h-23.9c-1.1,0-2.1-0.2-3.1-0.6s-1.8-1-2.5-1.7
		c-0.7-0.7-1.3-1.6-1.7-2.5c-0.4-1-0.6-2-0.6-3.1v-31.5c0-1.1,0.2-2.1,0.6-3.1c0.4-1,1-1.8,1.7-2.5s1.6-1.3,2.5-1.7s2-0.6,3.1-0.6
		H278.1z M274,553.5h-15.9v24.3H274V553.5z"/>
	<path class="st1" d="M335.9,542.4c0.2,0.2,0.4,0.5,0.4,0.9V588c0,0.4-0.1,0.7-0.4,0.9s-0.5,0.4-0.9,0.4h-9.7
		c-0.4,0-0.7-0.1-1.1-0.3s-0.6-0.5-0.8-0.8l-14.9-27.5v27.3c0,0.9-0.4,1.3-1.3,1.3h-9.3c-0.9,0-1.3-0.4-1.3-1.3v-44.7
		c0-0.8,0.4-1.3,1.3-1.3h9.6c0.4,0,0.7,0.1,1.1,0.3s0.6,0.5,0.8,0.8l15,27.6v-27.4c0-0.4,0.1-0.7,0.4-0.9s0.5-0.4,0.9-0.4h9.4
		C335.3,542,335.6,542.1,335.9,542.4L335.9,542.4L335.9,542.4z"/>
</g>
<g id="MLH_Logo">
	<g>
		<path class="st1" d="M80.8,157.5c0.3,0.1,0.5,0.3,0.7,0.5s0.4,0.4,0.5,0.7s0.2,0.6,0.2,0.9v10.9c0,0.1,0,0.2-0.1,0.3
			s-0.2,0.1-0.3,0.1h-2.7c-0.1,0-0.2,0-0.2-0.1s-0.1-0.2-0.1-0.3v-9.9h-2.2v9.9c0,0.1,0,0.2-0.1,0.3s-0.2,0.1-0.2,0.1h-2.4
			c-0.1,0-0.2,0-0.3-0.1s-0.1-0.2-0.1-0.3v-9.9h-2.2v9.9c0,0.2-0.1,0.4-0.4,0.4h-2.7c-0.2,0-0.4-0.1-0.4-0.4v-12.9
			c0-0.2,0.1-0.4,0.4-0.4h11.7C80.2,157.3,80.5,157.4,80.8,157.5L80.8,157.5L80.8,157.5z"/>
		<path class="st1" d="M94.3,157.3c0.3,0,0.6,0.1,0.9,0.2s0.5,0.3,0.7,0.5s0.4,0.4,0.5,0.7s0.2,0.6,0.2,0.9v10.9
			c0,0.1,0,0.2-0.1,0.3c-0.1,0.1-0.2,0.1-0.3,0.1h-2.7c-0.1,0-0.2,0-0.3-0.1s-0.1-0.2-0.1-0.3v-3.5c0-0.1,0-0.2-0.1-0.3
			s-0.2-0.1-0.2-0.1H89c-0.1,0-0.2,0-0.3,0.1s-0.1,0.2-0.1,0.3v3.5c0,0.2-0.1,0.4-0.4,0.4h-2.7c-0.2,0-0.4-0.1-0.4-0.4v-10.9
			c0-0.3,0.1-0.6,0.2-0.9c0.1-0.3,0.3-0.5,0.5-0.7s0.4-0.4,0.7-0.5c0.3-0.1,0.6-0.2,0.9-0.2H94.3L94.3,157.3z M93.2,163.8v-3.4h-4.6
			v3.4H93.2z"/>
		<path class="st1" d="M108.8,157.4c0.1,0.1,0.1,0.2,0.1,0.3v10.9c0,0.3-0.1,0.6-0.2,0.9c-0.1,0.3-0.3,0.5-0.5,0.7
			c-0.2,0.2-0.4,0.4-0.7,0.5c-0.3,0.1-0.6,0.2-0.9,0.2h-5.8c-0.3,0-0.6-0.1-0.9-0.2c-0.3-0.1-0.5-0.3-0.7-0.5
			c-0.2-0.2-0.4-0.4-0.5-0.7s-0.2-0.6-0.2-0.9v-4.2c0-0.2,0.1-0.4,0.4-0.4h2.7c0.2,0,0.4,0.1,0.4,0.4v2.8c0,0.1,0,0.2,0.1,0.2
			c0.1,0.1,0.2,0.1,0.3,0.1h2.8c0.1,0,0.2,0,0.3-0.1s0.1-0.1,0.1-0.2v-9.6c0-0.1,0-0.2,0.1-0.3s0.2-0.1,0.2-0.1h2.7
			C108.7,157.3,108.8,157.3,108.8,157.4L108.8,157.4L108.8,157.4z"/>
		<path class="st1" d="M121.1,157.3c0.3,0,0.6,0.1,0.9,0.2c0.3,0.1,0.5,0.3,0.7,0.5s0.4,0.4,0.5,0.7s0.2,0.6,0.2,0.9v9.1
			c0,0.3-0.1,0.6-0.2,0.9s-0.3,0.5-0.5,0.7c-0.2,0.2-0.4,0.4-0.7,0.5c-0.3,0.1-0.6,0.2-0.9,0.2h-6.9c-0.3,0-0.6-0.1-0.9-0.2
			c-0.3-0.1-0.5-0.3-0.7-0.5c-0.2-0.2-0.4-0.4-0.5-0.7s-0.2-0.6-0.2-0.9v-9.1c0-0.3,0.1-0.6,0.2-0.9s0.3-0.5,0.5-0.7
			s0.4-0.4,0.7-0.5c0.3-0.1,0.6-0.2,0.9-0.2H121.1z M120,160.6h-4.6v7h4.6V160.6z"/>
		<path class="st1" d="M138.3,170.6c0.1,0.1,0.1,0.2,0,0.2c0,0.1-0.1,0.1-0.2,0.1H135c-0.1,0-0.2,0-0.3-0.1
			c-0.1-0.1-0.2-0.1-0.2-0.2l-2.1-3.7c0-0.1-0.1-0.1-0.1-0.1H130c-0.1,0-0.1,0-0.1,0.1v3.6c0,0.2-0.1,0.4-0.4,0.4h-2.7
			c-0.2,0-0.4-0.1-0.4-0.4v-12.9c0-0.2,0.1-0.4,0.4-0.4h8.8c0.3,0,0.6,0.1,0.9,0.2c0.3,0.1,0.5,0.3,0.7,0.5s0.4,0.4,0.5,0.7
			c0.1,0.3,0.2,0.6,0.2,0.9v5.1c0,0.5-0.1,0.9-0.4,1.3c-0.3,0.4-0.7,0.7-1.1,0.8l-0.1,0c-0.1,0-0.1,0.1-0.1,0.1l0,0L138.3,170.6
			L138.3,170.6L138.3,170.6z M134.4,160.5h-4.7v3.3h4.7V160.5z"/>
		<path class="st1" d="M156.6,167.6c0.1,0,0.2,0,0.2,0.1s0.1,0.2,0.1,0.3v2.6c0,0.1,0,0.2-0.1,0.3s-0.1,0.1-0.2,0.1h-8.4
			c-0.2,0-0.4-0.1-0.4-0.4v-12.9c0-0.2,0.1-0.4,0.4-0.4h2.7c0.2,0,0.4,0.1,0.4,0.4v9.6c0,0.1,0,0.2,0.1,0.2s0.2,0.1,0.3,0.1H156.6
			L156.6,167.6z"/>
		<path class="st1" d="M169.1,157.4c0.1,0.1,0.1,0.2,0.1,0.3v2.4c0,0.1,0,0.2-0.1,0.2s-0.2,0.1-0.3,0.1h-6.5c-0.1,0-0.1,0-0.1,0.1
			v2.1c0,0.1,0,0.1,0.1,0.1h5.6c0.1,0,0.2,0,0.2,0.1s0.1,0.2,0.1,0.3v1.9c0,0.1,0,0.2-0.1,0.3s-0.1,0.1-0.2,0.1h-5.6
			c-0.1,0-0.1,0-0.1,0.1v2.1c0,0.1,0,0.1,0.1,0.1h6.5c0.1,0,0.2,0,0.3,0.1c0.1,0.1,0.1,0.2,0.1,0.3v2.4c0,0.1,0,0.2-0.1,0.3
			c-0.1,0.1-0.2,0.1-0.3,0.1h-9.6c-0.2,0-0.4-0.1-0.4-0.4v-12.9c0-0.1,0-0.2,0.1-0.3s0.2-0.1,0.3-0.1h9.6
			C169,157.3,169.1,157.4,169.1,157.4L169.1,157.4z"/>
		<path class="st1" d="M181.5,157.3c0.3,0,0.6,0.1,0.9,0.2s0.5,0.3,0.7,0.5s0.4,0.4,0.5,0.7s0.2,0.6,0.2,0.9v10.9
			c0,0.1,0,0.2-0.1,0.3c-0.1,0.1-0.2,0.1-0.3,0.1h-2.7c-0.1,0-0.2,0-0.3-0.1s-0.1-0.2-0.1-0.3v-3.5c0-0.1,0-0.2-0.1-0.3
			s-0.1-0.1-0.2-0.1h-3.9c-0.1,0-0.2,0-0.3,0.1s-0.1,0.2-0.1,0.3v3.5c0,0.2-0.1,0.4-0.4,0.4h-2.7c-0.2,0-0.4-0.1-0.4-0.4v-10.9
			c0-0.3,0.1-0.6,0.2-0.9c0.1-0.3,0.3-0.5,0.5-0.7s0.4-0.4,0.7-0.5c0.3-0.1,0.6-0.2,0.9-0.2H181.5L181.5,157.3L181.5,157.3z
			 M180.3,163.8v-3.4h-4.6v3.4H180.3z"/>
		<path class="st1" d="M198.1,163.6c0.1,0.1,0.1,0.2,0.1,0.3v4.8c0,0.3-0.1,0.6-0.2,0.9s-0.3,0.5-0.5,0.7c-0.2,0.2-0.4,0.4-0.7,0.5
			c-0.3,0.1-0.6,0.2-0.9,0.2H189c-0.3,0-0.6-0.1-0.9-0.2c-0.3-0.1-0.5-0.3-0.7-0.5c-0.2-0.2-0.4-0.4-0.5-0.7s-0.2-0.6-0.2-0.9v-9.1
			c0-0.3,0.1-0.6,0.2-0.9s0.3-0.5,0.5-0.7s0.4-0.4,0.7-0.5c0.3-0.1,0.6-0.2,0.9-0.2h8c0.1,0,0.2,0,0.3,0.1s0.1,0.2,0.1,0.3v2.6
			c0,0.1,0,0.2-0.1,0.3s-0.2,0.1-0.3,0.1h-6.5c-0.1,0-0.2,0-0.3,0.1s-0.1,0.1-0.1,0.2v6.3c0,0.1,0,0.2,0.1,0.2s0.2,0.1,0.3,0.1h3.9
			c0.1,0,0.2,0,0.2-0.1s0.1-0.1,0.1-0.2v-3.4c0-0.1,0-0.2,0.1-0.3s0.2-0.1,0.3-0.1h2.7C197.9,163.5,198,163.5,198.1,163.6
			L198.1,163.6L198.1,163.6z"/>
		<path class="st1" d="M212.4,157.4c0.1,0.1,0.1,0.2,0.1,0.3v10.9c0,0.3-0.1,0.6-0.2,0.9s-0.3,0.5-0.5,0.7c-0.2,0.2-0.4,0.4-0.7,0.5
			c-0.3,0.1-0.6,0.2-0.9,0.2h-6.9c-0.3,0-0.6-0.1-0.9-0.2c-0.3-0.1-0.5-0.3-0.7-0.5c-0.2-0.2-0.4-0.4-0.5-0.7
			c-0.1-0.3-0.2-0.6-0.2-0.9v-10.9c0-0.2,0.1-0.4,0.4-0.4h2.7c0.2,0,0.4,0.1,0.4,0.4v9.6c0,0.1,0,0.2,0.1,0.2s0.2,0.1,0.3,0.1h3.9
			c0.1,0,0.2,0,0.2-0.1s0.1-0.1,0.1-0.2v-9.6c0-0.1,0-0.2,0.1-0.3s0.2-0.1,0.3-0.1h2.7C212.3,157.3,212.3,157.4,212.4,157.4
			L212.4,157.4L212.4,157.4z"/>
		<path class="st1" d="M225.9,157.4c0.1,0.1,0.1,0.2,0.1,0.3v2.4c0,0.1,0,0.2-0.1,0.2s-0.2,0.1-0.3,0.1h-6.5c-0.1,0-0.1,0-0.1,0.1
			v2.1c0,0.1,0,0.1,0.1,0.1h5.6c0.1,0,0.2,0,0.2,0.1s0.1,0.2,0.1,0.3v1.9c0,0.1,0,0.2-0.1,0.3s-0.1,0.1-0.2,0.1h-5.6
			c-0.1,0-0.1,0-0.1,0.1v2.1c0,0.1,0,0.1,0.1,0.1h6.5c0.1,0,0.2,0,0.3,0.1c0.1,0.1,0.1,0.2,0.1,0.3v2.4c0,0.1,0,0.2-0.1,0.3
			c-0.1,0.1-0.2,0.1-0.3,0.1H216c-0.2,0-0.4-0.1-0.4-0.4v-12.9c0-0.1,0-0.2,0.1-0.3s0.2-0.1,0.3-0.1h9.6
			C225.7,157.3,225.8,157.4,225.9,157.4L225.9,157.4z"/>
		<path class="st1" d="M246.7,157.3c0.1,0,0.2,0,0.3,0.1s0.1,0.2,0.1,0.3v12.9c0,0.1,0,0.2-0.1,0.3s-0.2,0.1-0.3,0.1H244
			c-0.1,0-0.2,0-0.3-0.1s-0.1-0.2-0.1-0.3v-4.5c0-0.1,0-0.2-0.1-0.2s-0.1-0.1-0.2-0.1h-3.9c-0.1,0-0.2,0-0.3,0.1s-0.1,0.1-0.1,0.2
			v4.5c0,0.2-0.1,0.4-0.4,0.4H236c-0.2,0-0.4-0.1-0.4-0.4v-12.9c0-0.2,0.1-0.4,0.4-0.4h2.7c0.2,0,0.4,0.1,0.4,0.4v4.4
			c0,0.2,0.1,0.4,0.4,0.4h3.9c0.1,0,0.2,0,0.2-0.1s0.1-0.2,0.1-0.3v-4.4c0-0.1,0-0.2,0.1-0.3s0.2-0.1,0.3-0.1H246.7z"/>
		<path class="st1" d="M259.3,157.3c0.3,0,0.6,0.1,0.9,0.2c0.3,0.1,0.5,0.3,0.7,0.5s0.4,0.4,0.5,0.7s0.2,0.6,0.2,0.9v10.9
			c0,0.1,0,0.2-0.1,0.3c-0.1,0.1-0.2,0.1-0.3,0.1h-2.7c-0.1,0-0.2,0-0.3-0.1s-0.1-0.2-0.1-0.3v-3.5c0-0.1,0-0.2-0.1-0.3
			s-0.1-0.1-0.2-0.1h-3.9c-0.1,0-0.2,0-0.3,0.1s-0.1,0.2-0.1,0.3v3.5c0,0.2-0.1,0.4-0.4,0.4h-2.7c-0.2,0-0.4-0.1-0.4-0.4v-10.9
			c0-0.3,0.1-0.6,0.2-0.9c0.1-0.3,0.3-0.5,0.5-0.7s0.4-0.4,0.7-0.5c0.3-0.1,0.6-0.2,0.9-0.2H259.3z M258.1,163.8v-3.4h-4.6v3.4
			H258.1z"/>
		<path class="st1" d="M268.1,160.7c-0.1,0.1-0.1,0.1-0.1,0.2v6.3c0,0.1,0,0.2,0.1,0.2s0.2,0.1,0.3,0.1h6.2c0.1,0,0.2,0,0.3,0.1
			s0.1,0.2,0.1,0.3v2.6c0,0.1,0,0.2-0.1,0.3s-0.2,0.1-0.3,0.1h-7.8c-0.3,0-0.6-0.1-0.9-0.2c-0.3-0.1-0.5-0.3-0.7-0.5
			c-0.2-0.2-0.4-0.4-0.5-0.7s-0.2-0.6-0.2-0.9v-9.1c0-0.3,0.1-0.6,0.2-0.9c0.1-0.3,0.3-0.5,0.5-0.7s0.5-0.4,0.7-0.5
			c0.3-0.1,0.6-0.2,0.9-0.2h7.8c0.1,0,0.2,0,0.3,0.1s0.1,0.2,0.1,0.3v2.6c0,0.1,0,0.2-0.1,0.3s-0.2,0.1-0.3,0.1h-6.2
			C268.3,160.6,268.2,160.6,268.1,160.7L268.1,160.7L268.1,160.7z"/>
		<path class="st1" d="M285.8,163.1c0,0,0,0.1,0,0.1l4.5,7.4c0,0.1,0.1,0.2,0,0.2c0,0.1-0.1,0.1-0.2,0.1h-3.2c-0.1,0-0.2,0-0.3-0.1
			s-0.2-0.1-0.2-0.2l-2.9-5.3c0-0.1-0.1-0.1-0.1,0l-1.6,1.8c-0.1,0.1-0.1,0.2-0.2,0.3c0,0.1-0.1,0.2-0.1,0.3v2.9
			c0,0.2-0.1,0.4-0.4,0.4h-2.7c-0.2,0-0.4-0.1-0.4-0.4v-12.9c0-0.2,0.1-0.4,0.4-0.4h2.7c0.2,0,0.4,0.1,0.4,0.4v5.8l5-5.9
			c0.1-0.1,0.1-0.1,0.3-0.2s0.2-0.1,0.3-0.1h3.2c0.1,0,0.2,0,0.2,0.1s0,0.1-0.1,0.2L285.8,163.1L285.8,163.1L285.8,163.1z"/>
		<path class="st1" d="M296.3,170.6c0,0.2-0.1,0.4-0.4,0.4h-2.7c-0.2,0-0.4-0.1-0.4-0.4v-12.9c0-0.2,0.1-0.4,0.4-0.4h2.7
			c0.2,0,0.4,0.1,0.4,0.4V170.6z"/>
		<path class="st1" d="M309.4,157.5c0.3,0.1,0.5,0.3,0.7,0.5s0.4,0.4,0.5,0.7c0.1,0.3,0.2,0.6,0.2,0.9v10.9c0,0.1,0,0.2-0.1,0.3
			s-0.2,0.1-0.3,0.1h-2.7c-0.1,0-0.2,0-0.2-0.1s-0.1-0.2-0.1-0.3V161c0-0.1,0-0.2-0.1-0.2s-0.2-0.1-0.3-0.1h-3.9
			c-0.1,0-0.2,0-0.3,0.1s-0.1,0.1-0.1,0.2v9.6c0,0.2-0.1,0.4-0.4,0.4h-2.7c-0.2,0-0.4-0.1-0.4-0.4v-12.9c0-0.2,0.1-0.4,0.4-0.4h8.8
			C308.8,157.3,309.1,157.4,309.4,157.5L309.4,157.5L309.4,157.5z"/>
		<path class="st1" d="M325.1,163.6c0.1,0.1,0.1,0.2,0.1,0.3v4.8c0,0.3-0.1,0.6-0.2,0.9s-0.3,0.5-0.5,0.7c-0.2,0.2-0.4,0.4-0.7,0.5
			c-0.3,0.1-0.6,0.2-0.9,0.2H316c-0.3,0-0.6-0.1-0.9-0.2c-0.3-0.1-0.5-0.3-0.7-0.5c-0.2-0.2-0.4-0.4-0.5-0.7s-0.2-0.6-0.2-0.9v-9.1
			c0-0.3,0.1-0.6,0.2-0.9s0.3-0.5,0.5-0.7s0.5-0.4,0.7-0.5c0.3-0.1,0.6-0.2,0.9-0.2h8c0.1,0,0.2,0,0.3,0.1s0.1,0.2,0.1,0.3v2.6
			c0,0.1,0,0.2-0.1,0.3s-0.2,0.1-0.3,0.1h-6.5c-0.1,0-0.2,0-0.3,0.1s-0.1,0.1-0.1,0.2v6.3c0,0.1,0,0.2,0.1,0.2s0.2,0.1,0.3,0.1h3.9
			c0.1,0,0.2,0,0.2-0.1s0.1-0.1,0.1-0.2v-3.4c0-0.1,0-0.2,0.1-0.3s0.2-0.1,0.3-0.1h2.7C324.9,163.5,325,163.5,325.1,163.6
			L325.1,163.6L325.1,163.6z"/>
	</g>
	<g>
		<path class="st1" d="M149.7,63.7c1.8,0.8,3.3,1.8,4.5,3.1c1.3,1.3,2.3,2.8,3.1,4.5c0.8,1.8,1.2,3.6,1.2,5.6v71.3
			c0,0.6-0.2,1.2-0.7,1.6s-1,0.7-1.7,0.7h-17.1c-0.7,0-1.2-0.2-1.6-0.7s-0.6-1-0.6-1.6V83.4h-13.8v64.8c0,0.6-0.2,1.2-0.6,1.6
			c-0.4,0.4-0.9,0.7-1.6,0.7h-15.5c-0.7,0-1.2-0.2-1.7-0.7c-0.4-0.4-0.7-1-0.7-1.6V83.4H89.4v64.8c0,1.6-0.8,2.3-2.3,2.3H70.1
			c-1.6,0-2.3-0.8-2.3-2.3V64.9c0-1.5,0.8-2.3,2.3-2.3h74C146.1,62.6,147.9,62.9,149.7,63.7L149.7,63.7L149.7,63.7z"/>
		<path class="st1" d="M149.7,63.7c1.8,0.8,3.3,1.8,4.5,3.1c1.3,1.3,2.3,2.8,3.1,4.5c0.8,1.8,1.2,3.6,1.2,5.6v6.4l-21.6,0.1H89.4
			l-21.6-0.1V64.9c0-1.5,0.8-2.3,2.3-2.3h74C146.1,62.5,148,62.9,149.7,63.7L149.7,63.7L149.7,63.7z"/>
	</g>
	<g>
		<path class="st1" d="M232.9,129.2c0.7,0,1.3,0.2,1.7,0.7c0.4,0.5,0.6,1,0.6,1.7v16.6c0,0.7-0.2,1.2-0.6,1.7
			c-0.4,0.5-1,0.7-1.7,0.7h-58.4c-1.6,0-2.5-0.8-2.5-2.4V64.9c0-1.6,0.8-2.4,2.5-2.4h17.9c1.6,0,2.5,0.8,2.5,2.4v62
			c0,0.7,0.2,1.2,0.7,1.6c0.5,0.4,1.1,0.6,1.8,0.6H232.9z"/>
		<path class="st1" d="M194.7,150.6h-20.2c-1.6,0-2.5-0.8-2.5-2.4V64.9c0-1.6,0.8-2.4,2.5-2.4h17.9c1.6,0,2.5,0.8,2.5,2.4v62
			C194.8,127.6,194.7,150.6,194.7,150.6z"/>
	</g>
	<g>
		<path class="st1" d="M322.7,62.6c0.7,0,1.3,0.2,1.8,0.7c0.5,0.5,0.7,1,0.7,1.7v83.5c0,0.7-0.2,1.2-0.7,1.7
			c-0.5,0.5-1.1,0.7-1.8,0.7h-18.2c-0.7,0-1.3-0.2-1.8-0.7c-0.5-0.5-0.7-1-0.7-1.7v-29.1c0-0.7-0.2-1.2-0.6-1.6
			c-0.4-0.4-1-0.6-1.7-0.6h-25.5c-0.7,0-1.3,0.2-1.8,0.6c-0.5,0.4-0.7,1-0.7,1.6v29.1c0,1.6-0.8,2.4-2.5,2.4h-18.1
			c-1.7,0-2.5-0.8-2.5-2.4V65c0-1.6,0.8-2.4,2.5-2.4h18.1c1.6,0,2.5,0.8,2.5,2.4v28.2c0,1.6,0.8,2.4,2.5,2.4h25.5
			c0.7,0,1.3-0.2,1.7-0.7s0.6-1,0.6-1.7V65c0-0.7,0.2-1.2,0.7-1.7s1.1-0.7,1.8-0.7L322.7,62.6L322.7,62.6L322.7,62.6z"/>
		<path class="st1" d="M271.7,119.3v29.1c0,1.6-0.8,2.4-2.5,2.4h-18.1c-1.7,0-2.5-0.8-2.5-2.4V65c0-1.6,0.8-2.4,2.5-2.4h18.1
			c1.6,0,2.5,0.8,2.5,2.4V119.3L271.7,119.3L271.7,119.3z"/>
		<path class="st1" d="M322.7,62.6c0.7,0,1.3,0.2,1.8,0.7c0.5,0.5,0.7,1,0.7,1.7v83.5c0,0.7-0.2,1.2-0.7,1.7
			c-0.5,0.5-1.1,0.7-1.8,0.7h-18.2c-0.7,0-1.3-0.2-1.8-0.7c-0.5-0.5-0.7-1-0.7-1.7V65c0-0.7,0.2-1.2,0.7-1.7s1.1-0.7,1.8-0.7
			L322.7,62.6L322.7,62.6z"/>
	</g>
</g>
<g>
	<g>
		<path class="st1" d="M76.1,487.8V498c0.2,1.1,0.9,1.7,2.1,1.7h38.3c0.6,0,1.1,0.2,1.5,0.6c0.4,0.4,0.6,0.9,0.6,1.5v13.8
			c0,0.6-0.2,1.1-0.6,1.5s-0.9,0.6-1.5,0.6H60.4c-1.4,0-2.2-0.7-2.2-2.2V483c0-1.8,0.3-3.5,1-5.1c0.7-1.6,1.6-3,2.8-4.2
			c1.2-1.2,2.6-2.2,4.3-2.9c1.6-0.7,3.4-1,5.2-1h27c0.6,0,1.1-0.2,1.5-0.6s0.6-0.9,0.6-1.5v-9.2c0-0.6-0.2-1.1-0.6-1.5
			s-0.9-0.6-1.5-0.6H62.8c-0.6,0-1.1-0.2-1.5-0.6s-0.6-0.9-0.6-1.5v-14c0-0.6,0.2-1.1,0.6-1.5s0.9-0.6,1.5-0.6h42.5
			c1.8,0,3.5,0.4,5.1,1.1s3,1.7,4.2,2.9c1.2,1.2,2.2,2.6,2.8,4.2c0.7,1.6,1,3.4,1,5.2v3.2c0.1,0.1,0.1,0.2,0.1,0.3v29.1
			c0,0.6-0.2,1.1-0.6,1.5s-0.9,0.6-1.5,0.6H78.2C77.1,486,76.4,486.6,76.1,487.8L76.1,487.8L76.1,487.8z"/>
		<path class="st1" d="M178.2,438c1.8,0,3.6,0.4,5.2,1.1c1.6,0.7,3,1.7,4.2,2.9c1.2,1.2,2.1,2.6,2.9,4.2c0.7,1.6,1.1,3.4,1.1,5.2
			v53.1c0,1.8-0.4,3.5-1.1,5.2c-0.7,1.6-1.7,3.1-2.9,4.3c-1.2,1.2-2.6,2.2-4.2,2.8s-3.4,1-5.2,1h-34.3c-1.8,0-3.6-0.3-5.2-1
			c-1.6-0.7-3.1-1.6-4.3-2.8c-1.2-1.2-2.2-2.6-2.9-4.3c-0.7-1.6-1-3.4-1-5.2v-53.1c0-1.8,0.3-3.5,1-5.2c0.7-1.6,1.6-3,2.9-4.2
			c1.2-1.2,2.6-2.1,4.3-2.9c1.6-0.7,3.4-1.1,5.2-1.1H178.2z M172.1,457.4h-22.2v41h22.2V457.4z"/>
		<path class="st1" d="M221,487.8V498c0.2,1.1,0.9,1.7,2.1,1.7h38.3c0.6,0,1.1,0.2,1.5,0.6s0.6,0.9,0.6,1.5v13.8
			c0,0.6-0.2,1.1-0.6,1.5s-0.9,0.6-1.5,0.6h-56.1c-1.4,0-2.2-0.7-2.2-2.2V483c0-1.8,0.3-3.5,1-5.1s1.6-3,2.9-4.2s2.6-2.2,4.3-2.9
			c1.6-0.7,3.4-1,5.2-1h27c0.6,0,1.1-0.2,1.5-0.6s0.6-0.9,0.6-1.5v-9.2c0-0.6-0.2-1.1-0.6-1.5s-0.9-0.6-1.5-0.6h-35.8
			c-0.6,0-1.1-0.2-1.5-0.6c-0.4-0.4-0.6-0.9-0.6-1.5v-14c0-0.6,0.2-1.1,0.6-1.5s0.9-0.6,1.5-0.6h42.5c1.8,0,3.5,0.4,5.1,1.1
			s3,1.7,4.2,2.9c1.2,1.2,2.2,2.6,2.9,4.2c0.7,1.6,1,3.4,1,5.2v3.2c0.1,0.1,0.1,0.2,0.1,0.3v29.1c0,0.6-0.2,1.1-0.6,1.5
			s-0.9,0.6-1.5,0.6h-38.3C222,486,221.3,486.6,221,487.8L221,487.8L221,487.8z"/>
		<path class="st1" d="M332,474.6c-0.4,0.4-0.8,0.9-1.1,1.4s-0.6,1.2-0.6,1.8c0.1,0.6,0.3,1.2,0.7,1.8c0.4,0.6,0.8,1.1,1.1,1.6
			l1,1.1l0.9,1.2l1.4,1.6c0.4,0.5,0.7,1,1,1.8c0.3,0.7,0.5,1.4,0.5,2v15.5c0,1.8-0.4,3.5-1.1,5.2c-0.7,1.6-1.7,3.1-2.9,4.3
			c-1.2,1.2-2.6,2.2-4.2,2.8s-3.4,1-5.2,1h-45.6c-1.4,0-2.2-0.7-2.2-2.2v-13.2c0-0.6,0.2-1.1,0.6-1.5s0.9-0.6,1.5-0.6h37.9
			c0.6,0,1.1-0.2,1.5-0.6s0.6-0.9,0.6-1.5v-9.8c0-0.6-0.2-1.1-0.6-1.5s-0.9-0.6-1.5-0.6h-30.5c-0.6,0-1.1-0.2-1.5-0.6
			s-0.6-0.9-0.6-1.5v-12.5c0-0.6,0.2-1.1,0.6-1.5s0.9-0.6,1.5-0.6h30.5c0.6,0,1.1-0.2,1.5-0.6s0.6-0.9,0.6-1.5v-9.9
			c0-0.6-0.2-1.1-0.6-1.5s-0.9-0.6-1.5-0.6h-37.9c-0.6,0-1.1-0.2-1.5-0.6s-0.6-0.9-0.6-1.5v-13.1c0-1.4,0.7-2.2,2.2-2.2h45.6
			c1.8,0,3.5,0.4,5.2,1.1c1.6,0.7,3,1.7,4.2,2.9s2.1,2.6,2.9,4.2c0.7,1.6,1.1,3.4,1.1,5.2v14.8c0,0.6-0.1,1.3-0.4,2
			c-0.3,0.7-0.6,1.3-1,1.8l-2.4,3.2L332,474.6L332,474.6L332,474.6z"/>
	</g>
	<g>
		<path class="st1" d="M76.1,487.8V498c0.2,1.1,0.9,1.7,2.1,1.7h38.3c0.6,0,1.1,0.2,1.5,0.6c0.4,0.4,0.6,0.9,0.6,1.5v13.8
			c0,0.6-0.2,1.1-0.6,1.5s-0.9,0.6-1.5,0.6H60.4c-1.4,0-2.2-0.7-2.2-2.2V483c0-1.8,0.3-3.5,1-5.1c0.7-1.6,1.6-3,2.8-4.2
			c1.2-1.2,2.6-2.2,4.3-2.9c1.6-0.7,3.4-1,5.2-1h27c0.6,0,1.1-0.2,1.5-0.6s0.6-0.9,0.6-1.5v-9.2c0-0.6-0.2-1.1-0.6-1.5
			s-0.9-0.6-1.5-0.6H62.8c-0.6,0-1.1-0.2-1.5-0.6s-0.6-0.9-0.6-1.5v-14c0-0.6,0.2-1.1,0.6-1.5s0.9-0.6,1.5-0.6h42.5
			c1.8,0,3.5,0.4,5.1,1.1s3,1.7,4.2,2.9c1.2,1.2,2.2,2.6,2.8,4.2c0.7,1.6,1,3.4,1,5.2v3.2c0.1,0.1,0.1,0.2,0.1,0.3v29.1
			c0,0.6-0.2,1.1-0.6,1.5s-0.9,0.6-1.5,0.6H78.2C77.1,486,76.4,486.6,76.1,487.8L76.1,487.8L76.1,487.8z"/>
		<path class="st1" d="M178.2,438c1.8,0,3.6,0.4,5.2,1.1c1.6,0.7,3,1.7,4.2,2.9c1.2,1.2,2.1,2.6,2.9,4.2c0.7,1.6,1.1,3.4,1.1,5.2
			v53.1c0,1.8-0.4,3.5-1.1,5.2c-0.7,1.6-1.7,3.1-2.9,4.3c-1.2,1.2-2.6,2.2-4.2,2.8s-3.4,1-5.2,1h-34.3c-1.8,0-3.6-0.3-5.2-1
			c-1.6-0.7-3.1-1.6-4.3-2.8c-1.2-1.2-2.2-2.6-2.9-4.3c-0.7-1.6-1-3.4-1-5.2v-53.1c0-1.8,0.3-3.5,1-5.2c0.7-1.6,1.6-3,2.9-4.2
			c1.2-1.2,2.6-2.1,4.3-2.9c1.6-0.7,3.4-1.1,5.2-1.1H178.2z M172.1,457.4h-22.2v41h22.2V457.4z"/>
		<path class="st1" d="M221,487.8V498c0.2,1.1,0.9,1.7,2.1,1.7h38.3c0.6,0,1.1,0.2,1.5,0.6s0.6,0.9,0.6,1.5v13.8
			c0,0.6-0.2,1.1-0.6,1.5s-0.9,0.6-1.5,0.6h-56.1c-1.4,0-2.2-0.7-2.2-2.2V483c0-1.8,0.3-3.5,1-5.1s1.6-3,2.9-4.2s2.6-2.2,4.3-2.9
			c1.6-0.7,3.4-1,5.2-1h27c0.6,0,1.1-0.2,1.5-0.6s0.6-0.9,0.6-1.5v-9.2c0-0.6-0.2-1.1-0.6-1.5s-0.9-0.6-1.5-0.6h-35.8
			c-0.6,0-1.1-0.2-1.5-0.6c-0.4-0.4-0.6-0.9-0.6-1.5v-14c0-0.6,0.2-1.1,0.6-1.5s0.9-0.6,1.5-0.6h42.5c1.8,0,3.5,0.4,5.1,1.1
			s3,1.7,4.2,2.9c1.2,1.2,2.2,2.6,2.9,4.2c0.7,1.6,1,3.4,1,5.2v3.2c0.1,0.1,0.1,0.2,0.1,0.3v29.1c0,0.6-0.2,1.1-0.6,1.5
			s-0.9,0.6-1.5,0.6h-38.3C222,486,221.3,486.6,221,487.8L221,487.8L221,487.8z"/>
		<path class="st1" d="M332,474.6c-0.4,0.4-0.8,0.9-1.1,1.4s-0.6,1.2-0.6,1.8c0.1,0.6,0.3,1.2,0.7,1.8c0.4,0.6,0.8,1.1,1.1,1.6
			l1,1.1l0.9,1.2l1.4,1.6c0.4,0.5,0.7,1,1,1.8c0.3,0.7,0.5,1.4,0.5,2v15.5c0,1.8-0.4,3.5-1.1,5.2c-0.7,1.6-1.7,3.1-2.9,4.3
			c-1.2,1.2-2.6,2.2-4.2,2.8s-3.4,1-5.2,1h-45.6c-1.4,0-2.2-0.7-2.2-2.2v-13.2c0-0.6,0.2-1.1,0.6-1.5s0.9-0.6,1.5-0.6h37.9
			c0.6,0,1.1-0.2,1.5-0.6s0.6-0.9,0.6-1.5v-9.8c0-0.6-0.2-1.1-0.6-1.5s-0.9-0.6-1.5-0.6h-30.5c-0.6,0-1.1-0.2-1.5-0.6
			s-0.6-0.9-0.6-1.5v-12.5c0-0.6,0.2-1.1,0.6-1.5s0.9-0.6,1.5-0.6h30.5c0.6,0,1.1-0.2,1.5-0.6s0.6-0.9,0.6-1.5v-9.9
			c0-0.6-0.2-1.1-0.6-1.5s-0.9-0.6-1.5-0.6h-37.9c-0.6,0-1.1-0.2-1.5-0.6s-0.6-0.9-0.6-1.5v-13.1c0-1.4,0.7-2.2,2.2-2.2h45.6
			c1.8,0,3.5,0.4,5.2,1.1c1.6,0.7,3,1.7,4.2,2.9s2.1,2.6,2.9,4.2c0.7,1.6,1.1,3.4,1.1,5.2v14.8c0,0.6-0.1,1.3-0.4,2
			c-0.3,0.7-0.6,1.3-1,1.8l-2.4,3.2L332,474.6L332,474.6L332,474.6z"/>
	</g>
</g>
</svg>
