<?xml version="1.0" encoding="UTF-8"?>
<svg xmlns="http://www.w3.org/2000/svg" xmlns:xlink="http://www.w3.org/1999/xlink" viewBox="0 0 4000 2000">
  <defs>
    <style>
      .cls-1 {
        fill: none;
      }

      .cls-2 {
        clip-path: url(#clippath);
      }

      .cls-3 {
        fill: #698cf5;
      }

      .cls-4 {
        fill: #00141e;
      }

      .cls-5 {
        fill: #ff583d;
      }

      .cls-6 {
        fill: #eb7850;
      }

      .cls-7 {
        fill: #eb4b4b;
      }

      .cls-8 {
        fill: #ef7873;
      }

      .cls-9, .cls-10 {
        fill: #fff;
      }

      .cls-11 {
        fill: #f0825a;
      }

      .cls-12 {
        fill: #ff966e;
      }

      .cls-13 {
        fill: #80acff;
      }

      .cls-14 {
        fill: #303136;
      }

      .cls-15 {
        fill: #ba845f;
      }

      .cls-16 {
        fill: #b2b5bb;
      }

      .cls-17 {
        fill: #c7ccea;
      }

      .cls-18 {
        fill: #d56e37;
      }

      .cls-19 {
        fill: #db7841;
      }

      .cls-20 {
        fill: #e16e46;
      }

      .cls-21 {
        fill: #c8cdeb;
      }

      .cls-22 {
        fill: #d78046;
      }

      .cls-23 {
        fill: #422e27;
      }

      .cls-24 {
        fill: #142832;
      }

      .cls-25 {
        fill: #0a1e28;
      }

      .cls-26 {
        fill: #1d1d1b;
      }

      .cls-27 {
        fill: #1c1a1c;
      }

      .cls-28 {
        fill: #401b32;
      }

      .cls-29 {
        fill: #88727a;
      }

      .cls-30 {
        fill: #705e65;
      }

      .cls-31 {
        fill: #281e1e;
      }

      .cls-32 {
        fill: #5578e1;
      }

      .cls-33 {
        fill: #2d112b;
      }

      .cls-34 {
        fill: #322828;
      }

      .cls-35 {
        fill: #5a4d53;
      }

      .cls-36 {
        fill: #3c3d42;
      }

      .cls-37 {
        fill: #846963;
      }

      .cls-38 {
        fill: #4c4b53;
      }

      .cls-39 {
        fill: #605b65;
      }

      .cls-40 {
        clip-path: url(#clippath-1);
      }

      .cls-10 {
        opacity: .75;
      }

      .cls-10, .cls-41 {
        isolation: isolate;
      }

      .cls-41 {
        fill: #cacfe3;
        opacity: .5;
      }
    </style>
    <clipPath id="clippath">
      <rect class="cls-1" width="4000" height="2000"/>
    </clipPath>
    <clipPath id="clippath-1">
      <rect class="cls-1" width="4000" height="2000"/>
    </clipPath>
  </defs>
  <g id="fon">
    <rect class="cls-35" y="0" width="4000" height="2000"/>
  </g>
  <g id="wall">
    <g class="cls-2">
      <g>
        <path class="cls-36" d="m4000,1360.17V493.43l-59.97-165.61-180.92-171.38s-345.15,11.87-344.89,32l103.12,237.78-90.67-21.34,29.33,600-253.33-645.33-58.99,23.95c-3.84-20.86-7.98-42.48-12.76-65.16l-157.57-192.12-180,197.78-181.33,72,161.33-229.33-312.41,108.03-9.49,53.12-88.14-42.7-89.54-10.42-91.09,38.64-71.55-228-58.08,353.16-13.28-13.28-39.84-188.14-57.69-132.18-61.44,169.81-38.73,277.27-114.09,31.02-94.62,51.54-43.61,66.97-14.02-49.84-79.43-4.67,14.83,84.57-27.55,199.11-51.56-270.22-68.44-19.56,50.7-25.42-19.59-84.8,54.89-22.3,17.94-77.72c-13.9-94.22,53.4-357.76,53.4-357.76l-370.92,155.33-72.75,46.48-130.14,64.93-67.88,371.85-51.97-286.25-98.05,59.03-108.22,453.99-11.17-346.24-53.33,73.78-63.86,488.38-88.54-336.44s-48.7-48.7-53.12-57.55c-.24-.48-.61-1.26-1.05-2.22l-88.55-64.62-138.67-106.67L0,493.43v866.74l103.04,12.37,367.98,12.91,228.54-46.79,140.44,44.89,612.27,36.22,103.99-40-8,32,363.98-12,122.42-25.55,261.56,89.55h383.98l113.12-31.77,378.85,47.77,151.99-28,64,24,359.98-16,150.51-36.22,101.33-63.38Z"/>
        <g>
          <polygon class="cls-14" points="934.22 1330.67 1008 1351.11 1171.56 1370.67 1192 1343.11 1388.44 1349.33 1535.6 1338.74 1626.67 1349.33 1884 1369.33 2118 1300.64 2301.33 1406.22 2512.77 1385.51 2660.45 1418.67 2783.11 1368.89 3048 1406.22 3122.12 1396.37 3103.59 1424.17 3359.32 1366.12 3535.37 1379.36 3690.99 1384.15 3813.33 1409.78 4000 1384.89 4000 1342.7 3976.89 1350.23 3902.22 1240 3924.44 1350.23 3871.8 1360.12 3862.3 1354.21 3763.03 1306.56 3645.23 1301.26 3688.91 1162.28 3421.53 1330.38 3360.64 1315.82 3319.61 1235.08 3158.12 1297.29 2940.45 1292.45 2899.76 1325.43 2844.17 1302.93 2767.4 1261.9 2736.96 1009.08 2625.63 1278.55 2386.76 1234.01 2107.52 1238.95 2015.11 1242.67 1808 1140 1787.16 1244.61 1638.58 1305.66 1426.92 1240.05 1456.89 938.67 1324.27 1208.23 940.63 1259.86 830.67 1154.67 798.22 1277.33 686.67 1266.67 222 1300.67 325.33 1040 147.49 1277.48 63.11 1175.11 53.33 1325.33 0 1342.7 0 1384.89 59.36 1376.98 320 1394.67 430.22 1366.22 725.33 1370.67 747.56 1338.67 841.78 1334.23 934.22 1330.67"/>
          <polygon class="cls-14" points="2918.67 353.78 2724.44 467.56 2740.45 556.45 2740.45 720 2848.89 519.11 2918.67 353.78"/>
          <polygon class="cls-14" points="946.67 350.67 818.67 588 849.33 877.33 946.67 350.67"/>
          <polygon class="cls-14" points="154.67 678.22 129.78 696.89 117.33 986.67 184 784 269.33 708 154.67 678.22"/>
          <polygon class="cls-14" points="3088 397.33 3192 461.33 3105.06 726.35 2920 749.33 2765.33 1038.22 2790.44 740.37 3039.64 382.14 3088 397.33"/>
          <polygon class="cls-14" points="1668 596 1873.33 630.67 1990.67 544 1840.89 328 1782.67 505.33 1668 596"/>
          <polygon class="cls-14" points="3465.78 451.55 3499.56 1178.67 3606.22 1000.89 3542.22 638.22 3702.22 378.66 3528 472.89 3465.78 451.55"/>
          <polygon class="cls-36" points="-111.7 735.42 29.25 719.84 254.32 413.79 200.58 413.01 -128.84 629.51 -111.7 735.42"/>
        </g>
        <g>
          <polygon class="cls-38" points="1472.96 1232.27 1785.33 738.67 1885.66 697.79 1702.22 1173.33 1645.33 1255.11 1472.96 1232.27"/>
          <polygon class="cls-38" points="814.09 467.28 861.85 868.08 608.49 1129.74 589.8 1046.68 814.09 467.28"/>
          <polygon class="cls-38" points="122.67 1101.33 276.74 796.95 332.81 786.05 370.19 854.58 463.64 1231.5 180.17 1323.39 301.66 1080.42 148.44 1206.22 122.67 1101.33"/>
          <polygon class="cls-38" points="1855.33 640.67 2089.33 445.33 2299.96 421.59 2052.32 649.51 1855.33 640.67"/>
          <polygon class="cls-38" points="1924.64 699.2 1923.04 896.63 1904.6 1201.14 2029.33 1283.56 2182.31 1047.78 2232 860 2416.78 686.37 1924.64 699.2"/>
          <polygon class="cls-38" points="3315.43 775.33 3313.35 831.4 2836 1174.67 2779.64 1125.26 2771.33 1087.88 3144.1 751.45 3315.43 775.33"/>
          <polygon class="cls-38" points="2106.83 650.54 2438.59 644.31 2893.39 370.19 2603.69 421.59 2399.65 429.38 2106.83 650.54"/>
          <polygon class="cls-38" points="2978.67 420.45 3041.33 382.67 3216.89 449.78 2941.33 828.45 2800 728 2852 598.67 2978.67 420.45"/>
          <path class="cls-38" d="m3892.45,387.56l-174.22-23.11-158.22,202.67,60.44,225.78s206.23-232.89,211.56-234.67c5.33-1.78,103.11-74.67,103.11-74.67l-42.67-96Z"/>
          <polygon class="cls-38" points="2629.85 1210.22 2595.56 1245.78 2336.89 1208.89 2528 1188.45 2566 1190 2629.85 1210.22"/>
          <polygon class="cls-38" points="89.73 1086.66 0 721.47 0 1026.84 89.73 1086.66"/>
          <polygon class="cls-38" points="3826.67 970.67 3982.26 1015.02 4000 1026.84 4000 721.47 3960 558.67 3826.67 970.67"/>
          <polygon class="cls-38" points="3854.67 1022.67 3800 1082.67 4000 1229.57 4000 1103.85 3854.67 1022.67"/>
          <polygon class="cls-38" points="48 1130.67 0 1103.85 0 1229.57 101.33 1304 48 1130.67"/>
        </g>
        <g>
          <polygon class="cls-39" points="688.81 1048.65 692.34 753.47 814.09 467.28 871.47 880.1 852.06 898.63 688.81 1048.65"/>
          <polygon class="cls-39" points="1281.33 1158.67 1445.89 902.99 1412.46 686.72 1329.09 652.75 1424.4 271.35 1158.26 271.35 930.67 557.33 912.18 766.09 1136.89 697.78 910.22 864 842.69 964.7 822.06 1066.29 953.78 1237.33 1281.33 1158.67"/>
          <polygon class="cls-39" points="1597.12 109.02 1849.27 319.47 1839.34 553.74 1724.19 609.33 1640.8 627.2 1605.07 551.75 1613.01 607.34 1547.49 591.46 1511.75 432.63 1575.29 265.86 1746.03 512.05 1607.05 192.4 1597.12 109.02"/>
          <polygon class="cls-39" points="1924.64 699.2 1898.9 889.26 1909.33 1099.56 2192.73 817.79 2033.9 819.78 2216.55 786.03 2327.74 708.6 1924.64 699.2"/>
          <polygon class="cls-39" points="2083.67 655.33 2299.94 516.02 2629.51 494.18 2379.36 625.21 2417.08 551.75 2276.12 625.21 2083.67 655.33"/>
          <polygon class="cls-39" points="1634.67 699.33 1987.33 619.33 2392 389.33 1908.82 537.86 1863.16 607.34 1634.67 699.33"/>
          <polygon class="cls-39" points="1609.04 950.81 1736.89 767.55 1765.88 694.7 1545.51 774.11 1530.67 986.67 1609.04 950.81"/>
          <polygon class="cls-39" points="2251.58 885.84 2497.12 707.67 2740.69 508.08 2760.55 551.75 2738.71 720.51 2536.2 855.52 2732.75 772.13 2665.25 942.87 2603.7 1071.92 2526.27 1137.43 2423.04 1063.98 2307.88 1117.58 2194.72 1115.59 2238.39 1026.26 2251.58 885.84"/>
          <polygon class="cls-39" points="2904 770.67 2986.67 400.89 2849.33 598.67 2776.67 751.33 2775.33 913.33 2904 770.67"/>
          <polygon class="cls-39" points="3262.67 474.67 3466.67 1010.67 3387.56 1280 3337.78 1182.22 2793.78 1200 3236.45 808.89 3262.67 474.67"/>
          <polygon class="cls-39" points="3970.67 526.67 3864 982.67 3558.67 1134.67 3646.67 958.67 3970.67 526.67"/>
          <polygon class="cls-39" points="951.89 327.41 686.09 490.14 419.11 458.67 616.46 532.77 562.75 565.65 509.15 633.15 298.7 676.83 207.11 581.33 347.56 412.44 431.72 373.07 700 277.33 951.89 327.41"/>
        </g>
        <g>
          <polygon class="cls-37" points="1511.75 432.63 1547.49 591.46 1576.6 598.52 1552.83 324.81 1511.75 432.63"/>
          <polygon class="cls-37" points="240.32 1292.19 336.28 1073.13 334.3 788.55 390.55 856.72 479.23 1206.16 469.31 1239.91 240.32 1292.19"/>
          <polygon class="cls-37" points="294.67 682.67 346.67 416 639.11 540 512 641.33 294.67 682.67"/>
          <polygon class="cls-37" points="596 1146.67 679.99 991.29 694.1 791.86 761.17 935.69 872.36 880.99 687.93 1098.95 596 1146.67"/>
          <polygon class="cls-37" points="1255.64 1066.01 1029.33 1181.33 822.06 1066.29 845 958.64 1156.48 758.79 1311.11 737.78 1106.67 866.67 1180.45 856.89 1404.46 725.68 1255.64 1066.01"/>
          <polygon class="cls-37" points="943.83 733.62 1318.42 560.22 1401.81 300.79 943.83 733.62"/>
          <polygon class="cls-37" points="1455.11 1144.44 1545.51 774.11 1736.89 767.55 1688.89 845.78 1574.22 890.67 1650.67 901.78 1590.67 1001.78 1455.11 1144.44"/>
          <polygon class="cls-37" points="1686.22 1251.56 1885.66 697.79 1708.45 971.43 1686.22 1251.56"/>
          <polygon class="cls-37" points="2245.63 883.85 2235.04 1033.42 2350.42 1008.05 2412.19 884.51 2459.39 855.39 2701.33 538.67 2245.63 883.85"/>
          <polygon class="cls-37" points="1924.64 900.39 1966.67 1041.33 1905.33 1201.33 1898.17 887.82 1924.64 699.2 1924.64 900.39"/>
          <polygon class="cls-37" points="3301.33 838.67 3182.67 848 2842.67 1173.33 3277.33 1066.67 3353.33 962.67 3317.33 926.67 3301.33 838.67"/>
          <polygon class="cls-37" points="3906.67 643.56 3725.33 1028 3473.33 1245.33 3625.78 913.78 3906.67 643.56"/>
          <polygon class="cls-37" points="581.58 1216.88 517.33 1255.11 786.23 1185.71 803.56 1104 656.98 1173.46 581.58 1216.88"/>
        </g>
        <g>
          <polygon class="cls-15" points="1067.91 1161.67 1165.2 1112.1 1025.11 843.08 994.25 862.87 1067.91 1161.67"/>
          <polygon class="cls-15" points="478.22 560 512 641.33 565.82 598.43 478.22 560"/>
          <polygon class="cls-15" points="881.74 1099.42 974.74 1151.03 961.32 884 915.63 913.32 881.74 1099.42"/>
          <polygon class="cls-15" points="1348.29 351.37 1264.26 430.78 1204.52 612.95 1226.47 602.79 1348.29 351.37"/>
          <polygon class="cls-15" points="1135.3 644.98 1157.78 634.58 1204.75 487.03 1175.8 514.38 1135.3 644.98"/>
          <polygon class="cls-15" points="1752.99 1066.16 1807.82 913.94 1780.68 859.9 1735.83 929.16 1752.99 1066.16"/>
          <polygon class="cls-15" points="1540.88 793.09 1518.55 884.57 1705.9 768.62 1570.68 773.25 1540.88 793.09"/>
          <polygon class="cls-15" points="1694.05 1152.95 1717.91 1163.56 1724.56 1145.1 1699.59 1083.17 1694.05 1152.95"/>
          <polygon class="cls-15" points="2235.04 1033.42 2273.75 1024.91 2341.59 916.28 2236.88 1007.44 2235.04 1033.42"/>
          <polygon class="cls-15" points="2299.49 848.91 2243.2 918.19 2238.25 988.16 2401.53 782.7 2299.49 848.91"/>
          <path class="cls-15" d="m2947.03,1147.72l66.26-16.26c15.57-38.28,57.01-139.95,82.12-199.97l-102.63,98.21-45.75,118.03Z"/>
          <polygon class="cls-15" points="3066.75 1118.34 3099.01 1110.42 3182.67 848 3142.4 886.53 3066.75 1118.34"/>
          <polygon class="cls-15" points="3713.09 829.78 3682.09 859.61 3722.76 1030.22 3725.33 1028 3753.84 967.56 3713.09 829.78"/>
          <polygon class="cls-15" points="3619.86 1118.96 3675.3 1071.15 3626.26 913.32 3625.78 913.78 3592.64 985.84 3619.86 1118.96"/>
          <polygon class="cls-15" points="368.05 1020.19 449.12 1087.51 412.3 942.43 350.84 891.13 368.05 1020.19"/>
          <polygon class="cls-15" points="461.84 1137.6 361.43 1055.92 363.42 1067.84 469.17 1166.51 461.84 1137.6"/>
        </g>
      </g>
    </g>
  </g>
  <g id="ground">
    <g>
      <g>
        <path class="cls-30" d="m3092.41,1489.36c-767.73-5.17-62.44-63.79-679.35-70.7-71.51,31.78-189.18,29.49-362.94-.58-186.49.16-289.93.5-375.57.91-126.53,12.87-245.24,32.96-316.33,46.24-144.94,27.08-194.12,5.06-194.12,5.06,0,0-143.92-49.57-211.75,21.33-67.83,70.9-244.98-22.42-244.98-22.42,0,0-58.95-29.63-137.53-38.83-319.85-37.43-418.69,80.24-569.84,80.24v123.41c83.93,0,204.83,26.41,242.16,26.87,462.13,20.21,991.47-134.04,1498.32-127.61,1079.94,13.74,1619.92,35.69,959.96,43.92-659.97,8.24-407.99,139.99-1787.91,123.52-613.07-7.32-980.97,65.54-42.3,48.94,324.84-5.74,788.52,19.12,1068.59,43.08h2061.19v-45.54c-47.2,0-78.34-7.28-127.63-4.25-388.44,23.98-919.41-15.29-1123.94-17.52-620.07-6.75,902.61-91.4,1251.57-91.4v-123.41c-178.96,0-651.72-19.52-907.59-21.24Z"/>
        <path class="cls-30" d="m0,1747.17v45.54h176.63c73.09,0-10.08-45.54-176.63-45.54Z"/>
      </g>
      <g>
        <path class="cls-29" d="m3012.04,1746.6l4.75,1.86s29.87,5.22,31.23,5.03c1.36-.19,22.92-2.41,22.92-2.41l30.02-3.17s1.42-16.26-20.97-22.58c-7.62-2.15-21.51.19-21.51.19l-35.79,7.09-10.65,13.99Z"/>
        <path class="cls-29" d="m1948.65,1776.49c3.53.09,7.03.2,10.5.39,24.25,1.32,48.47,2.58,72.75,3.04,16.16.3,7.54-.06,23.97.39,0,0,8.14-8.71-13.28-22.94-7.5-4.99-27.86-12.54-27.86-12.54,0,0-22.81-4.62-45.42.66-8.17,1.91-20.78,6.62-23.47,8.52-11.87,8.34-8.62,13.71-8.62,13.71,0,0,6.48,5.54,11.43,8.77Z"/>
        <path class="cls-29" d="m2897.74,1756.3s6.26-22.97,31.94-26.42c5.81-18,39.42-21.17,49.03-22.08,15.44-1.48,43.59,11.71,50.87,17.53,7.27,5.81,13.88,12.66,18.24,22.84,4.37,10.19,5.67,13.93-4.5,13.93s-106.88.71-106.88.71c0,0-56.87,5.85-38.69-6.51Z"/>
        <path class="cls-29" d="m833.06,1545.15s2.85-21.45,25.22-29.15c22.38-7.69,38.44-9.27,52.43-3.91,13.99,5.35,21.11,22.58,21.11,22.58,0,0-17.35,5.09-22.94,6.09-5.59,1.01-19.27.67-27.66,2.34-8.39,1.67-29.21,3.01-32.94,3.01s-15.22-.96-15.22-.96Z"/>
        <path class="cls-29" d="m2484.26,1698.03c3.11-4.77,7.87-10.14,12.76-10.32,4.9-.18,11.01-1.92,17.82,1.4,6.81,3.32,11.01,8.22,11.19,9.97.17,1.75-2.8,5.59-4.9,5.94-2.1.35-12.58.7-14.33,1.05-1.75.35-15.72.87-15.72.87,0,0-9.09-5.42-6.82-8.91Z"/>
        <path class="cls-29" d="m1197.3,1451.97s5.36-19.04,22.32-20.22c16.96-1.17,27.34-3.12,39.33,1.5,11.99,4.62,25.93,17.73,26.68,19.97.75,2.24,1.04,9.3,1.04,9.3,0,0-18.36,7.59-28.62,7.87-10.26.28-14.77-.61-28.2-1.19-13.43-.59-24.38-1.52-27.18-5-2.79-3.47-5.37-12.22-5.37-12.22Z"/>
        <path class="cls-29" d="m688.61,1839.96s11.43-22.01,23.33-27.79c11.89-5.77,22.35-15.5,34.61-14.06,12.26,1.44,31,5.05,34.61,12.62,3.6,7.58,6.12,18.75,6.12,18.75,0,0,.99,11.14-8.74,15.11-9.74,3.97-7.84,2.56-25.15,5.09-17.3,2.52-32.45,4.33-36.77,2.89-4.33-1.44-28.01-12.61-28.01-12.61Z"/>
        <path class="cls-29" d="m1820.73,1397.16c-.5-2.76,2.97-14.96,23.28-10.31,20.31,4.64,27.95,8.59,26.25,13.97-.83,2.63-20.81,11.44-21.97,11.44s-24.95-.86-24.95-.86c0,0-11.02-6.97-2.61-14.23Z"/>
        <path class="cls-29" d="m1161.32,1717.51c2.54.24,18.92-10.31,26.95-9.86,8.03.45,10.32-3.59,26.37,6.72,16.06,10.32,27.08,23.02,23.65,26.16-3.44,3.13-31.67,8.36-41.42,9.27-9.75.89-33.26.89-43.58-.9-10.32-1.78-21.58,2.62-22.16-1.86-.57-4.48,10.12-31.32,30.18-29.52Z"/>
        <path class="cls-29" d="m994.96,1583.26s4.79-8.45,10.82-11.92c6.32-3.64,11.86-5.11,17-5.49,5.72-.41,21.56,3.22,24.35,4.75,2.79,1.53,4.8,6.52,6.47,9.19,1.68,2.68-10.09,1.76-13.99,1.76s-31.72-2.52-31.72-2.52c0,0-14.5,8.45-12.92,4.23Z"/>
        <path class="cls-29" d="m1506.11,1550.78c12.07-3.33,25.67-1.21,34.87,1.86,9.2,3.05,15.9,2.61,16.73,7.19.84,4.58-11.99,5.67-16.18,6.11-4.18.43-14.32-.73-19.62-.29-5.29.43-13.85,2.25-20.82.29-6.98-1.97-4.48-12.55,5.01-15.16Z"/>
        <path class="cls-29" d="m2512.46,1471.33s4.47-20.13,24.55-25.14c20.08-5.02,32.2-6.55,43.98-.96,20.57,9.75,19.17,18.69,14.14,19.34-5.02.66-30.51-.93-38.03.16-7.53,1.09-26.22,1.96-29.57,1.96s-15.06,4.64-15.06,4.64Z"/>
        <path class="cls-29" d="m2938.55,1444.83s2.6-11.26,7.35-12.78c4.74-1.53,12.66-8.62,18.81-8.62s20.7,3.51,21.63,3.67c3.39.56,8.63,7.05,9.18,7.92.57.87.15,7.35.15,7.35,0,0-13.26.93-14.09.93s-33.47,1.53-33.47,1.53c0,0-11.5,3.05-9.54,0Z"/>
        <path class="cls-29" d="m3604.4,1490.66c4.79-5.01,9.11-16.11,16.67-16.29,7.58-.18,17.03-2.02,27.59,1.46,10.53,3.48,16.15,12.26,16.42,14.08.27,1.84-3.44,2.22-6.68,2.59-3.25.37-19.47.73-22.18,1.1-2.69.36-28.38.91-28.38.91,0,0-6.95-.2-3.43-3.87Z"/>
        <path class="cls-29" d="m2282.34,1555.36s0-13.48,13.1-17.29c8.75-2.55,20.23-11.43,29.04-10.65,8.82.78,28.12,4.73,30.71,8.82,2.6,4.1,7.68,16.82.69,18.97-7,2.14-12.62.13-25.07,1.5-12.45,1.36-23.34,2.34-26.45,1.56-3.12-.78-22.02-2.9-22.02-2.9Z"/>
        <path class="cls-29" d="m29.1,1463.1c3.1-4.78,7.87-10.14,12.76-10.32,4.89-.18,11.01-1.93,17.83,1.4,6.81,3.32,11.01,8.22,11.18,9.97.18,1.74-2.8,5.59-4.9,5.94-2.1.35-22.06-1.72-23.81-1.37-1.75.35-15.33-2.13-13.06-5.62Z"/>
        <path class="cls-29" d="m260.23,1506.81c1.37-3.86,4.34-21.84,34-15.06,29.66,6.78,30.56,8.69,35.03,17.16,1.87,3.55.24,13.22-4.71,14.71-1.62.49-45.82,7.75-60.5,3.97-5.11-1.32-9.23-5.48-3.82-20.78Z"/>
        <path class="cls-29" d="m84.6,1759.24c3.94.36,29.3-15.97,41.73-15.28,12.43.7,15.98-5.56,40.84,10.42,24.87,15.98,41.95,35.66,36.63,40.52-5.32,4.85-49.05,12.96-64.14,14.35-15.1,1.39-51.51,1.37-67.49-1.4-15.97-2.77-33.42,4.06-34.31-2.88-.89-6.94,15.68-48.53,46.74-45.73Z"/>
        <path class="cls-29" d="m482.31,1440.92c12.07-3.33,23.69-4.97,32.89-1.91,9.2,3.06,15.9,2.61,16.73,7.19.84,4.58-11.99,5.67-16.18,6.11-4.19.44-14.32-.72-19.62-.29-5.3.44-13.85,2.25-20.82.29-6.97-1.96-2.5-8.77,6.99-11.39Z"/>
        <path class="cls-29" d="m466.02,1774.22c-3.62-4.04,0-13.47,13.1-17.29,8.75-2.55,20.23-11.43,29.04-10.65,8.81.78,28.12,4.73,30.71,8.82,2.59,4.09,7.69,16.82.69,18.97-7,2.15-12.62.13-25.07,1.49-12.44,1.37-23.34,2.34-26.45,1.56-3.12-.78-18.32,1.23-22.02-2.9Z"/>
      </g>
      <g>
        <path class="cls-14" d="m2032.69,1785.94c16.28.25,20.44-.06,26.58-3.3,4.41-2.33-12.89-8.35-17.3-10.8-7.23-4-18.45-13.25-26.83-15.11-9.34-2.06-34.17-2.53-42.67-.95-10.56,1.97-27.71,9.55-35.22,14.89-1.5,1.08-4.45,4.25-3.73,5.82,5.05,11.13,74.69,9.06,99.17,9.44Z"/>
        <path class="cls-14" d="m3022.36,1629.15c4.78-5.75,19.89-15,27.38-12.07,7.49,2.93,14.35,5.54,16.3,8.15,1.95,2.61,1.64,8.48-1.63,9.13-3.25.65-8.8.65-14.67.65s-32.51.29-27.38-5.87Z"/>
        <path class="cls-14" d="m2896.36,1760.14c4.52-3.5,7.12-7.6,17.05-14.83,2.73-1.99,14.55.64,17.61-1.12,3.47-1.99-1.78-8.31,1.88-9.56,18.66-6.37,39.42-14.13,53.44-14.03,14.31.1,46.08,10.84,53.85,15.95,7.77,5.1,17.88,4.46,22.54,13.39,4.66,8.93-3.88,20.41-14.77,20.41s-85.72.54-114.29.63c-9.9.03-54.4,2.4-37.31-10.84Z"/>
        <path class="cls-14" d="m826.59,1548.08c-4.27-8.58,5.21-17.94,28.68-25.44,23.47-7.5,37.73-5.53,52.4-.31,14.67,5.22,26.75,6.6,29.18,15.29.54,1.94-.79,4.96-5.03,6.27-4.24,1.3-18.19,3.21-24.06,4.19-5.87.98-20.21.64-29.02,2.28-8.8,1.63-30.64,2.94-34.55,2.94s-15.55-1.11-17.6-5.21Z"/>
        <path class="cls-14" d="m2484.36,1702.61c3.32-3.89,8.41-8.26,13.63-8.4,5.22-.14,11.76-1.57,19.04,1.14,7.27,2.7,11.76,6.69,11.94,8.12.18,1.42-2.99,4.56-5.23,4.84-2.24.28-13.44.57-15.3.85-1.86.29-14.96,1.94-19.59.72-2.48-.66-6.91-4.42-4.48-7.27Z"/>
        <path class="cls-14" d="m25.54,1464.03c3.1-4.78,7.87-10.14,12.76-10.31,4.89-.18,11.01-1.92,17.82,1.4,6.81,3.32,11.01,8.21,11.19,9.96.17,1.75-2.8,5.59-4.9,5.94-2.1.35-28.36-1.26-30.1-.91-1.75.35-9.04-2.59-6.77-6.08Z"/>
        <path class="cls-14" d="m1196.48,1453.88c.17-7.32,4.73-9.53,21.69-10.71,16.96-1.18,52.14-.59,53.85.36,8.15,4.55,15.16,9.51,15.64,10.97.75,2.24.71,9.6-1.19,11.91-4.72,5.73-18.36,7.59-28.62,7.87-10.26.27-14.77-.61-28.2-1.2-13.42-.59-24.38-1.51-27.17-4.99-2.8-3.48-6.09-10.35-6-14.2Z"/>
        <path class="cls-14" d="m685.3,1844.8c-3.19-9.19,16.31-22.23,29.45-27.96,13.13-5.73,24.67-15.41,38.2-13.98,13.53,1.43,34.22,5.02,38.2,12.54,1.22,2.3,1.29,6.64.89,9.31-1.36,9.03,3.19,8.17,5.87,9.34,3.18,1.38,8.35,8.6-2.38,12.54-10.75,3.95-15.92,5.02-35.02,7.53-19.1,2.51-35.82,4.3-40.59,2.87-4.77-1.43-31.84-4.2-34.62-12.19Z"/>
        <path class="cls-14" d="m1817.9,1399.76c.98-.84,2.61-12.18,22.92-7.54,20.31,4.64,28.43,4.35,29.3,6.96.87,2.61,0,10.96-2.57,13.07-4.29,3.54-20.93,2.6-22.09,2.6s-18.99.97-24.95-.87c-3.45-1.07-11.02-6.97-2.61-14.22Z"/>
        <path class="cls-14" d="m252.28,1506.81c1.44-1.24,3.82-17.79,33.47-11.01,29.66,6.78,34.61,9.93,35.88,13.74,1.27,3.81,5.54,12.35,3.16,15.52-4.87,6.49-30.56,3.8-32.26,3.8s-27.73,1.41-36.43-1.28c-5.04-1.56-16.1-10.17-3.82-20.77Z"/>
        <path class="cls-14" d="m1161.32,1725.64c2.54.23,18.92-10.32,26.95-9.87,8.03.45,10.32-3.59,26.37,6.73,16.05,10.32,28.09,16.6,24.66,19.73-3.44,3.14-32.69,14.79-42.43,15.69-9.75.9-33.26.89-43.58-.9-10.32-1.79-22.93-3.14-23.5-7.62-.57-4.49,11.47-25.57,31.53-23.76Z"/>
        <path class="cls-14" d="m84.6,1771.84c3.94.35,29.3-15.97,41.73-15.28,12.43.7,15.98-5.56,40.84,10.41,24.87,15.98,43.51,25.7,38.19,30.56-5.32,4.86-50.62,22.91-65.71,24.3-15.1,1.39-51.51,1.38-67.49-1.39-15.97-2.77-35.51-4.86-36.4-11.8-.89-6.95,17.77-39.6,48.83-36.81Z"/>
        <path class="cls-14" d="m994.5,1582.84c3.15-2.35,6.42-6.55,13.11-8.73,6.7-2.18,12.18-4.65,16.46-4.8,5.67-.2,19.24,3.72,22.03,5.46,2.79,1.75,6.42,1.52,8.09,4.58,1.67,3.06-1.4,6.98-5.3,6.98s-30.75.19-41,.22c-3.47,0-19.71,1.02-13.39-3.71Z"/>
        <path class="cls-14" d="m1504.73,1558.75c12.07-3.33,52.99-1.09,53.83,3.49.84,4.58-11.99,5.66-16.18,6.11-4.18.44-14.32-.72-19.62-.29-5.3.43-13.85,2.25-20.82.29-6.97-1.97-6.69-6.98,2.79-9.59Z"/>
        <path class="cls-14" d="m478.95,1445.12c12.07-3.33,27.9-6.77,37.09-3.71,9.21,3.06,15.9,2.62,16.74,7.2.84,4.58-11.99,5.67-16.18,6.11-4.18.44-14.32-.72-19.62-.29-5.3.43-13.85,2.25-20.82.29-6.98-1.97-6.69-6.98,2.78-9.59Z"/>
        <path class="cls-14" d="m3796.03,1714.5c-.73-2.88,2.24-6.27,4.47-8.65,5.77-6.16,11.92-11.61,17.56-12.29,3.33-.41,11.17-.66,17.3,1.96,6.14,2.62,15.07,13.96,14.51,16.14-.56,2.18,1.39,3.49-5.3,5.02-6.69,1.53-10.6,1.53-13.4,1.53s-14.77-.45-18.95-.22c-4.18.22-14.39,3.59-16.18-3.49Z"/>
        <path class="cls-14" d="m2505.67,1470.06c-3.33-6.68,4.47-12,24.55-17.02,20.09-5.01,32.64-8.06,45.19-4.58,12.55,3.49,19.92,8.02,22.31,14.19.53,1.36,0,3.7-3.62,4.58-3.63.87-13.95,2.18-18.97,2.84-5.01.65-17.3.44-24.82,1.53-7.53,1.09-26.22,1.96-29.57,1.96s-13.34-.03-15.07-3.49Z"/>
        <path class="cls-14" d="m2935.54,1448.6c1.86-3.25,5.01-9.82,9.76-11.35,4.74-1.53,13.38-8.29,19.51-8.29s18.97,1.53,19.8,1.97c.84.44,11.17,7.41,11.73,8.28.56.88,1.86,5.71.84,7.21-2.31,3.39-14.79,5.02-15.62,5.02s-25.1,1.7-33.47,1.52c-3.32-.07-14.35-1.21-12.55-4.36Z"/>
        <path class="cls-14" d="m3604.64,1492.2c5.08-4.71,12.89-10.02,20.91-10.2,8.03-.18,18.05-1.9,29.22,1.38,11.18,3.28,18.05,8.12,18.34,9.84.29,1.73-4.58,5.53-8.03,5.88-3.42.34-20.62.69-23.48,1.04-2.87.35-23.11.69-30.51-.76-2.75-.53-10.17-3.74-6.45-7.19Z"/>
        <path class="cls-14" d="m2277.94,1557.04c-1.87-6.43,11.44-13.52,20.63-17.01,9.21-3.49,17.3-9.39,26.78-8.52,9.48.87,23.99,3.05,26.78,7.64,2.79,4.58,3.1,8.74,4.74,11.35,1.04,1.65,5.86,5.23-1.68,7.64-7.52,2.4-11.15,3.05-24.54,4.57-13.38,1.53-25.09,2.62-28.44,1.75-3.35-.87-22.49-1.32-24.26-7.42Z"/>
        <path class="cls-14" d="m455.62,1778.34c-1.87-6.42,11.44-13.52,20.63-17.02,9.2-3.49,17.29-9.38,26.77-8.51,9.48.87,23.99,3.05,26.78,7.64,2.79,4.58,3.1,8.74,4.73,11.34,1.04,1.66,5.86,5.24-1.68,7.64-7.52,2.39-11.15,3.05-24.55,4.58-13.38,1.53-25.09,2.62-28.44,1.75-3.35-.87-22.5-1.33-24.27-7.42Z"/>
        <path class="cls-14" d="m3012.04,1750.95l4.72,1.45s29.64,4.05,30.99,3.9c1.35-.15,50.39.72,53.94-4.76,1.33-2.05-5.78-7.98-5.78-7.98,0,0-9.99-8.42-16.41-9.12-10.87-1.19-21.36.14-21.36.14l-35.53,5.51-10.57,10.86Z"/>
        <path class="cls-14" d="m3905.26,1505.07c4.62-1.91,21.8-3.98,30.92,4.39,4.91,4.51,6.15,12.24,5.59,14.42-.56,2.19-14.03.43-16.83.43s-25.42-1.18-29.61-.97c-4.18.23,6.84-16.99,9.93-18.27Z"/>
      </g>
      <g>
        <g>
          <path class="cls-16" d="m713.03,1531.44c0,4.7-17.01,4.7-17.01,0s3.81-8.5,8.5-8.5,8.5,3.81,8.5,8.5Z"/>
          <path class="cls-16" d="m277.11,1680.04c0,6.37-23.08,6.37-23.08,0s5.17-11.54,11.54-11.54,11.54,5.17,11.54,11.54Z"/>
        </g>
        <g>
          <path class="cls-16" d="m3782.56,1832.35c0,6.24-22.62,6.24-22.62,0s5.06-11.31,11.31-11.31,11.31,5.06,11.31,11.31Z"/>
          <path class="cls-16" d="m3785.23,1630.06c0,6.37-23.08,6.37-23.08,0s5.17-11.54,11.54-11.54,11.54,5.17,11.54,11.54Z"/>
          <path class="cls-16" d="m3635.8,1684.12c0,2.69-9.72,2.69-9.72,0s2.17-4.85,4.86-4.85,4.86,2.17,4.86,4.85Z"/>
          <path class="cls-16" d="m3338.35,1507.27c0,2.41-8.7,2.41-8.7,0s1.95-4.35,4.35-4.35,4.35,1.94,4.35,4.35Z"/>
          <path class="cls-16" d="m2950.63,1534.4c0,6.04-21.87,6.04-21.87,0s4.9-10.94,10.93-10.94,10.94,4.9,10.94,10.94Z"/>
          <path class="cls-16" d="m2208.89,1820.89c0,10.07-36.45,10.07-36.45,0s8.16-18.22,18.23-18.22,18.22,8.16,18.22,18.22Z"/>
          <path class="cls-16" d="m2754.44,1701.74c0,5.36-19.44,5.36-19.44,0s4.35-9.72,9.72-9.72,9.72,4.35,9.72,9.72Z"/>
          <path class="cls-16" d="m1427.51,1799.72c0,5.36-19.44,5.36-19.44,0s4.35-9.72,9.72-9.72,9.72,4.35,9.72,9.72Z"/>
          <path class="cls-16" d="m1305.13,1523.16c0,5.37-19.43,5.37-19.43,0s4.35-9.72,9.71-9.72,9.72,4.35,9.72,9.72Z"/>
          <path class="cls-16" d="m1041.89,1692.94c0,8.72-31.59,8.72-31.59,0s7.07-15.79,15.79-15.79,15.8,7.07,15.8,15.79Z"/>
          <path class="cls-16" d="m1975.75,1505.67c0,6.04-21.86,6.04-21.86,0s4.89-10.94,10.93-10.94,10.93,4.9,10.93,10.94Z"/>
        </g>
      </g>
      <g>
        <path class="cls-15" d="m1637.46,1672.48c.25-4.11,9.14-8.7,13.01-10.12,4.83-1.78,15.58-2.14,20.57-.89,3.67.92,10.22,5.17,13,7.73,1.94,1.79,7.35,6.27,6.14,8.62-5.42,10.51-36.36,4.49-47.3,0-1.76-.72-5.54-3.45-5.43-5.35Z"/>
        <path class="cls-15" d="m2797.64,1554.85c.94-.65,9.01-12.93,10.62-12.93s5.39-.4,8.34,1.21c2.96,1.62,7.27,8.62,7,9.96-.27,1.35.67,2.15-2.56,3.09-3.24.95-5.11.95-6.46.95s-7.13-.27-9.15-.14c-2.02.13-10.9,0-7.79-2.15Z"/>
        <path class="cls-15" d="m2243.53,1741.92c1.12-2.49,3.12-7.83,6.08-9.05,2.96-1.22,8.35-6.61,12.18-6.61s11.82,1.22,12.34,1.57c.52.35,6.95,5.91,7.3,6.61.35.7,1.29,4.52.52,5.74-1.41,2.23-9.22,4.01-9.73,4.01s-15.64,1.36-20.87,1.21c-2.14-.06-8.94-.99-7.82-3.48Z"/>
        <path class="cls-15" d="m2154.1,1460.93c-.73-2.62.85-5.59,8.33-6.99,7.46-1.4,11.92-2.63,17.78-1.95,5.87.68,14.24,2.89,14.82,3.53.58.64,1.22,2.91.73,3.72-1.64,2.72-7.42,3.45-11.98,4.17-4.57.71-6.69.72-12.77,1.36-6.07.64-11.08,1.04-12.71.15-1.62-.89-3.81-2.58-4.2-3.98Z"/>
        <path class="cls-15" d="m3472.92,1446.71c-.48-1.99.62-4.6,5.77-5.8,5.14-1.2,8.21-2.24,12.23-1.72,4.03.52,5.52,8.75,2.37,9.37-3.15.61-4.59.63-8.77,1.2-4.19.57-7.63.92-8.74.2-1.12-.72-2.61-2.19-2.86-3.24Z"/>
        <path class="cls-15" d="m3340.98,1755.68c-32.56.12-65.12,1.82-97.53-2.12-21.55-2.62,33.69-16.15,66.24-16.27,21.99-.08,53.25,18.3,31.28,18.38Z"/>
      </g>
    </g>
  </g>
  <g id="front_rock" data-name="front rock">
    <g>
      <path class="cls-5" d="m801.75,662.04l-31.9-13.74c-7.98-3.44-14.19-12.88-14.12-21.5.03-3.6,2.55-30.11,11.88-35.07l30.58-16.27c4.89-2.6,7.39-9.18,5.46-14.37l-17.06-45.97c-1.93-5.19-8.12-8.55-13.52-7.33l-33.99,7.66c-8.48,1.91-19.02-2.03-24.01-8.96-2.1-2.92-15.69-25.8-11.04-35.34l15.26-31.32c2.43-4.98.58-11.77-4.03-14.84l-40.82-27.16c-4.61-3.07-11.59-2.15-15.24,2.01l-22.9,26.07c-5.73,6.53-16.47,9.37-24.52,6.52l-12.43-3.48c-8.36-1.74-16.06-9.74-17.57-18.3l-6.03-34.17c-.96-5.45-6.45-9.86-11.98-9.64l-48.99,2.02c-5.53.23-10.64,5.08-11.14,10.59l-3.22,34.69c-.36,3.89-1.99,7.83-4.4,11.21-2.95,4.13-7.09,7.44-11.57,8.87-3.42,1.09-29.35,6.95-36.98-.42l-25.07-24.2c-3.98-3.84-11.02-4.19-15.35-.75l-38.45,30.43c-4.34,3.44-5.62,10.36-2.79,15.12l17.68,29.79c4.44,7.47,3.96,18.69-1.07,25.61-2.13,2.92-19.73,23.05-30.22,21.58l-34.4-4.82c-5.48-.77-11.38,3.08-12.87,8.41l-13.22,47.22c-1.49,5.33,1.54,11.69,6.62,13.88l31.9,13.74c7.98,3.44,14.19,12.88,14.12,21.5-.03,3.6-2.55,30.11-11.87,35.07l-30.58,16.27c-4.89,2.6-7.39,9.18-5.46,14.37l17.06,45.97c1.93,5.19,8.12,8.55,13.52,7.33l33.99-7.66c8.48-1.91,19.02,2.03,24.01,8.96,2.1,2.92,15.69,25.8,11.04,35.34l-3.22,6.6h335.44l-11.65-19.63c-4.4-7.41-3.97-18.55.96-25.45.04-.05.07-.11.11-.15,2.13-2.91,19.73-23.05,30.22-21.58l34.4,4.82c5.48.77,11.38-3.08,12.87-8.42l13.22-47.22c1.49-5.33-1.54-11.69-6.62-13.88v-.03Zm-251.73,79.47c-62.12,0-112.48-50.36-112.48-112.48s50.36-112.48,112.48-112.48,112.48,50.36,112.48,112.48-50.36,112.48-112.48,112.48Z"/>
      <g>
        <g>
          <rect class="cls-28" x="1276.73" y="603.07" width="580.68" height="1091.41" rx="90.12" ry="90.12"/>
          <rect class="cls-5" x="1299.93" y="622.52" width="538.19" height="1048.92" rx="68.88" ry="68.88"/>
          <path class="cls-28" d="m1674.63,669.09c0,11.1-9.64,20.17-21.42,20.17h-141.5c-11.78,0-21.42-9.07-21.42-20.17s9.64-20.17,21.42-20.17h141.5c11.78,0,21.42,9.07,21.42,20.17Z"/>
        </g>
        <g>
          <g>
            <rect class="cls-28" x="371.11" y="780.1" width="486.49" height="914.38" rx="75.51" ry="75.51"/>
            <path class="cls-5" d="m448.25,796.39h335.48c31.85,0,57.71,25.86,57.71,57.71v763.37c0,31.85-25.86,57.71-57.71,57.71h-335.48c-31.85,0-57.71-25.86-57.71-57.71v-763.37c0-31.85,25.86-57.71,57.71-57.71h0Z"/>
          </g>
          <path class="cls-28" d="m704.47,835.41c0,9.29-8.08,16.9-17.94,16.9h-118.55c-9.87,0-17.94-7.6-17.94-16.9s8.08-16.9,17.94-16.9h118.55c9.87,0,17.94,7.6,17.94,16.9Z"/>
        </g>
        <g>
          <g>
            <g>
              <rect class="cls-28" x="667.3" y="434.08" width="670.8" height="1260.8" rx="104.11" ry="104.11"/>
              <rect class="cls-5" x="694.1" y="456.54" width="621.72" height="1211.72" rx="79.57" ry="79.57"/>
            </g>
            <g>
              <g>
                <rect class="cls-9" x="601.6" y="1266.05" width="617.23" height="328.03"/>
                <g>
                  <g>
                    <circle class="cls-21" cx="910.21" cy="1430.07" r="46.71"/>
                    <polygon class="cls-9" points="900.82 1449.01 900.82 1430.25 900.82 1411.49 929.47 1430.25 900.82 1449.01"/>
                  </g>
                  <g>
                    <g>
                      <rect class="cls-21" x="632.94" y="1299.9" width="58.91" height="10.15"/>
                      <rect class="cls-21" x="632.94" y="1317.66" width="58.91" height="10.15"/>
                    </g>
                    <rect class="cls-21" x="1081.02" y="1299.9" width="110.75" height="10.15"/>
                  </g>
                  <g>
                    <rect class="cls-21" x="628.26" y="1544.2" width="563.9" height="10.15"/>
                    <rect class="cls-8" x="628.26" y="1544.2" width="182.24" height="10.15"/>
                  </g>
                </g>
              </g>
              <g>
                <rect class="cls-9" x="957.95" y="999.93" width="532.14" height="220.07"/>
                <g>
                  <g>
                    <circle class="cls-13" cx="1060.92" cy="1109.96" r="65.76" transform="translate(-204.65 1979.39) rotate(-80.78)"/>
                    <g>
                      <circle class="cls-10" cx="1060.92" cy="1089.2" r="20.45"/>
                      <path class="cls-10" d="m1090.86,1115.55c-.66-3.99-4.51-7.26-8.55-7.26h-5.77c-3.75,4.59-9.22,7.7-15.61,7.7s-11.86-3.11-15.61-7.7h-5.77c-4.05,0-7.9,3.27-8.55,7.26l-3.74,22.66c-.66,3.99,2.11,7.26,6.16,7.26h55.03c4.05,0,6.82-3.27,6.16-7.26l-3.74-22.66h0Z"/>
                    </g>
                  </g>
                  <g>
                    <path class="cls-13" d="m1452.88,1116.35c0,16.08-13.62,29.24-30.27,29.24h-232.35c-16.65,0-30.27-13.16-30.27-29.24v-8.5c0-16.08,13.62-29.24,30.27-29.24h232.35c16.65,0,30.27,13.16,30.27,29.24v8.5Z"/>
                    <g>
                      <circle class="cls-9" cx="1239.16" cy="1112.04" r="11.81"/>
                      <circle class="cls-9" cx="1284.03" cy="1112.09" r="11.81"/>
                      <circle class="cls-9" cx="1328.91" cy="1112.15" r="11.81"/>
                      <circle class="cls-9" cx="1373.58" cy="1112.03" r="11.81"/>
                    </g>
                  </g>
                </g>
              </g>
              <g>
                <rect class="cls-9" x="728.19" y="823.64" width="257.01" height="99.37"/>
                <g>
                  <path class="cls-21" d="m791.99,907.26c-2.75,0-6.77-.3-9.94-2.95-3.76-3.13-5.67-8.95-5.67-17.28v-46.04h8.1v48.81c0,7.52,1.27,12.52,7.51,12.52,6.88,0,7.81-6.33,7.81-12.52v-48.81h7.98v46.04c0,18.14-9,20.23-15.78,20.23h0Z"/>
                  <rect class="cls-21" x="818.76" y="840.99" width="8.02" height="65.67"/>
                  <polygon class="cls-21" points="837.66 907.26 848.95 839.39 854.56 839.39 843.28 907.26 837.66 907.26"/>
                  <path class="cls-21" d="m881.5,907.26c-2.75,0-6.77-.3-9.94-2.95-3.76-3.13-5.67-8.95-5.67-17.28v-46.04h8.1v48.81c0,7.52,1.27,12.52,7.51,12.52,6.88,0,7.81-6.33,7.81-12.52v-48.81h7.98v46.04c0,18.14-9,20.23-15.78,20.23h0Z"/>
                  <polygon class="cls-21" points="928.95 906.65 920.92 881.32 920.92 881.32 912.17 906.65 904.46 906.65 917.05 873.58 904.47 840.99 912.96 840.99 920.75 865.75 920.75 865.75 928.91 840.99 937.02 840.99 924.4 873.61 937.03 906.65 928.95 906.65"/>
                </g>
              </g>
              <g>
                <rect class="cls-9" x="505.5" y="551.94" width="516.77" height="154.73"/>
                <g>
                  <rect class="cls-41" x="550.97" y="589.66" width="425.83" height="79.28"/>
                  <rect class="cls-13" x="866.76" y="589.66" width="110.04" height="79.28"/>
                  <path class="cls-9" d="m938.36,650.95l-10.14-16.97c4.17-3.1,6.89-8.05,6.89-13.63,0-9.36-7.62-16.99-16.99-16.99s-16.98,7.62-16.98,16.99,7.62,16.98,16.98,16.98c1.75,0,3.44-.27,5.03-.76l10.34,17.31c.54.88,1.47,1.37,2.43,1.37.5,0,1.01-.13,1.46-.41,1.34-.81,1.77-2.55.96-3.89h0Zm-32.67-30.6c0-6.86,5.58-12.45,12.45-12.45s12.45,5.58,12.45,12.45-5.58,12.45-12.45,12.45-12.45-5.58-12.45-12.45Z"/>
                </g>
              </g>
              <g>
                <path class="cls-9" d="m1258.18,876.69c0,19.09-15.4,34.72-34.21,34.72h-129.82c-18.82,0-34.21-15.62-34.21-34.72s15.4-34.72,34.21-34.72h129.82c18.82,0,34.21,15.62,34.21,34.72Z"/>
                <circle class="cls-13" cx="1097.76" cy="876.69" r="27.58"/>
              </g>
              <g>
                <g>
                  <g>
                    <g>
                      <rect class="cls-10" x="1063.21" y="480.56" width="321.62" height="279.73"/>
                      <g>
                        <rect class="cls-9" x="1085.37" y="563.47" width="277.3" height="173.09"/>
                        <g>
                          <path class="cls-21" d="m1362.67,638.47v98.1h-277.3v-2.04c48.19-55.57,53.87-136.61,103.4-87.08,52.34,52.34,91.82-81.46,135.62-51.77,15.95,10.81,31.33,29.26,38.27,42.79h0Z"/>
                          <circle class="cls-21" cx="1124.61" cy="597.66" r="13.32" transform="translate(284.59 1554.91) rotate(-76.72)"/>
                        </g>
                      </g>
                      <g>
                        <rect class="cls-17" x="1085.37" y="530.57" width="104.69" height="6.01"/>
                        <rect class="cls-17" x="1085.37" y="515.16" width="64.3" height="6.01"/>
                      </g>
                    </g>
                    <path class="cls-18" d="m1376.28,775.48c-1.4-5.74-.92-11.19-.09-15.18h-16.97c-.65,7.02,3.08,10.28,9.63,19.61,2.75,3.91,4.22,7.63,5,10.21,1.72-.06,4.46-.27,7.6-.88-1.51-2.81-3.69-7.68-5.17-13.76h0Z"/>
                  </g>
                  <g>
                    <path class="cls-12" d="m1376.06,775.53c1.52,6.24,3.6,10.82,5.2,13.74,5.53-1.04,12.38-3.34,17.25-8.34-1.21-4.37-2.59-11.12-1.39-16.27,1.92-8.29,4.14-12.72,2.96-18.35s-9.17-44.24-15.24-42.62v38.9s-1.63-1.15-6.91-4.2c-5.08-2.93-8.67-8.24-12.65-5.41-2.69,1.91-2.83,6.88.99,10.93s11.69,9.81,11.69,9.81c0,0-4.7,10.24-1.89,21.8h0Z"/>
                    <path class="cls-18" d="m1384.83,742.6s2.36,1.25,2.77,1.11c.41-.14-2.77-24.16-2.77-24.16v23.06h0Z"/>
                  </g>
                </g>
                <g>
                  <g>
                    <g>
                      <g>
                        <path class="cls-23" d="m1482.59,1673.03c6.83-5.94,51.99-15.01,58.5-16.98,8.36,8.12,33.34,10.54,44.73,4.2,5.93,13.36,2.86,34.64,2.86,34.64h-108.41s-5.05-15.43,2.33-21.85h0Z"/>
                        <path class="cls-23" d="m1832.83,1656.21c7.7,2.44,57.58,13.39,63.97,19.19,7.08,6.43,4.03,19.48,4.03,19.48h-112.14s-6.11-25.31,3.09-38.96c9.85,5.57,35.6,6.94,41.05.29h0Z"/>
                      </g>
                      <path class="cls-24" d="m1758.52,1189.44c22.71,80.03,79.74,451.97,75.15,466.79-2.82,9.12-36.93,6.91-44.33-.55-7.77-7.82-107.78-313.32-125.9-377.1-25.87,146.47-67.12,375.9-75.7,382.51-11.17,8.61-47.89,6.46-48.63-5.54-4.98-79.91,13.61-374.47,16.92-476.39,93.69,35.46,174.97,14,202.49,10.27h0Z"/>
                    </g>
                    <path class="cls-25" d="m1760.24,1195.8c-1.01-4.1-.81-3.15-1.72-6.35-27.53,3.74-108.81,25.18-202.49-10.27-.27,8.31-.25,8.48-.7,19.13,24.71,8.43,105.59,33.77,204.92-2.51h0Z"/>
                  </g>
                  <g>
                    <g>
                      <g>
                        <path class="cls-3" d="m1788.57,967.97c-17.47-53.65-84.04-69-102.92-73.03-.25-.06-.49-.11-.73-.15-.75-.15-1.43-.29-2.03-.4-.17-.03-.33-.06-.5-.09-1.7-.32-2.65-.45-2.65-.45-.27-.04-.56-.08-.85-.11h0c-.29-.03-.58-.05-.86-.08-1.82,2.44-25.4,33.67-37.55,33.67h-.02c-10.61-.04-18.92-29.19-19.34-30.68,0,0,0-.02,0-.03-.51.08-1.02.15-1.52.23-9.55,1.46-45.08-3.64-85.32-9.31h0c-17.76-2.5-31.93-2.99-49.69-5.21,0,0-.59-.78-1.7-2.2-11.38-14.84-75.25-90.94-84.6-100.02-8.88,10.39-24.66,9.27-24.66,9.27,3.18,13.93,36.01,110.8,54.69,140.3,9.45,14.93,112.63,38.26,129.16,41.59,1.35.27,2.1.42,2.15.42,0,0,1.01,10.49-.56,25.14-1.49,13.79-2.3,32.72-2.72,53.58-1.03,50.41.32,100.88-.3,128.76h0c90.77,40.21,202.49,10.26,202.49,10.26l-8.49-57.77-.58-3.94s.07,0,.11,0c.58-.06,1.61-.19,3.38-.44,21-2.98,40.28-3.51,57.73-18.88,14.48-12.76-.18-92.37-22.12-140.43h0Z"/>
                        <g>
                          <path class="cls-32" d="m1748.03,1065.04s-14.07-77.99-18.18-77.84,3.75,83.3,5.77,84.86c2.03,1.56,12.41-7.02,12.41-7.02h0Z"/>
                          <path class="cls-32" d="m1534.26,887.54c-6.23.25-77.06-6.01-72.19-7.89,2.84-1.08,12.88-.34,20.8.48,1.1,1.42,1.69,2.2,1.69,2.2,17.76,2.22,31.93,2.71,49.69,5.21h0Z"/>
                        </g>
                      </g>
                      <g>
                        <g>
                          <path class="cls-20" d="m1614.82,1123.32c-1.82,1.39-3.82,2.53-5.85,3.06-1.05.27-2.43.56-4.02.85l-6.32-.57s-6.39-4.3-6.99-6.5c-.6-2.2.9-4.45,10.07.17,5.89,2.96,10.53,3.2,13.1,2.99h0Z"/>
                          <g>
                            <path class="cls-6" d="m1608.97,1126.37c-5.42,1.42-19.52,3.25-26.25,2.7-1.49-1.03-3.44-1.14-5.16-4.04-1.89-3.18,1.65-4.03,3.46-4.26.57-.07.97-.08.97-.08l.06-.04c4.74-3.44,8.75,2.16,15.24,3.65,4.15.95,9.22,1.56,12.36,1.87-.23.07-.45.15-.68.21h0Z"/>
                            <path class="cls-20" d="m1597.1,1126.36c-.06.14-.13.13-.26.14-.04,0-.08-.01-.13-.02-6.37-1.06-11.95-2.31-15.69-5.71.57-.07.97-.08.97-.08l.06-.04c3.16,2.54,8.76,4.04,14.86,5.33.18.04.23.3.19.39h0Z"/>
                          </g>
                        </g>
                        <path class="cls-12" d="m1649.74,1104.37s-3.58.71-11.29-1.16-10.48-.68-26.3,1.66c-13.56,2.01-14.05,10.6-2.97,9.93,11.08-.67,12.31.09,12.31.09-1.65,3.37-7.15,9.6-12.86,11.08-5.7,1.49-21.01,3.44-27.23,2.59-6.22-.85-5.54,2.52-2.27,4.94,3.03,2.24,20.75,5.05,24.56,4.75s7.46.84,11.95,1.83c4.48.99,8.23.03,20.23-4.9,12-4.93,16.85-5.7,16.85-5.7,0,0,6.39-11-2.99-25.12h0Z"/>
                      </g>
                    </g>
                    <g>
                      <path class="cls-31" d="m1699.75,785.23s7.41-14.5-13.5-17.86c-7.93-1.27-12.61-9.72-27.61-16.54-18.99-8.65-32.99-3.31-32.99-3.31,0,0-20.59-8.37-32.51,7.75-9.88,13.36,2.88,32.68,2.88,32.68,0,0-1.77,15.14,2.55,21.33,1.92,2.76,5.13,6.48,8.08,9.76-.1-4.52-.32-7.96-.32-8l-1.35-8.72c2.98-.17,6.13-2.32,7.21-3.13,14.39,6.96,30.21,8.42,41,8.42,4.63,0,8.03-.27,9.59-.43-.75,7.51,2.37,21.98,4.44,24.4.3.34.63.52.98.52h.1l.13-.03c.81-.11,3.79-.85,4.39-6.15.24-2.08,2.91-3.77,5.96-3.77,1.52,0,6.34.54,7.69,7.02,2.04-5.26,3.29-10.91,7.22-16.59,15.84-22.85,6.05-27.34,6.05-27.34h0Z"/>
                      <g>
                        <g>
                          <path class="cls-12" d="m1674.39,849.77h0c.16.01.32.02.49.02h.11c5.79-.03,13.92-7.54,12.43-19.47-1.54-12.35-14.72-9.88-15.33-4.48-.62,5.39-3.82,5.51-3.82,5.51h0c-1.7.46-5.86-17.29-4.63-25.01,0,0-27.89,3.6-51.54-8.02,0,0-4.43,3.59-7.99,3.24v.05s.02.08.04.15l.19,1.23v.05l1.26,8.05s.82,12.65,0,21.61c0,.04.31-5.35.3-5.31-.3,1.77-2.75,20.93,1.96,31.76,5.82,13.39,5.67,17.67,14.57,19.87.12.03.25.06.37.08-.05,1.47-.15,3.77-.34,6.36-.11,1.57-.27,3.25-.47,4.9-.03.2-.05.39-.08.59-.27,2.05-.6,4.04-1.03,5.71,0,0,8.43,30.86,19.57,30.9,12.83.04,37.88-33.92,37.88-33.92-4.65-12.53-4.47-33.03-3.99-43.66.02-.06.05-.13.07-.19h0Z"/>
                          <g>
                            <path class="cls-11" d="m1633.62,860.21s-4.96,1.31-8.61,1.27-7.56-1.46-9.02-1.47,3.99,4.48,8.98,4.53c4.58.06,11.57-4.74,8.65-4.32h0Z"/>
                            <path class="cls-11" d="m1628.62,853.36c.43,0,.77-.34.78-.77,0-.43-.34-.78-.77-.79-6.1-.07-9.63-.96-10.48-2.65-1-1.99,1.54-5.5,4.24-9.22l.37-.51c5.25-7.25,4.94-9.65,4.82-10.06-.12-.42-.55-.65-.96-.54-.39.11-.63.51-.55.92.01.13.1,2.32-4.57,8.77l-.37.51c-3.11,4.29-5.79,7.99-4.37,10.83,1.16,2.32,4.93,3.43,11.86,3.51h.01Z"/>
                            <g>
                              <g>
                                <path class="cls-31" d="m1637.96,828.95c.14,1.72,1.37,3.05,2.74,2.97,1.37-.08,2.37-1.53,2.23-3.24-.14-1.72-1.37-3.05-2.74-2.97-1.37.08-2.37,1.53-2.23,3.25h0Z"/>
                                <path class="cls-31" d="m1614.59,828.9c-.12,1.72-1.33,3.07-2.71,3.01-1.38-.06-2.4-1.5-2.28-3.22.12-1.72,1.33-3.07,2.71-3.01,1.38.06,2.4,1.5,2.28,3.22h0Z"/>
                              </g>
                              <g>
                                <path class="cls-31" d="m1649.62,821.27c.45-.02.75-.14.93-.37.13-.17.17-.39.11-.6-.26-1.04-3.06-3.96-8.1-4.64-1.3-.18-2.45-.25-3.44-.2-3.74.15-4.22,1.8-4.19,2.75.06,1.42,1.82,1.39,4.04,1.37,1.89-.02,4.25-.04,6.39.7,1.99.7,3.42,1.03,4.26.99h0Z"/>
                                <path class="cls-31" d="m1613.59,815.39c-.99-.02-2.15.06-3.44.26-1.53.23-3.2.87-4.3,1.39-.06.05-2.48,2.21.08,3.7.39-.13,1.06-.27,1.5-.43,2.13-.78,4.48-.8,6.37-.81,2.22-.01,3.98-.03,4.02-1.44.02-.96-.49-2.59-4.24-2.68h0Z"/>
                              </g>
                            </g>
                          </g>
                        </g>
                        <path class="cls-11" d="m1622.79,879.1c.15.03.29.06.44.08,3.88.68,9.72.62,16.26-1.08,10.16-2.63,22.04-9.19,31.02-22.95-9.2,16.97-22.54,24.67-33.78,27.58-5.51,1.42-10.48,1.69-14.24,1.34,0-.05,0-.1.01-.14.13-1.82.23-3.48.28-4.83h0Z"/>
                      </g>
                    </g>
                  </g>
                </g>
              </g>
              <g>
                <rect class="cls-9" x="605.58" y="974.87" width="302.66" height="236.16"/>
                <g>
                  <path class="cls-21" d="m725.17,1125.66l-57.7-25.08v-13.89l57.7-24.97v16.36l-40.24,15.38,40.24,15.96v16.25h0Z"/>
                  <path class="cls-21" d="m733.78,1153.96l29.22-122.04h16.99l-29.54,122.04h-16.66Z"/>
                  <path class="cls-21" d="m788.58,1125.72v-16.25l40.3-15.85-40.3-15.67v-16.13l57.75,24.97v13.78l-57.75,25.15h0Z"/>
                </g>
              </g>
            </g>
          </g>
          <g>
            <g>
              <g>
                <g>
                  <g>
                    <path class="cls-27" d="m410.19,1630.93s-12.8,12.65-14.29,20.71c-1.49,8.05,2.98,42.85,2.98,42.85h12.81l4.76-31.78,29.48,31.77h47.64s-4.53-18.96-35.43-19.56c-30.9-.6-38.41-46.3-47.94-43.99h0Z"/>
                    <path class="cls-12" d="m458.13,1674.93c-30.9-.6-38.41-46.3-47.94-43.99l-1.78-7.1h40.58l14.06,51.37c-1.56-.14-3.2-.24-4.92-.27Z"/>
                  </g>
                  <g>
                    <path class="cls-27" d="m195.88,1641.56c4.13-13.98,3.72-17.71,3.72-17.71h35.1s2.87,3.18,4.19,17.71,2.2,39,2.2,39c0,0-3.29,15.68-13.8,15.68h-26.53c-9.32,0-12.24-15.67-12.24-15.67,0,0,2.62-22.92,7.37-39Z"/>
                    <path class="cls-12" d="m231.66,1623.85l3.18,41.85s-16.87,21.2-37.35.44l5.47-42.29h28.7,0Z"/>
                  </g>
                </g>
                <path class="cls-24" d="m388.65,1243.31l-1.89-11.93-.44-2.81-207.44,20.99c0,1.06.01,2.11.03,3.17.02,1.67.04,3.34.07,5.01,0,.3.01.59.02.88.01.63.03,1.3.04,1.98.07,2.54.15,5.41.25,8.55.01.37.03.77.04,1.17.04.91.07,1.83.11,2.77,3.2,85.98,20.16,350.76,20.16,350.76h35.11l49.25-366.19.61-4.49c.44,1.42.88,2.83,1.32,4.26,47.62,153.09,122.52,366.41,122.52,366.41h40.58l-60.08-378.87-.26-1.65h0Z"/>
              </g>
              <path class="cls-4" d="m388.91,1244.96l-103.03,12.46c-.44-1.42-.88-2.84-1.32-4.26l-.61,4.49-104.63,12.66c-.01-.4-.03-.8-.04-1.17-.14-3.82-.21-6.1-.25-8.55-.02-.63-.03-1.28-.04-1.98,0-.29-.01-.58-.02-.88-.03-1.67-.06-3.34-.07-5.01l207.86-21.35h0l1.89,11.93.26,1.65h0Z"/>
            </g>
            <g>
              <g>
                <g>
                  <polygon class="cls-9" points="23.97 1266.05 -5.4 974.87 528.85 921.03 560.43 1209.16 23.97 1266.05"/>
                  <g>
                    <g>
                      <path class="cls-17" d="m413.65,1158.53c.42,3.44-2.07,6.6-5.51,7.01l-1.71.2c-3.44.42-6.6-2.07-7.01-5.51l-17.09-142.8c-.42-3.44,2.07-6.6,5.51-7.01l1.71-.2c3.44-.42,6.6,2.07,7.01,5.51l17.09,142.8Z"/>
                      <path class="cls-17" d="m463.27,1152.59c.42,3.44-2.07,6.6-5.51,7.01l-1.71.2c-3.44.42-6.6-2.07-7.01-5.51l-17.09-142.8c-.42-3.44,2.07-6.6,5.51-7.01l1.71-.2c3.44-.42,6.6,2.07,7.01,5.51l17.09,142.8Z"/>
                      <path class="cls-17" d="m512.89,1146.65c.42,3.44-2.07,6.6-5.51,7.01l-1.71.2c-3.44.42-6.6-2.07-7.01-5.51l-17.09-142.8c-.42-3.44,2.07-6.6,5.51-7.01l1.71-.2c3.44-.42,6.6,2.07,7.01,5.51l17.09,142.8Z"/>
                      <circle class="cls-13" cx="400.3" cy="1120.09" r="18.58"/>
                      <circle class="cls-13" cx="442.82" cy="1041.98" r="18.58"/>
                      <circle class="cls-13" cx="498.06" cy="1082.96" r="18.58"/>
                    </g>
                    <g>
                      <polygon class="cls-17" points="59.48 1148.46 58.77 1141.9 332.63 1111.24 333.33 1117.8 59.48 1148.46"/>
                      <polygon class="cls-17" points="61.98 1172.35 61.27 1165.79 336.24 1135.39 336.94 1141.95 61.98 1172.35"/>
                      <polygon class="cls-17" points="65.44 1196.99 64.73 1190.43 338.34 1158.82 339.05 1165.38 65.44 1196.99"/>
                      <rect class="cls-17" x="50.66" y="1026.05" width="274.13" height="73.4" transform="translate(-113.14 26.33) rotate(-6.17)"/>
                    </g>
                  </g>
                </g>
                <path class="cls-12" d="m425.52,944.9c-3.56,1.39-4.69.38-5.55.59s-2.56,1.6-5.82,1.42c-3.27-.18-2.92-.94-4.44-1.4,0,0-1.51.86-3.91.94-2.4.08-4.86-1.58-5.55-2.11,0,0-3.22,1.61-5.89,1.05-5.3-1.11-10.41-15.36-.13-19.38,14.4-5.64,34.34,4.84,35.57,6.45,1.24,1.6,4.17,9.12-4.28,12.43h0Z"/>
              </g>
              <g>
                <g>
                  <g>
                    <path class="cls-12" d="m319.41,1140.19s.07-.06.18-.15c.58-.54,2.31-2.41.13-4.14-2.66-2.11-6.59-1.89-19.54-8.3-2.34-1.2-3.26-2.02-3.27-2.03-1.18-2.77,1.23-3.25,7.59-3.05,5.19.17,10.61-.94,8.84-4.17-1.58-2.87-8.68-2.61-13.48-3.56-4.81-.95-13.32-1.58-16.1-2.03-6.25-1-12.32-2.14-13.93-2.46-.01,0-.03,0-.03,0l-9,19.03c20.3,12.04,14.44,13.53,34.43,20.78,13.68,4.96,15.33.46,15.54-.64.03-.15.03-.23.03-.23.08.01.15.02.23.03h0c5.15.7,5.92-2.53,6.03-3.43.02-.15.02-.23.02-.23.08-.02.15-.04.23-.06,3.5-1.07,2.53-4.29,2.22-5.13-.06-.13-.09-.21-.09-.21h0Z"/>
                    <g>
                      <path class="cls-22" d="m293.99,1131.47c-.1-.07-.13-.2-.07-.31.06-.11.2-.15.32-.09,12.64,7.1,25.08,8.86,25.2,8.88.13.01.22.13.2.27-.01.13-.13.22-.27.2-.13-.01-12.65-1.79-25.37-8.94,0,0-.01,0-.01,0h0Z"/>
                      <path class="cls-22" d="m291.04,1137.2c-.1-.07-.13-.2-.07-.31.06-.11.21-.15.32-.08,13.96,7.98,25.66,8.55,25.78,8.56.13,0,.23.11.23.25,0,.13-.11.23-.25.23-.12,0-11.93-.58-25.99-8.62,0,0,0,0-.01,0h0Z"/>
                      <path class="cls-22" d="m288.73,1142.24c-.1-.07-.13-.2-.07-.31.06-.11.21-.15.32-.08,9.86,5.63,21.7,7.15,21.82,7.16.13.01.22.13.2.26s-.13.22-.26.2c-.12-.01-12.05-1.55-21.99-7.22,0,0,0,0-.01,0h0Z"/>
                    </g>
                  </g>
                  <path class="cls-7" d="m182.45,1044.58c-6.6-7.09,30.17-91.36,30.17-91.36l158.87-16.05s-29.03-37.45-87.28-47.11l-.7-.03c3.15,6.12,11.33,27.76,6.72,36.67-1.37,2.65-3.68,3.94-7.03,3.94h0c-.16,0-.32,0-.49,0-15.49-.58-27.2-7.85-34.81-21.62-4.4-7.96-6.35-17.09-6.94-20.56l-.49-.02s-69.71,9.2-91.26,67.61c-6.81,18.45-23.85,79.22-19.97,102.84,2.34,14.21,6.77,34.01,131.46,72.37l10.93-23.82s-81.98-55.13-89.18-62.86h0Z"/>
                </g>
                <g>
                  <g>
                    <path class="cls-31" d="m205.61,800.65c-.49-14.52,4.88-28.03,15.54-39.05,7.27-7.52,16.64-13.38,26.65-16.94-3.64-6.38-12.08-15.52-29.83-12.41-26.51,4.65-32.68,36.91-26.91,60.7,1.87,7.69,7.64,12.55,14.94,14.7-.18-2.23-.32-4.56-.4-7h0Z"/>
                    <path class="cls-34" d="m293.19,746.13c-31.22-18.63-89.76,7.95-88.19,54.55,1.39,41.09,16.58,53.95,38.07,57.91.32-7.05.48-12.81.56-16.73v-.22l-.31-.42-.2-.27-.33.02h-.08c-1.01,0-6.25-.44-9.38-9.07-1.29-3.54-.88-7.33,1.08-10.13,1.46-2.08,3.6-3.28,5.86-3.28s4.49,1.14,6.55,3.29c2.2,2.29,2.98,2.74,3.58,2.74.28,0,.54-.11.72-.32.51-.58.39-1.76.15-3.91-.49-4.44-1.29-11.86,3.09-18.38,7.28-10.83,15.97-15.66,28.16-15.66.6,0,1.2.01,1.8.04,10.94.41,18.2,3.73,22.19,10.16,2.51,5.84,2.28,12.85,1.34,20.27,5.59-8.4,9.02-14.65,9.02-14.65,0,0,14.96-32.88-23.68-55.93h-.01Z"/>
                  </g>
                  <g>
                    <path class="cls-12" d="m307.04,796.15c-2.81-4.55-8.47-9.96-22.71-10.49-11.96-.44-22.05,3.33-30.49,15.9-8.45,12.57,1.9,28.65-6.6,19.79s-18.11.84-14.52,10.76,10.09,9.47,10.09,9.47c0,0,.06.08.19.25-.17,8.47-.73,26.05-2.53,46.61,0,0,4.32,41.4,42.22,42.81,18.83.7,4.72-36.66,1.53-41.19-.14-10.98-.06-19.63,0-23.52,17.8,1.04,23.75-21.34,23.02-36.28-.15-2.93.09-5.8.52-8.6,1.57-10.34,2.28-18.57-.72-25.51h0Z"/>
                    <g>
                      <g>
                        <path class="cls-26" d="m278.4,822.35c-.3,1.62-1.6,2.77-2.89,2.56-1.3-.2-2.11-1.68-1.81-3.3s1.6-2.77,2.89-2.56,2.11,1.68,1.81,3.3Z"/>
                        <path class="cls-26" d="m299.5,823.14c.18,1.64,1.39,2.88,2.7,2.77,1.31-.11,2.23-1.52,2.05-3.16-.18-1.64-1.39-2.88-2.7-2.77s-2.23,1.52-2.05,3.16Z"/>
                        <path class="cls-34" d="m268.01,813.07c.2-.8,2.65-3.48,7.3-4.13,4.65-.65,6.84.27,6.77,1.99-.07,1.87-5.22.13-9.56,1.66-4.34,1.53-4.59.79-4.51.47Z"/>
                        <path class="cls-34" d="m310.59,814.66c-.13-.82-2.21-3.65-6.47-4.64s-6.36-.23-6.42,1.5c-.07,1.87,4.84.5,8.74,2.34,3.91,1.84,4.2,1.11,4.15.8h0Z"/>
                        <path class="cls-19" d="m286.57,840.35c-.27,0-.49-.24-.49-.51,0-.27.24-.49.51-.49,4.65.11,7.36-.47,8.06-1.75.84-1.52-1-4.26-2.94-7.16l-.27-.4c-3.74-5.59-3.44-7.36-3.34-7.65.08-.26.37-.41.63-.32.25.08.39.35.33.61-.01.08-.18,1.72,3.22,6.82l.27.4c2.21,3.3,4.12,6.15,2.99,8.2-.92,1.68-3.77,2.41-8.97,2.27h0Z"/>
                        <path class="cls-19" d="m281.42,846.55s4.66,1.84,8.15,1.96,7.3-1.39,8.69-1.34-4.06,5.24-8.83,5.06c-4.37-.16-10.77-6.33-8.01-5.69h0Z"/>
                      </g>
                      <path class="cls-19" d="m283.49,866.5c-16.07-1.5-24.16-8.25-32.36-15.21,3.14,5.5,10.34,13.42,33.05,19.8.01-1.88.04-3.41.05-4.55-.25-.01-.49-.01-.74-.04Z"/>
                    </g>
                  </g>
                </g>
              </g>
            </g>
          </g>
        </g>
      </g>
    </g>
    <g class="cls-40">
      <g>
        <g>
          <g>
            <polygon class="cls-33" points="1292.83 1818.65 1205.54 1857.98 1165.46 1827.6 1040.67 1816.33 969.33 1840 933.93 1808.27 656.92 1866.67 360 1803.55 149.33 1905.33 709.33 1950.67 829.95 1935.69 1326.67 1977.78 1476.18 1852.74 1292.83 1818.65"/>
            <polygon class="cls-33" points="2004 1906.67 2244 1864 2440 1814.67 2716 1814.67 3038.67 1836 3218.67 1950.67 3416 1817.33 3566.67 1825.33 3716 1912 3522.67 1985.33 2482.67 1978.67 2046.67 1972 2004 1906.67"/>
            <polygon class="cls-33" points="1514.71 1839.41 1292.83 1818.65 1444.89 1871.56 1514.71 1839.41"/>
            <polygon class="cls-33" points="2752.89 1884.45 3039.11 1835.56 2677.33 1803.56 2752.89 1884.45"/>
            <path class="cls-33" d="m3955.33,1862.67c-2,0-243.33,7.33-243.33,7.33l195.33,60.67,48-68Z"/>
          </g>
          <polygon class="cls-33" points="3952 1906.67 3778.67 1882.67 3674.67 1837.33 3349.33 1925.33 3104 1893.33 2834.74 1925.46 2520.82 1903.8 2448 1874.67 2335.9 1891.03 1955.58 1864.78 1877.61 1919.79 1839.33 1866.62 1798.02 1835.07 1578.3 1797.88 1458 1859.33 1371.55 1923.11 1336.08 1917.27 1238.67 1947.12 1324 1876 1248.89 1868.45 1205.54 1857.98 1152.69 1879.64 1165.46 1827.6 987.46 1875.1 852.39 1837.3 560 1829.33 346.67 1899.55 194.67 1866.67 0 1804 0 2000 3914.67 2000 3952 1906.67"/>
          <g>
            <polygon class="cls-33" points="3984 1999.88 4000 1999.88 4000 1777.12 3895.33 1841.33 3799.11 1950.22 3984 1999.88"/>
            <polygon class="cls-33" points="3823.12 1931.56 3672.89 2000 4000 2000 4000 1790.75 3823.12 1931.56"/>
            <polygon class="cls-33" points="3387.33 1981.33 3166.42 1859.74 2997.33 1904 2699.32 1784.29 2473.33 1790.67 2389.65 1799.09 2261.58 1895.47 2186.75 1907.09 2086.22 1889.78 2015.72 1919.88 2002 1896.11 1979.87 1934.43 1883.74 1968.18 1719.11 1954.23 1803.11 1889.34 1788.89 1850.67 1669.78 1801.34 1444.63 1834.04 1321.12 1938.85 1215.25 1954.7 1193.33 1927.33 1089.33 1907.33 953.68 1925.67 798.67 1919.33 695.67 1951.49 408 1982.67 496 1929.33 447.45 1855.43 223.51 1808.81 136.67 1838 0 1777.12 0 1999.88 3434.76 1999.88 3387.33 1981.33"/>
            <polygon class="cls-33" points="3319.37 1937.75 3308.45 1836.89 3290.33 1810.34 3266.12 1916.59 3164 1876 2993.31 1890.12 2752.22 1817.04 2684.44 1864 2696 1800 2418.67 1839.33 2397.33 1813.33 2268 1910.67 2130.67 1932 1993.33 1946.67 1884.44 1984.89 1740.45 1947.55 1819.86 1889.29 1803.64 1860.8 1657.88 1823.82 1650.67 1860.45 1617.66 1828.79 1451.33 1849.33 1472 1888 1421.24 1874.87 1328 1954 1215.24 1970.88 1055.79 1946.75 951.5 1941.58 922.85 1935.11 894.45 1869.44 868.67 1915.33 791.2 1905.38 700.7 1967.44 444.73 1970.02 517.12 1938.99 440 1870.22 404 1902.67 390.68 1859.95 222.22 1824.89 143.11 1828.45 0 1790.75 0 2000 3476 2000 3319.37 1937.75"/>
          </g>
        </g>
        <g>
          <g>
            <polygon class="cls-33" points="737.33 217.33 592 217.33 537.33 254 456.67 254.67 387.33 232.67 385.33 176.67 640.67 112 737.33 217.33"/>
            <polygon class="cls-33" points="956.89 149.33 903.33 226.67 1108.89 174.67 1168 150.22 1126.22 133.78 956.89 149.33"/>
            <path class="cls-33" d="m1556,82l136,64.67,38.67-32,11.11,70.22,76.89,14.67,134.66,11.78,105.34-24.67s-224-117.33-226.67-117.33-276,12.67-276,12.67Z"/>
            <polygon class="cls-33" points="2153.33 178 2133.78 248.89 2348 244 2153.33 178"/>
            <polygon class="cls-33" points="2692.45 232.89 2810.67 274.67 2892.45 318.22 3002.67 264.89 2831.11 193.78 2692.45 232.89"/>
            <polygon class="cls-33" points="3514.67 297.78 3512 325.33 3624.89 357.33 3741.78 338.67 3826 286 3834.67 236.45 3514.67 297.78"/>
          </g>
          <g>
            <path class="cls-33" d="m3897.78,252.44l55.89-49.11,28.55-62.49,17.78,8.73V0H0v149.57l32.89,16.16,14.37,15.45,47.85-19.01-23.41,45.29,34.97,81.42,80-27.56-11.33,63.15,73.49,8.73,96.36-32.72,91.64,2.65s34.01-34.01,57.14-58.14l3.28-29.36,25.42-38.74,113.78,3.06,40.64,45.96,98.92,16.76,68-62.67,24.68,68.72,48.66,5.79,60.06-100.11,111.87,6.91,39.79-11.86,45.16,23.88,52.51-8.27,46.6,2.93,16-49.33,52,14.67,41.33-16.89,7.33-79.78,53.99,83.63,139.77-28.81,117.06,34.37,97.12-2.88,23.42,38.27,122.79,36.06,94.52,11.58,77.83-33.85,16.97,19.18,58.38-.96,84.08,61.25,60.96,6.82,35.55-37.33,55.47,27.72,38.75-20.61,8-76.45,59.79,95.1,53.23-.98,33.23,49.84,195.97-53.3,35.56,27.56,84.44-23.11-29.48,54.47,21.48,13.98,147.56-42.67,115.56-5.33,72.89,65.78,136.89,23.11-8.89-58.67,80,53.33,119.11-44.45,105.78,16,67.55-37.33,9.99,29.97,43.34-.63,79.11-64.89Z"/>
            <path class="cls-33" d="m0-88V61.58l17.78-8.73,28.55,62.49,119,30,16,425.33,30.67-127.33,38.67-359.33,51.55,153.33,105.78-16,85.33,44,94.67-76,106.67,12,77.33-49.33,49,30.82,102.55,4.73,47.07,13.61,32.04-37.17,7.68,95.36,11.66,12.64-9.23,17.45,15.23,189.22,16.67-52,29.33-261.33,73.55,19.56,35.56-27.56,195.97,53.31,33.23-49.85,53.23.98,59.79-95.1,8,76.45,38.75,20.61,55.47-27.72,35.55,37.33,60.96-6.82,84.08-61.25,58.38.96,16.97-19.18,77.83,33.85,94.52-11.58,122.79-36.06,23.42-38.27,97.12,2.88,117.06-34.37,39.09,367.18,64.67,189.33,32.6-221.46-20.6-63.87,30.76-5.13,47.24-320.86,7.33,79.78,41.33,16.89,52-14.67,16,49.33,46.6-2.93,52.52,8.27,45.16-23.88,39.79,11.86,111.87-6.91,60.06,100.11,48.66-5.79,24.68-68.72,68,62.67,98.92-16.76,40.64-45.96,113.78-3.06,25.42,38.74,3.28,29.36c23.13,24.13,57.14,58.14,57.14,58.14l91.64-2.65,96.37,32.72,73.49-8.73-11.34-63.15,80,27.56,34.96-81.42-23.41-45.29,47.85,19.01,14.37-15.45,32.89-16.15V-88H0Z"/>
          </g>
          <g>
            <polygon class="cls-33" points="0 0 0 273.33 36 108 94.22 112.89 226.22 78.22 281.35 26.2 361.33 65.33 401.49 104.81 399.33 236.67 464.13 113 568.6 126.65 651.28 76.39 736.89 96.89 774.22 329.78 796 63.33 938 35.33 1107.31 0 0 0"/>
            <polygon class="cls-33" points="1194.8 0 1216 144 1237.33 113.78 1253.71 0 1194.8 0"/>
            <polygon class="cls-33" points="1415.53 0 1517.42 42.04 1513.33 249.33 1566.22 57.78 1687.35 57.94 1701.33 86.67 1836 108.67 1923.3 107.42 2000.69 138.39 2299.56 86.22 2352.89 101.33 2298.38 223.04 2304 356 2339.93 212.38 2414.02 193.36 2576 224 2666.67 216 2720.38 174.53 2864.44 125.17 2888.92 134.13 2921.6 234.22 3022.83 241.68 3048 366.22 3073.78 394.67 3085.45 246.3 3148.82 250.97 3228.71 207.8 3311.33 186.67 3355.33 186.67 3441.78 162.67 3487.56 279.11 3492.75 125.88 3621.91 66.05 3661.33 184 3697.08 38.02 3787.19 10.88 3908 98.67 3973.33 108 4000 273.33 4000 0 1415.53 0"/>
          </g>
          <g>
            <polygon class="cls-33" points="1376.76 0 1467.11 33.78 1488.89 279.11 1505.78 322.67 1542.67 42.33 1556.11 64.28 1584.47 74.45 1685.33 41.78 1824.7 50.74 2003.39 122.23 2323.03 106.36 2213.33 170.67 2273.14 195.33 2283.33 340 2302.67 390 2322.86 200.24 2400 180.44 2411.56 112.89 2575.17 191.74 2865.03 108.35 2960.61 87.84 2979.56 67.56 3055.11 67.56 2908.75 143.31 2933.48 219.05 3046.92 227.41 3051.74 319.1 3063.11 324.45 3052.45 348.89 3074.67 488.89 3090 511.33 3123.71 233.07 3145.33 234.67 3204.67 197.33 3191.33 154.67 3304 192.77 3367.7 189.15 3391.11 154.67 3456.54 134.3 3490.67 316.44 3516 251.33 3536.17 109.52 3659.55 71.11 3678.31 73.66 3836 56 4000 81.85 4000 0 1376.76 0"/>
            <polygon class="cls-33" points="393.78 0 195.18 0 0 0 0 81.85 81.33 94.67 205.33 57.33 255.35 42.12 312.93 82.42 369.24 89.34 394 276 436.32 97.58 538.43 110.12 608.59 70.03 618.22 28.89 644.02 61.6 756.54 71.64 758.78 110.61 773.78 121.33 760.8 145.79 773.33 364 812.27 70.62 931.25 0 393.78 0"/>
          </g>
          <polygon class="cls-33" points="3224 -60.44 1967.11 -60.44 2238.89 -31.66 2275.33 56.67 2325.33 74.67 2386.67 -16 2730.68 -30.04 2778.67 88 2822.22 -33.78 2962.67 -17.78 3224 -60.44"/>
        </g>
      </g>
    </g>
  </g>
</svg>