<?xml version="1.0" encoding="UTF-8"?>
<svg id="Layer_1" data-name="Layer 1" xmlns="http://www.w3.org/2000/svg" xmlns:xlink="http://www.w3.org/1999/xlink" viewBox="0 0 5450 2938.96">
  <defs>
    <style>
      .cls-1 {
        fill: none;
      }

      .cls-2 {
        clip-path: url(#clippath);
      }

      .cls-3 {
        fill: #034792;
      }

      .cls-4 {
        fill: #032e72;
      }

      .cls-5 {
        fill: #027dcb;
      }

      .cls-6 {
        fill: #027dca;
      }

      .cls-7 {
        fill: #0279c9;
      }

      .cls-8 {
        fill: #033678;
      }

      .cls-9 {
        fill: #032b70;
      }

      .cls-10 {
        fill: #0057a5;
      }

      .cls-11 {
        fill: #011039;
      }

      .cls-12 {
        fill: #004b9a;
      }

      .cls-13 {
        fill: #01184c;
      }

      .cls-14 {
        fill: #005099;
      }

      .cls-15 {
        fill: #004d97;
      }

      .cls-16 {
        fill: #003983;
      }

      .cls-17 {
        fill: #003987;
      }

      .cls-18 {
        fill: #00327c;
      }

      .cls-19 {
        fill: #003480;
      }

      .cls-20 {
        fill: #002a66;
      }

      .cls-21 {
        fill: #003885;
      }

      .cls-22 {
        fill: #003787;
      }

      .cls-23 {
        fill: #00317a;
      }

      .cls-24 {
        fill: #003070;
      }

      .cls-25 {
        fill: #002b6f;
      }

      .cls-26 {
        fill: #003683;
      }

      .cls-27 {
        fill: #003078;
      }

      .cls-28 {
        fill: #00225f;
      }

      .cls-29 {
        fill: #002261;
      }

      .cls-30 {
        fill: #00225c;
      }

      .cls-31 {
        fill: #00235d;
      }

      .cls-32 {
        fill: #002667;
      }

      .cls-33 {
        fill: #0198dd;
      }

      .cls-34 {
        fill: #024fa1;
      }

      .cls-35 {
        fill: #017bc8;
      }

      .cls-36 {
        fill: #02408d;
      }

      .cls-37 {
        fill: #023179;
      }

      .cls-38 {
        fill: #023882;
      }

      .cls-39 {
        fill: #022b6d;
      }

      .cls-40 {
        fill: #023378;
      }

      .cls-41 {
        fill: #011a53;
      }

      .cls-42 {
        fill: #011f5b;
      }

      .cls-43 {
        fill: #01327e;
      }

      .cls-44 {
        fill: #012257;
      }

      .cls-45 {
        fill: #0064c0;
      }

      .cls-46 {
        fill: #012561;
      }

      .cls-47 {
        fill: #0063b8;
      }

      .cls-48 {
        fill: #011c51;
      }

      .cls-49 {
        fill: #011c53;
      }

      .cls-50 {
        fill: #005dad;
      }

      .cls-51 {
        fill: #0077c7;
      }

      .cls-52 {
        fill: #013684;
      }

      .cls-53 {
        fill: #006aba;
      }

      .cls-54 {
        fill: #012c70;
      }

      .cls-55 {
        fill: #0078c6;
      }

      .cls-56 {
        fill: #006abe;
      }

      .cls-57 {
        fill: #006dbf;
      }

      .cls-58 {
        fill: #005fb3;
      }

      .cls-59 {
        fill: #04478d;
      }

      .cls-60 {
        fill: #038ed3;
      }

      .cls-61 {
        fill: #0457a5;
      }

      .cls-62 {
        fill: #001f58;
      }

      .cls-63 {
        fill: #002566;
      }

      .cls-64 {
        fill: #001c4c;
      }

      .cls-65 {
        fill: #001c52;
      }

      .cls-66 {
        fill: #00215e;
      }

      .cls-67 {
        fill: #00276c;
      }

      .cls-68 {
        fill: #036bc4;
      }

      .cls-69 {
        fill: #001d57;
      }

      .cls-70 {
        fill: #0094de;
      }

      .cls-71 {
        fill: #008ad3;
      }

      .cls-72 {
        fill: #0090d6;
      }

      .cls-73 {
        fill: #014a99;
      }

      .cls-74 {
        fill: #021540;
      }

      .cls-75 {
        fill: #66a9e0;
      }

      .cls-76 {
        fill: #001242;
      }

      .cls-77 {
        fill: #00113d;
      }

      .cls-78 {
        fill: #000d2f;
      }

      .cls-79 {
        fill: #013a89;
      }

      .cls-80 {
        fill: #013179;
      }

      .cls-81 {
        fill: #007bc8;
      }

      .cls-82 {
        fill: #007dc9;
      }

      .cls-83 {
        fill: #007ac7;
      }

      .cls-84 {
        fill: #0064ba;
      }

      .cls-85 {
        fill: #90c7f0;
      }

      .cls-86 {
        fill: #7cbcec;
      }

      .cls-87 {
        fill: #96c6ee;
      }

      .cls-88 {
        fill: #7ec0f0;
      }

      .cls-89 {
        fill: #02194b;
      }

      .cls-90 {
        fill: #015fb6;
      }

      .cls-91 {
        fill: #015caf;
      }

      .cls-92 {
        fill: #04133e;
      }

      .cls-93 {
        fill: #022366;
      }

      .cls-94 {
        fill: #91c6ee;
      }

      .cls-95 {
        fill: #9cccf0;
      }

      .cls-96 {
        fill: #9dcdf3;
      }

      .cls-97 {
        fill: #318cd3;
      }

      .cls-98 {
        fill: #2e93d7;
      }

      .cls-99 {
        fill: #8dbee9;
      }

      .cls-100 {
        fill: #92c1eb;
      }

      .cls-101 {
        fill: #1da2e3;
      }

      .cls-102 {
        fill: #1f1f1f;
      }

      .cls-103 {
        fill: #09316c;
      }

      .cls-104 {
        fill: #0a468e;
      }

      .cls-105 {
        fill: #063279;
      }

      .cls-106 {
        fill: #113571;
      }

      .cls-107 {
        fill: #0657b2;
      }

      .cls-108 {
        fill: #058bd4;
      }

      .cls-109 {
        fill: #4196d6;
      }

      .cls-110 {
        fill: #42a8e6;
      }

      .cls-111 {
        fill: #18315a;
      }

      .cls-112 {
        fill: #09459b;
      }

      .cls-113 {
        fill: #0a97df;
      }

      .cls-114 {
        fill: #7fbdee;
      }

      .cls-115 {
        fill: #94c9f3;
      }

      .cls-116 {
        fill: #45a3e0;
      }

      .cls-117 {
        fill: #45a1e0;
      }

      .cls-118 {
        fill: #87bcee;
      }

      .cls-119 {
        fill: #87bae5;
      }

      .cls-120 {
        fill: #87bbeb;
      }

      .cls-121 {
        fill: #6cb5e8;
      }

      .cls-122 {
        fill: #63b2ed;
      }

      .cls-123 {
        fill: #3483c5;
      }

      .cls-124 {
        fill: #2ca4e3;
      }

      .cls-125 {
        fill: #81bbed;
      }

      .cls-126 {
        fill: #81bfee;
      }

      .cls-127 {
        fill: #81b9e8;
      }

      .cls-128 {
        fill: #2c9be0;
      }

      .cls-129 {
        fill: #5dade8;
      }

      .cls-130 {
        fill: #5fb1e9;
      }

      .cls-131 {
        fill: #529edc;
      }

      .cls-132 {
        fill: #74b6ea;
      }

      .cls-133 {
        fill: #4aa9e3;
      }

      .cls-134 {
        fill: #5da9db;
      }

      .cls-135 {
        fill: #5fb0e8;
      }

      .cls-136 {
        fill: #4eabe8;
      }

      .cls-137 {
        fill: #82b5e4;
      }

      .cls-138 {
        fill: #50a5de;
      }
    </style>
    <clipPath id="clippath">
      <rect class="cls-1" y="0" width="5450" height="2938.96"/>
    </clipPath>
  </defs>
  <g class="cls-2">
    <rect class="cls-102" y="0" width="5265.76" height="2930.04"/>
    <polygon class="cls-60" points="5562.92 1800.82 5033.97 2543.73 5669.9 3072.68 5562.92 1800.82"/>
    <polygon class="cls-116" points="5033.97 2543.73 4326.72 2615.05 5669.9 3072.68 5033.97 2543.73"/>
    <polygon class="cls-132" points="4326.72 2615.05 3797.76 3096.46 5669.9 3072.68 4326.72 2615.05"/>
    <polygon class="cls-34" points="5218.21 1961.29 5033.97 2543.73 5562.92 1800.82 5218.21 1961.29"/>
    <polygon class="cls-48" points="689.42 742.91 1069.79 731.03 1093.57 208.02 689.42 742.91"/>
    <polygon class="cls-27" points="1069.79 731.03 802.34 1289.69 1123.28 1372.9 1069.79 731.03"/>
    <polygon class="cls-74" points="-59.43 -71.32 -124.81 1105.45 350.65 612.16 -59.43 -71.32"/>
    <polygon class="cls-98" points="-148.58 1901.85 -59.43 2282.22 314.99 1705.73 -148.58 1901.85"/>
    <polygon class="cls-3" points="-124.81 1105.45 -148.58 1901.85 314.99 1705.73 -124.81 1105.45"/>
    <polygon class="cls-119" points="-59.43 2282.22 -106.98 2995.42 332.82 2876.55 -59.43 2282.22"/>
    <polygon class="cls-106" points="350.65 612.16 392.26 1325.35 689.42 742.91 350.65 612.16"/>
    <polygon class="cls-36" points="392.26 1325.35 719.14 1806.76 802.34 1289.69 392.26 1325.35"/>
    <polygon class="cls-137" points="-59.43 2282.22 332.82 2876.55 469.52 2347.6 -59.43 2282.22"/>
    <polygon class="cls-66" points="350.65 612.16 -124.81 1105.45 392.26 1325.35 350.65 612.16"/>
    <polygon class="cls-59" points="-124.81 1105.45 314.99 1705.73 392.26 1325.35 -124.81 1105.45"/>
    <polygon class="cls-131" points="314.99 1705.73 -59.43 2282.22 469.52 2347.6 314.99 1705.73"/>
    <polygon class="cls-72" points="1996.95 1355.07 1717.61 1676.01 2050.44 1854.31 1996.95 1355.07"/>
    <polygon class="cls-91" points="4861.61 1372.9 5218.21 1961.29 5562.92 1800.82 4861.61 1372.9"/>
    <polygon class="cls-78" points="-59.43 -71.32 350.65 612.16 653.76 -314.99 -59.43 -71.32"/>
    <polygon class="cls-100" points="469.52 2347.6 332.82 2876.55 784.51 3060.8 469.52 2347.6"/>
    <polygon class="cls-15" points="392.26 1325.35 314.99 1705.73 719.14 1806.76 392.26 1325.35"/>
    <polygon class="cls-109" points="314.99 1705.73 469.52 2347.6 719.14 1806.76 314.99 1705.73"/>
    <polygon class="cls-50" points="5212.27 867.72 4861.61 1372.9 5562.92 1800.82 5212.27 867.72"/>
    <polygon class="cls-100" points="332.82 2876.55 -106.98 2995.42 784.51 3060.8 332.82 2876.55"/>
    <polygon class="cls-105" points="689.42 742.91 392.26 1325.35 802.34 1289.69 689.42 742.91"/>
    <polygon class="cls-56" points="2579.39 1028.19 1996.95 1355.07 2674.48 1325.35 2579.39 1028.19"/>
    <polygon class="cls-13" points="350.65 612.16 689.42 742.91 1093.57 208.02 350.65 612.16"/>
    <polygon class="cls-75" points="719.14 1806.76 469.52 2347.6 843.95 2311.94 719.14 1806.76"/>
    <polygon class="cls-99" points="469.52 2347.6 784.51 3060.8 843.95 2311.94 469.52 2347.6"/>
    <polygon class="cls-77" points="653.76 -314.99 350.65 612.16 1093.57 208.02 653.76 -314.99"/>
    <polygon class="cls-67" points="689.42 742.91 802.34 1289.69 1069.79 731.03 689.42 742.91"/>
    <polygon class="cls-14" points="802.34 1289.69 719.14 1806.76 1123.28 1372.9 802.34 1289.69"/>
    <polygon class="cls-128" points="719.14 1806.76 1170.83 2234.68 1325.35 1765.16 719.14 1806.76"/>
    <polygon class="cls-134" points="719.14 1806.76 843.95 2311.94 1170.83 2234.68 719.14 1806.76"/>
    <polygon class="cls-73" points="1123.28 1372.9 719.14 1806.76 1325.35 1765.16 1123.28 1372.9"/>
    <polygon class="cls-118" points="1170.83 2234.68 1343.18 2894.38 1640.35 2323.83 1170.83 2234.68"/>
    <polygon class="cls-138" points="1325.35 1765.16 1170.83 2234.68 1640.35 2323.83 1325.35 1765.16"/>
    <polygon class="cls-76" points="653.76 -314.99 1093.57 208.02 1420.45 -59.43 653.76 -314.99"/>
    <polygon class="cls-87" points="843.95 2311.94 784.51 3060.8 1343.18 2894.38 843.95 2311.94"/>
    <polygon class="cls-120" points="1170.83 2234.68 843.95 2311.94 1343.18 2894.38 1170.83 2234.68"/>
    <polygon class="cls-94" points="1640.35 2323.83 1343.18 2894.38 1895.91 2751.75 1640.35 2323.83"/>
    <polygon class="cls-95" points="1895.91 2751.75 1343.18 2894.38 1991 3126.17 1895.91 2751.75"/>
    <polygon class="cls-49" points="1420.45 -59.43 1093.57 208.02 1521.48 380.37 1420.45 -59.43"/>
    <polygon class="cls-69" points="1093.57 208.02 1069.79 731.03 1521.48 380.37 1093.57 208.02"/>
    <polygon class="cls-23" points="1069.79 731.03 1123.28 1372.9 1533.37 814.23 1069.79 731.03"/>
    <polygon class="cls-46" points="1521.48 380.37 1069.79 731.03 1533.37 814.23 1521.48 380.37"/>
    <polygon class="cls-79" points="1533.37 814.23 1996.95 1355.07 2032.61 980.64 1533.37 814.23"/>
    <polygon class="cls-70" points="1325.35 1765.16 1640.35 2323.83 1717.61 1676.01 1325.35 1765.16"/>
    <polygon class="cls-108" points="1123.28 1372.9 1325.35 1765.16 1717.61 1676.01 1123.28 1372.9"/>
    <polygon class="cls-112" points="1533.37 814.23 1123.28 1372.9 1717.61 1676.01 1533.37 814.23"/>
    <polygon class="cls-10" points="4594.17 1979.12 5033.97 2543.73 5218.21 1961.29 4594.17 1979.12"/>
    <polygon class="cls-58" points="4736.8 1771.1 4594.17 1979.12 5218.21 1961.29 4736.8 1771.1"/>
    <polygon class="cls-95" points="1343.18 2894.38 784.51 3060.8 1991 3126.17 1343.18 2894.38"/>
    <polygon class="cls-107" points="1533.37 814.23 1717.61 1676.01 1996.95 1355.07 1533.37 814.23"/>
    <polygon class="cls-93" points="2026.66 279.33 1521.48 380.37 2056.38 671.59 2026.66 279.33"/>
    <polygon class="cls-63" points="1521.48 380.37 1533.37 814.23 2056.38 671.59 1521.48 380.37"/>
    <polygon class="cls-62" points="1420.45 -59.43 1521.48 380.37 2026.66 279.33 1420.45 -59.43"/>
    <polygon class="cls-41" points="1979.12 -356.6 1420.45 -59.43 2026.66 279.33 1979.12 -356.6"/>
    <polygon class="cls-101" points="2050.44 1854.31 2335.71 2199.02 2531.84 1759.21 2050.44 1854.31"/>
    <polygon class="cls-113" points="1996.95 1355.07 2050.44 1854.31 2531.84 1759.21 1996.95 1355.07"/>
    <polygon class="cls-127" points="1640.35 2323.83 1895.91 2751.75 2032.61 2323.83 1640.35 2323.83"/>
    <polygon class="cls-19" points="1533.37 814.23 2032.61 980.64 2056.38 671.59 1533.37 814.23"/>
    <polygon class="cls-33" points="1717.61 1676.01 1640.35 2323.83 2050.44 1854.31 1717.61 1676.01"/>
    <polygon class="cls-133" points="1640.35 2323.83 2032.61 2323.83 2050.44 1854.31 1640.35 2323.83"/>
    <polygon class="cls-136" points="2050.44 1854.31 2032.61 2323.83 2335.71 2199.02 2050.44 1854.31"/>
    <polygon class="cls-130" points="2335.71 2199.02 2864.67 2371.37 2894.38 2050.44 2335.71 2199.02"/>
    <polygon class="cls-96" points="1895.91 2751.75 1991 3126.17 2561.56 2977.59 1895.91 2751.75"/>
    <polygon class="cls-114" points="2335.71 2199.02 2032.61 2323.83 2561.56 2977.59 2335.71 2199.02"/>
    <polygon class="cls-85" points="2032.61 2323.83 1895.91 2751.75 2561.56 2977.59 2032.61 2323.83"/>
    <polygon class="cls-110" points="2531.84 1759.21 2335.71 2199.02 2894.38 2050.44 2531.84 1759.21"/>
    <polygon class="cls-115" points="3429.28 2626.94 2561.56 2977.59 3797.76 3096.46 3429.28 2626.94"/>
    <polygon class="cls-90" points="2032.61 980.64 1996.95 1355.07 2579.39 1028.19 2032.61 980.64"/>
    <polygon class="cls-42" points="1979.12 -356.6 2026.66 279.33 2620.99 -184.24 1979.12 -356.6"/>
    <polygon class="cls-17" points="2056.38 671.59 2032.61 980.64 2579.39 1028.19 2056.38 671.59"/>
    <polygon class="cls-5" points="2674.48 1325.35 2531.84 1759.21 2811.18 1598.75 2674.48 1325.35"/>
    <polygon class="cls-135" points="4106.82 1919.68 3993.89 2454.58 4326.72 2615.05 4106.82 1919.68"/>
    <polygon class="cls-51" points="1996.95 1355.07 2531.84 1759.21 2674.48 1325.35 1996.95 1355.07"/>
    <polygon class="cls-125" points="2335.71 2199.02 2561.56 2977.59 2864.67 2371.37 2335.71 2199.02"/>
    <polygon class="cls-6" points="3144 1295.64 2811.18 1598.75 3280.7 1741.38 3144 1295.64"/>
    <polygon class="cls-28" points="2620.99 -184.24 2026.66 279.33 2846.84 291.22 2620.99 -184.24"/>
    <polygon class="cls-32" points="2026.66 279.33 2056.38 671.59 2846.84 291.22 2026.66 279.33"/>
    <polygon class="cls-104" points="2056.38 671.59 2579.39 1028.19 2846.84 291.22 2056.38 671.59"/>
    <polygon class="cls-12" points="2947.87 719.14 2579.39 1028.19 3144 1295.64 2947.87 719.14"/>
    <polygon class="cls-57" points="2579.39 1028.19 2674.48 1325.35 3144 1295.64 2579.39 1028.19"/>
    <polygon class="cls-71" points="2811.18 1598.75 2531.84 1759.21 2894.38 2050.44 2811.18 1598.75"/>
    <polygon class="cls-26" points="2846.84 291.22 2579.39 1028.19 2947.87 719.14 2846.84 291.22"/>
    <polygon class="cls-81" points="2674.48 1325.35 2811.18 1598.75 3144 1295.64 2674.48 1325.35"/>
    <polygon class="cls-82" points="2811.18 1598.75 2894.38 2050.44 3280.7 1741.38 2811.18 1598.75"/>
    <polygon class="cls-62" points="2620.99 -184.24 2846.84 291.22 3542.2 -267.45 2620.99 -184.24"/>
    <polygon class="cls-16" points="2947.87 719.14 3144 1295.64 3310.41 861.78 2947.87 719.14"/>
    <polygon class="cls-68" points="3280.7 1741.38 3506.54 2050.44 3797.76 1794.87 3280.7 1741.38"/>
    <polygon class="cls-88" points="2864.67 2371.37 2561.56 2977.59 3429.28 2626.94 2864.67 2371.37"/>
    <polygon class="cls-38" points="3310.41 861.78 3494.66 1206.49 3655.12 897.44 3310.41 861.78"/>
    <polygon class="cls-5" points="3494.66 1206.49 3280.7 1741.38 3797.76 1794.87 3494.66 1206.49"/>
    <polygon class="cls-40" points="2846.84 291.22 2947.87 719.14 3470.88 540.84 2846.84 291.22"/>
    <polygon class="cls-43" points="2947.87 719.14 3310.41 861.78 3470.88 540.84 2947.87 719.14"/>
    <polygon class="cls-124" points="3280.7 1741.38 2894.38 2050.44 3506.54 2050.44 3280.7 1741.38"/>
    <polygon class="cls-83" points="3144 1295.64 3280.7 1741.38 3494.66 1206.49 3144 1295.64"/>
    <polygon class="cls-22" points="3310.41 861.78 3144 1295.64 3494.66 1206.49 3310.41 861.78"/>
    <polygon class="cls-129" points="2894.38 2050.44 2864.67 2371.37 3506.54 2050.44 2894.38 2050.44"/>
    <polygon class="cls-122" points="2864.67 2371.37 3429.28 2626.94 3506.54 2050.44 2864.67 2371.37"/>
    <polygon class="cls-117" points="4594.17 1979.12 4326.72 2615.05 5033.97 2543.73 4594.17 1979.12"/>
    <polygon class="cls-29" points="3542.2 -267.45 2846.84 291.22 3631.35 303.11 3542.2 -267.45"/>
    <polygon class="cls-4" points="2846.84 291.22 3470.88 540.84 3631.35 303.11 2846.84 291.22"/>
    <polygon class="cls-80" points="3470.88 540.84 3310.41 861.78 3655.12 897.44 3470.88 540.84"/>
    <polygon class="cls-89" points="4909.16 303.11 4873.5 861.78 5212.27 867.72 4909.16 303.11"/>
    <polygon class="cls-86" points="3993.89 2454.58 3797.76 3096.46 4326.72 2615.05 3993.89 2454.58"/>
    <polygon class="cls-61" points="3494.66 1206.49 3797.76 1794.87 3970.12 1450.16 3494.66 1206.49"/>
    <polygon class="cls-7" points="3970.12 1450.16 3797.76 1794.87 4106.82 1919.68 3970.12 1450.16"/>
    <polygon class="cls-37" points="3470.88 540.84 3655.12 897.44 3940.4 861.78 3470.88 540.84"/>
    <polygon class="cls-64" points="4534.73 540.84 4873.5 861.78 4909.16 303.11 4534.73 540.84"/>
    <polygon class="cls-121" points="3506.54 2050.44 3429.28 2626.94 3993.89 2454.58 3506.54 2050.44"/>
    <polygon class="cls-21" points="3655.12 897.44 3494.66 1206.49 3970.12 1450.16 3655.12 897.44"/>
    <polygon class="cls-52" points="3940.4 861.78 3655.12 897.44 3970.12 1450.16 3940.4 861.78"/>
    <polygon class="cls-126" points="3429.28 2626.94 3797.76 3096.46 3993.89 2454.58 3429.28 2626.94"/>
    <polygon class="cls-54" points="3470.88 540.84 3940.4 861.78 4035.5 404.14 3470.88 540.84"/>
    <polygon class="cls-65" points="4332.66 -11.89 4534.73 540.84 4909.16 303.11 4332.66 -11.89"/>
    <polygon class="cls-25" points="3631.35 303.11 3470.88 540.84 4035.5 404.14 3631.35 303.11"/>
    <polygon class="cls-123" points="3506.54 2050.44 3993.89 2454.58 4106.82 1919.68 3506.54 2050.44"/>
    <polygon class="cls-45" points="3797.76 1794.87 3506.54 2050.44 4106.82 1919.68 3797.76 1794.87"/>
    <polygon class="cls-31" points="3631.35 303.11 4035.5 404.14 4332.66 -11.89 3631.35 303.11"/>
    <polygon class="cls-47" points="4861.61 1372.9 4736.8 1771.1 5218.21 1961.29 4861.61 1372.9"/>
    <polygon class="cls-42" points="3542.2 -267.45 3631.35 303.11 4332.66 -11.89 3542.2 -267.45"/>
    <polygon class="cls-97" points="4106.82 1919.68 4326.72 2615.05 4594.17 1979.12 4106.82 1919.68"/>
    <polygon class="cls-30" points="4332.66 -11.89 4035.5 404.14 4534.73 540.84 4332.66 -11.89"/>
    <polygon class="cls-24" points="3940.4 861.78 4409.92 1176.77 4546.62 832.06 3940.4 861.78"/>
    <polygon class="cls-18" points="3940.4 861.78 3970.12 1450.16 4409.92 1176.77 3940.4 861.78"/>
    <polygon class="cls-39" points="4035.5 404.14 3940.4 861.78 4534.73 540.84 4035.5 404.14"/>
    <polygon class="cls-44" points="4873.5 861.78 4861.61 1372.9 5212.27 867.72 4873.5 861.78"/>
    <polygon class="cls-9" points="4534.73 540.84 3940.4 861.78 4546.62 832.06 4534.73 540.84"/>
    <polygon class="cls-55" points="3970.12 1450.16 4106.82 1919.68 4736.8 1771.1 3970.12 1450.16"/>
    <polygon class="cls-35" points="4409.92 1176.77 3970.12 1450.16 4736.8 1771.1 4409.92 1176.77"/>
    <polygon class="cls-84" points="4106.82 1919.68 4594.17 1979.12 4736.8 1771.1 4106.82 1919.68"/>
    <polygon class="cls-11" points="4909.16 303.11 5212.27 867.72 5450 -53.49 4909.16 303.11"/>
    <polygon class="cls-103" points="4409.92 1176.77 4861.61 1372.9 4873.5 861.78 4409.92 1176.77"/>
    <polygon class="cls-53" points="4409.92 1176.77 4736.8 1771.1 4861.61 1372.9 4409.92 1176.77"/>
    <polygon class="cls-30" points="4534.73 540.84 4546.62 832.06 4873.5 861.78 4534.73 540.84"/>
    <polygon class="cls-20" points="4546.62 832.06 4409.92 1176.77 4873.5 861.78 4546.62 832.06"/>
    <polygon class="cls-8" points="5212.27 867.72 5562.92 1800.82 5616.41 861.78 5212.27 867.72"/>
    <polygon class="cls-111" points="5450 -53.49 5212.27 867.72 5616.41 861.78 5450 -53.49"/>
    <polygon class="cls-92" points="4332.66 -11.89 4909.16 303.11 5450 -53.49 4332.66 -11.89"/>
  </g>
</svg>