<?xml version="1.0" encoding="UTF-8"?>
<svg xmlns="http://www.w3.org/2000/svg" xmlns:xlink="http://www.w3.org/1999/xlink" viewBox="0 0 434.01 590.58">
  <defs>
    <style>
      .cls-1 {
        fill: url(#linear-gradient);
      }

      .cls-2 {
        mix-blend-mode: overlay;
        opacity: .19;
      }

      .cls-3 {
        fill: #f06f74;
      }

      .cls-4 {
        fill: #f5cf81;
      }

      .cls-5 {
        fill: #ec4367;
      }

      .cls-6 {
        fill: #e695b9;
      }

      .cls-7 {
        fill: #e44556;
      }

      .cls-8 {
        fill: #21b2b1;
      }

      .cls-9 {
        fill: #967c77;
      }

      .cls-10 {
        fill: #2c113e;
      }

      .cls-11 {
        fill: #4c4869;
      }

      .cls-12 {
        fill: url(#linear-gradient-8);
      }

      .cls-13 {
        fill: url(#linear-gradient-9);
      }

      .cls-14 {
        fill: url(#linear-gradient-3);
      }

      .cls-15 {
        fill: url(#linear-gradient-4);
      }

      .cls-16 {
        fill: url(#linear-gradient-2);
      }

      .cls-17 {
        fill: url(#linear-gradient-6);
      }

      .cls-18 {
        fill: url(#linear-gradient-7);
      }

      .cls-19 {
        fill: url(#linear-gradient-5);
      }

      .cls-20 {
        fill: url(#linear-gradient-59);
      }

      .cls-21 {
        fill: url(#linear-gradient-57);
      }

      .cls-22 {
        fill: url(#linear-gradient-58);
      }

      .cls-23 {
        fill: url(#linear-gradient-55);
      }

      .cls-24 {
        fill: url(#linear-gradient-56);
      }

      .cls-25 {
        fill: url(#linear-gradient-53);
      }

      .cls-26 {
        fill: url(#linear-gradient-54);
      }

      .cls-27 {
        fill: url(#linear-gradient-51);
      }

      .cls-28 {
        fill: url(#linear-gradient-52);
      }

      .cls-29 {
        fill: url(#linear-gradient-50);
      }

      .cls-30 {
        fill: url(#linear-gradient-77);
      }

      .cls-31 {
        fill: url(#linear-gradient-78);
      }

      .cls-32 {
        fill: url(#linear-gradient-79);
      }

      .cls-33 {
        fill: url(#linear-gradient-74);
      }

      .cls-34 {
        fill: url(#linear-gradient-75);
      }

      .cls-35 {
        fill: url(#linear-gradient-76);
      }

      .cls-36 {
        fill: url(#linear-gradient-70);
      }

      .cls-37 {
        fill: url(#linear-gradient-71);
      }

      .cls-38 {
        fill: url(#linear-gradient-72);
      }

      .cls-39 {
        fill: url(#linear-gradient-73);
      }

      .cls-40 {
        fill: url(#linear-gradient-68);
      }

      .cls-41 {
        fill: url(#linear-gradient-67);
      }

      .cls-42 {
        fill: url(#linear-gradient-69);
      }

      .cls-43 {
        fill: url(#linear-gradient-64);
      }

      .cls-44 {
        fill: url(#linear-gradient-63);
      }

      .cls-45 {
        fill: url(#linear-gradient-66);
      }

      .cls-46 {
        fill: url(#linear-gradient-65);
      }

      .cls-47 {
        fill: url(#linear-gradient-60);
      }

      .cls-48 {
        fill: url(#linear-gradient-62);
      }

      .cls-49 {
        fill: url(#linear-gradient-61);
      }

      .cls-50 {
        fill: url(#linear-gradient-91);
      }

      .cls-51 {
        fill: url(#linear-gradient-95);
      }

      .cls-52 {
        fill: url(#linear-gradient-96);
      }

      .cls-53 {
        fill: url(#linear-gradient-94);
      }

      .cls-54 {
        fill: url(#linear-gradient-92);
      }

      .cls-55 {
        fill: url(#linear-gradient-93);
      }

      .cls-56 {
        fill: url(#linear-gradient-90);
      }

      .cls-57 {
        fill: url(#linear-gradient-81);
      }

      .cls-58 {
        fill: url(#linear-gradient-80);
      }

      .cls-59 {
        fill: url(#linear-gradient-88);
      }

      .cls-60 {
        fill: url(#linear-gradient-89);
      }

      .cls-61 {
        fill: url(#linear-gradient-87);
      }

      .cls-62 {
        fill: url(#linear-gradient-86);
      }

      .cls-63 {
        fill: url(#linear-gradient-85);
      }

      .cls-64 {
        fill: url(#linear-gradient-84);
      }

      .cls-65 {
        fill: url(#linear-gradient-83);
      }

      .cls-66 {
        fill: url(#linear-gradient-82);
      }

      .cls-67 {
        fill: url(#linear-gradient-41);
      }

      .cls-68 {
        fill: url(#linear-gradient-40);
      }

      .cls-69 {
        fill: url(#linear-gradient-43);
      }

      .cls-70 {
        fill: url(#linear-gradient-42);
      }

      .cls-71 {
        fill: url(#linear-gradient-45);
      }

      .cls-72 {
        fill: url(#linear-gradient-46);
      }

      .cls-73 {
        fill: url(#linear-gradient-44);
      }

      .cls-74 {
        fill: url(#linear-gradient-49);
      }

      .cls-75 {
        fill: url(#linear-gradient-47);
      }

      .cls-76 {
        fill: url(#linear-gradient-48);
      }

      .cls-77 {
        fill: url(#linear-gradient-14);
      }

      .cls-78 {
        fill: url(#linear-gradient-18);
      }

      .cls-79 {
        fill: url(#linear-gradient-22);
      }

      .cls-80 {
        fill: url(#linear-gradient-20);
      }

      .cls-81 {
        fill: url(#linear-gradient-21);
      }

      .cls-82 {
        fill: url(#linear-gradient-23);
      }

      .cls-83 {
        fill: url(#linear-gradient-15);
      }

      .cls-84 {
        fill: url(#linear-gradient-19);
      }

      .cls-85 {
        fill: url(#linear-gradient-16);
      }

      .cls-86 {
        fill: url(#linear-gradient-17);
      }

      .cls-87 {
        fill: url(#linear-gradient-13);
      }

      .cls-88 {
        fill: url(#linear-gradient-12);
      }

      .cls-89 {
        fill: url(#linear-gradient-10);
      }

      .cls-90 {
        fill: url(#linear-gradient-11);
      }

      .cls-91 {
        fill: url(#linear-gradient-27);
      }

      .cls-92 {
        fill: url(#linear-gradient-24);
      }

      .cls-93 {
        fill: url(#linear-gradient-26);
      }

      .cls-94 {
        fill: url(#linear-gradient-38);
      }

      .cls-95 {
        fill: url(#linear-gradient-35);
      }

      .cls-96 {
        fill: url(#linear-gradient-37);
      }

      .cls-97 {
        fill: url(#linear-gradient-34);
      }

      .cls-98 {
        fill: url(#linear-gradient-39);
      }

      .cls-99 {
        fill: url(#linear-gradient-36);
      }

      .cls-100 {
        fill: url(#linear-gradient-25);
      }

      .cls-101 {
        fill: url(#linear-gradient-28);
      }

      .cls-102 {
        fill: url(#linear-gradient-29);
      }

      .cls-103 {
        fill: url(#linear-gradient-33);
      }

      .cls-104 {
        fill: url(#linear-gradient-30);
      }

      .cls-105 {
        fill: url(#linear-gradient-32);
      }

      .cls-106 {
        fill: url(#linear-gradient-31);
      }

      .cls-107 {
        isolation: isolate;
      }
    </style>
    <linearGradient id="linear-gradient" x1="219.71" y1="531.97" x2="219.83" y2="510.78" gradientUnits="userSpaceOnUse">
      <stop offset="0" stop-color="#ffe8c0"/>
      <stop offset=".12" stop-color="#f6c468"/>
      <stop offset="1" stop-color="#ff4963"/>
    </linearGradient>
    <linearGradient id="linear-gradient-2" x1="219.34" y1="532.51" x2="219.42" y2="518.75" gradientUnits="userSpaceOnUse">
      <stop offset="0" stop-color="#ffe8c0"/>
      <stop offset=".36" stop-color="#f6c468"/>
      <stop offset="1" stop-color="#ff4963"/>
    </linearGradient>
    <linearGradient id="linear-gradient-3" x1="58.52" y1="42.46" x2="87.59" y2="42.46" gradientUnits="userSpaceOnUse">
      <stop offset="0" stop-color="#000"/>
      <stop offset="1" stop-color="#fff"/>
    </linearGradient>
    <linearGradient id="linear-gradient-4" x1="66.46" y1="34.38" x2="130.32" y2="34.38" xlink:href="#linear-gradient-3"/>
    <linearGradient id="linear-gradient-5" x1="123.97" y1="17.72" x2="130.32" y2="17.72" xlink:href="#linear-gradient-3"/>
    <linearGradient id="linear-gradient-6" x1="131.4" y1="16.08" x2="160.02" y2="16.08" xlink:href="#linear-gradient-3"/>
    <linearGradient id="linear-gradient-7" x1="141.66" y1="13.54" x2="189.17" y2="13.54" xlink:href="#linear-gradient-3"/>
    <linearGradient id="linear-gradient-8" x1="187.04" y1="8.28" x2="217.05" y2="8.28" xlink:href="#linear-gradient-3"/>
    <linearGradient id="linear-gradient-9" x1="130.8" y1="15.48" x2="131.4" y2="15.48" xlink:href="#linear-gradient-3"/>
    <linearGradient id="linear-gradient-10" x1="217.05" y1="16.73" x2="217.53" y2="16.73" xlink:href="#linear-gradient-3"/>
    <linearGradient id="linear-gradient-11" x1="171.1" y1="35.86" x2="215.26" y2="51.41" xlink:href="#linear-gradient-3"/>
    <linearGradient id="linear-gradient-12" x1="130.84" y1="50.05" x2="168.78" y2="59.38" xlink:href="#linear-gradient-3"/>
    <linearGradient id="linear-gradient-13" x1="97.51" y1="48.21" x2="129.23" y2="62.51" xlink:href="#linear-gradient-3"/>
    <linearGradient id="linear-gradient-14" x1="57.64" y1="75.18" x2="80.65" y2="85.76" xlink:href="#linear-gradient-3"/>
    <linearGradient id="linear-gradient-15" x1="27" y1="92.2" x2="57.46" y2="103.29" xlink:href="#linear-gradient-3"/>
    <linearGradient id="linear-gradient-16" x1="-.14" y1="120.7" x2="49.45" y2="120.7" xlink:href="#linear-gradient-3"/>
    <linearGradient id="linear-gradient-17" x1="13.42" y1="163.3" x2="14.14" y2="163.3" xlink:href="#linear-gradient-3"/>
    <linearGradient id="linear-gradient-18" x1="13.42" y1="163.3" x2="14.14" y2="163.3" xlink:href="#linear-gradient-3"/>
    <linearGradient id="linear-gradient-19" x1="164.46" y1="110.76" x2="217.05" y2="110.76" xlink:href="#linear-gradient-3"/>
    <linearGradient id="linear-gradient-20" x1="118.4" y1="119.7" x2="167.56" y2="119.7" xlink:href="#linear-gradient-3"/>
    <linearGradient id="linear-gradient-21" x1="74.68" y1="133.07" x2="120.58" y2="133.07" xlink:href="#linear-gradient-3"/>
    <linearGradient id="linear-gradient-22" x1="42.14" y1="154.93" x2="75.72" y2="157.41" xlink:href="#linear-gradient-3"/>
    <linearGradient id="linear-gradient-23" x1="15.74" y1="181.31" x2="40.61" y2="180.69" xlink:href="#linear-gradient-3"/>
    <linearGradient id="linear-gradient-24" x1="1.27" y1="200.88" x2="17.44" y2="199.01" xlink:href="#linear-gradient-3"/>
    <linearGradient id="linear-gradient-25" x1="13.42" y1="163.3" x2="14.14" y2="163.3" xlink:href="#linear-gradient-3"/>
    <linearGradient id="linear-gradient-26" x1="164.65" y1="184.72" x2="217.05" y2="184.72" xlink:href="#linear-gradient-3"/>
    <linearGradient id="linear-gradient-27" x1="120.58" y1="192.77" x2="168.42" y2="192.77" xlink:href="#linear-gradient-3"/>
    <linearGradient id="linear-gradient-28" x1="75.57" y1="209.52" x2="131.25" y2="209.52" xlink:href="#linear-gradient-3"/>
    <linearGradient id="linear-gradient-29" x1="49.63" y1="228.85" x2="87.66" y2="228.85" xlink:href="#linear-gradient-3"/>
    <linearGradient id="linear-gradient-30" x1="20.97" y1="256.69" x2="73.07" y2="256.69" xlink:href="#linear-gradient-3"/>
    <linearGradient id="linear-gradient-31" x1="23.45" y1="269.04" x2="37.76" y2="265.31" xlink:href="#linear-gradient-3"/>
    <linearGradient id="linear-gradient-32" x1="346.43" y1="42.46" x2="375.5" y2="42.46" gradientUnits="userSpaceOnUse">
      <stop offset="0" stop-color="#fff"/>
      <stop offset="1" stop-color="#000"/>
    </linearGradient>
    <linearGradient id="linear-gradient-33" x1="303.7" y1="34.38" x2="367.55" y2="34.38" xlink:href="#linear-gradient-32"/>
    <linearGradient id="linear-gradient-34" x1="303.7" y1="17.72" x2="310.04" y2="17.72" xlink:href="#linear-gradient-32"/>
    <linearGradient id="linear-gradient-35" x1="273.99" y1="16.08" x2="302.62" y2="16.08" xlink:href="#linear-gradient-32"/>
    <linearGradient id="linear-gradient-36" x1="244.85" y1="13.54" x2="292.35" y2="13.54" xlink:href="#linear-gradient-32"/>
    <linearGradient id="linear-gradient-37" x1="216.97" y1="8.28" x2="246.97" y2="8.28" xlink:href="#linear-gradient-32"/>
    <linearGradient id="linear-gradient-38" x1="302.62" y1="15.48" x2="303.21" y2="15.48" xlink:href="#linear-gradient-32"/>
    <linearGradient id="linear-gradient-39" x1="216.48" y1="16.73" x2="216.97" y2="16.73" xlink:href="#linear-gradient-32"/>
    <linearGradient id="linear-gradient-40" x1="209.28" y1="39.42" x2="252.34" y2="54.58" xlink:href="#linear-gradient-32"/>
    <linearGradient id="linear-gradient-41" x1="239.72" y1="45.48" x2="315.46" y2="64.1" xlink:href="#linear-gradient-32"/>
    <linearGradient id="linear-gradient-42" x1="284.13" y1="49.97" x2="339.16" y2="74.78" xlink:href="#linear-gradient-32"/>
    <linearGradient id="linear-gradient-43" x1="304.41" y1="62.3" x2="379.2" y2="96.66" xlink:href="#linear-gradient-32"/>
    <linearGradient id="linear-gradient-44" x1="353.97" y1="89.79" x2="424.43" y2="115.44" xlink:href="#linear-gradient-32"/>
    <linearGradient id="linear-gradient-45" x1="384.57" y1="120.7" x2="434.16" y2="120.7" xlink:href="#linear-gradient-32"/>
    <linearGradient id="linear-gradient-46" x1="419.87" y1="163.3" x2="420.6" y2="163.3" xlink:href="#linear-gradient-32"/>
    <linearGradient id="linear-gradient-47" x1="419.87" y1="163.3" x2="420.6" y2="163.3" xlink:href="#linear-gradient-32"/>
    <linearGradient id="linear-gradient-48" x1="216.97" y1="110.76" x2="269.55" y2="110.76" xlink:href="#linear-gradient-32"/>
    <linearGradient id="linear-gradient-49" x1="266.45" y1="119.7" x2="315.62" y2="119.7" xlink:href="#linear-gradient-32"/>
    <linearGradient id="linear-gradient-50" x1="313.44" y1="133.07" x2="359.34" y2="133.07" xlink:href="#linear-gradient-32"/>
    <linearGradient id="linear-gradient-51" x1="350.85" y1="155.35" x2="394.05" y2="158.55" xlink:href="#linear-gradient-32"/>
    <linearGradient id="linear-gradient-52" x1="385.28" y1="181.43" x2="412.54" y2="180.75" xlink:href="#linear-gradient-32"/>
    <linearGradient id="linear-gradient-53" x1="406.57" y1="200.1" x2="427.74" y2="197.66" xlink:href="#linear-gradient-32"/>
    <linearGradient id="linear-gradient-54" x1="419.87" y1="163.3" x2="420.6" y2="163.3" xlink:href="#linear-gradient-32"/>
    <linearGradient id="linear-gradient-55" x1="216.97" y1="184.72" x2="269.36" y2="184.72" xlink:href="#linear-gradient-32"/>
    <linearGradient id="linear-gradient-56" x1="265.6" y1="192.77" x2="313.44" y2="192.77" xlink:href="#linear-gradient-32"/>
    <linearGradient id="linear-gradient-57" x1="302.76" y1="209.52" x2="358.44" y2="209.52" xlink:href="#linear-gradient-32"/>
    <linearGradient id="linear-gradient-58" x1="346.35" y1="228.85" x2="384.38" y2="228.85" xlink:href="#linear-gradient-32"/>
    <linearGradient id="linear-gradient-59" x1="360.94" y1="256.69" x2="413.04" y2="256.69" xlink:href="#linear-gradient-32"/>
    <linearGradient id="linear-gradient-60" x1="385.87" y1="270.71" x2="418.96" y2="262.08" xlink:href="#linear-gradient-32"/>
    <linearGradient id="linear-gradient-61" x1="216.97" y1="258.22" x2="265.6" y2="258.22" xlink:href="#linear-gradient-32"/>
    <linearGradient id="linear-gradient-62" x1="258.63" y1="269.29" x2="292.75" y2="257.92" xlink:href="#linear-gradient-32"/>
    <linearGradient id="linear-gradient-63" x1="293.78" y1="283.51" x2="342.44" y2="275.73" xlink:href="#linear-gradient-32"/>
    <linearGradient id="linear-gradient-64" x1="322.07" y1="297.65" x2="359.29" y2="284.57" xlink:href="#linear-gradient-32"/>
    <linearGradient id="linear-gradient-65" x1="343.52" y1="321.03" x2="381.74" y2="306.33" xlink:href="#linear-gradient-32"/>
    <linearGradient id="linear-gradient-66" x1="343.78" y1="343.29" x2="380.83" y2="315.5" xlink:href="#linear-gradient-32"/>
    <linearGradient id="linear-gradient-67" x1="216.97" y1="330.92" x2="257.94" y2="330.92" xlink:href="#linear-gradient-32"/>
    <linearGradient id="linear-gradient-68" x1="244.56" y1="336.57" x2="286.55" y2="329.17" xlink:href="#linear-gradient-32"/>
    <linearGradient id="linear-gradient-69" x1="255.26" y1="352.26" x2="330.11" y2="339.06" xlink:href="#linear-gradient-32"/>
    <linearGradient id="linear-gradient-70" x1="287.14" y1="353.61" x2="331.29" y2="345.83" xlink:href="#linear-gradient-32"/>
    <linearGradient id="linear-gradient-71" x1="289.24" y1="387.38" x2="363.85" y2="344.3" xlink:href="#linear-gradient-32"/>
    <linearGradient id="linear-gradient-72" x1="319.66" y1="378.98" x2="359.24" y2="355.23" xlink:href="#linear-gradient-32"/>
    <linearGradient id="linear-gradient-73" x1="259.45" y1="409.72" x2="302.3" y2="385.23" xlink:href="#linear-gradient-32"/>
    <linearGradient id="linear-gradient-74" x1="217.38" y1="393.92" x2="247.39" y2="390.05" xlink:href="#linear-gradient-32"/>
    <linearGradient id="linear-gradient-75" x1="226" y1="398.09" x2="245.68" y2="391.2" xlink:href="#linear-gradient-32"/>
    <linearGradient id="linear-gradient-76" x1="259.13" y1="404.17" x2="296.42" y2="387.86" xlink:href="#linear-gradient-32"/>
    <linearGradient id="linear-gradient-77" x1="283.32" y1="419" x2="323.37" y2="385.62" xlink:href="#linear-gradient-32"/>
    <linearGradient id="linear-gradient-78" x1="287.03" y1="424.09" x2="322.18" y2="393.96" xlink:href="#linear-gradient-32"/>
    <linearGradient id="linear-gradient-79" x1="168.42" y1="258.22" x2="217.05" y2="258.22" xlink:href="#linear-gradient-3"/>
    <linearGradient id="linear-gradient-80" x1="136.29" y1="271.12" x2="173.61" y2="258.68" xlink:href="#linear-gradient-3"/>
    <linearGradient id="linear-gradient-81" x1="104.12" y1="282.12" x2="135.22" y2="277.15" xlink:href="#linear-gradient-3"/>
    <linearGradient id="linear-gradient-82" x1="80.12" y1="297.23" x2="103.14" y2="289.14" xlink:href="#linear-gradient-3"/>
    <linearGradient id="linear-gradient-83" x1="67.12" y1="317.77" x2="83.29" y2="311.55" xlink:href="#linear-gradient-3"/>
    <linearGradient id="linear-gradient-84" x1="53" y1="327.33" x2="62.95" y2="319.87" xlink:href="#linear-gradient-3"/>
    <linearGradient id="linear-gradient-85" x1="176.07" y1="330.92" x2="217.05" y2="330.92" xlink:href="#linear-gradient-3"/>
    <linearGradient id="linear-gradient-86" x1="151.57" y1="337.85" x2="185.48" y2="331.87" xlink:href="#linear-gradient-3"/>
    <linearGradient id="linear-gradient-87" x1="118.81" y1="349.63" x2="163.84" y2="341.69" xlink:href="#linear-gradient-3"/>
    <linearGradient id="linear-gradient-88" x1="104.52" y1="353.27" x2="136.66" y2="347.61" xlink:href="#linear-gradient-3"/>
    <linearGradient id="linear-gradient-89" x1="95.93" y1="373.18" x2="117.83" y2="360.54" xlink:href="#linear-gradient-3"/>
    <linearGradient id="linear-gradient-90" x1="84.54" y1="369.48" x2="93.87" y2="363.88" xlink:href="#linear-gradient-3"/>
    <linearGradient id="linear-gradient-91" x1="146.86" y1="403.8" x2="157.75" y2="397.58" xlink:href="#linear-gradient-3"/>
    <linearGradient id="linear-gradient-92" x1="195.01" y1="391.82" x2="214.29" y2="389.34" xlink:href="#linear-gradient-3"/>
    <linearGradient id="linear-gradient-93" x1="177.86" y1="396.52" x2="190.3" y2="392.16" xlink:href="#linear-gradient-3"/>
    <linearGradient id="linear-gradient-94" x1="161.69" y1="398.12" x2="171.64" y2="393.76" xlink:href="#linear-gradient-3"/>
    <linearGradient id="linear-gradient-95" x1="133.9" y1="408.09" x2="141.36" y2="401.87" xlink:href="#linear-gradient-3"/>
    <linearGradient id="linear-gradient-96" x1="123.85" y1="410.63" x2="128.2" y2="406.9" xlink:href="#linear-gradient-3"/>
  </defs>
  <g class="cls-107">
    <g id="Layer_1" data-name="Layer 1">
      <g>
        <g>
          <path class="cls-9" d="m229.45,532.95h-18.37c-2.9,0-5.36,1.56-5.99,3.78l-5.39,19,2.25.64,5.39-19c.34-1.19,1.94-2.08,3.74-2.08h18.37c1.77,0,3.38.88,3.73,2.05l5.79,19.05,2.24-.68-5.79-19.05c-.67-2.19-3.12-3.71-5.97-3.71Z"/>
          <g>
            <path class="cls-1" d="m225.46,514.45c-1.11,0-2.62,6.7-2.62,6.7,0,0-1.41-10.33-2.92-10.25-1.51.08-3.02,9.52-3.02,9.52,0,0-1.91-7.02-3.42-6.94-1.51.08-2.77,15.18-1.01,17.11,2.21,2.42,11.88,2.5,14.39.4,2.52-2.1-.3-16.55-1.41-16.55Z"/>
            <path class="cls-16" d="m223.08,521.13c-.72,0-1.7,4.35-1.7,4.35,0,0-.92-6.71-1.9-6.66-.98.05-1.96,6.19-1.96,6.19,0,0-1.24-4.56-2.22-4.51-.98.05-1.8,9.86-.65,11.12,1.44,1.57,7.72,1.63,9.35.26,1.63-1.36-.2-10.75-.92-10.75Z"/>
          </g>
          <polygon class="cls-9" points="173.13 479.77 208.69 534.87 209.47 534.37 173.91 479.27 173.13 479.77"/>
          <rect class="cls-9" x="214.38" y="506.24" width="63.18" height=".93" transform="translate(-316.18 471.59) rotate(-60.53)"/>
          <rect class="cls-9" x="197.06" y="504.93" width="57.59" height=".93" transform="translate(-294.19 695.1) rotate(-85.96)"/>
          <polygon class="cls-9" points="173.07 479.65 196.02 556.18 196.91 555.91 173.96 479.38 173.07 479.65"/>
          <polygon class="cls-9" points="244.63 553.89 245.54 554.09 261.99 479.31 261.08 479.11 244.63 553.89"/>
          <polygon class="cls-9" points="200.37 477 214.99 534.23 215.89 534 201.27 476.77 200.37 477"/>
          <path class="cls-10" d="m243.07,553.33h-45.24c-1.91,0-3.47,1.56-3.47,3.47l3.44,30.31c0,1.91,1.36,3.47,3.01,3.47h39.26c1.66,0,3.01-1.56,3.01-3.47l3.44-30.31c0-1.91-1.56-3.47-3.47-3.47Z"/>
          <path class="cls-11" d="m241.37,559.42h3.02c1.66,0,3,1.35,3,3v9.44c0,1.66-1.35,3-3,3h-3.02c-1.66,0-3-1.35-3-3v-9.44c0-1.66,1.35-3,3-3Z"/>
          <rect class="cls-11" x="223.27" y="559.42" width="9.03" height="15.44" rx="3.33" ry="3.33"/>
          <rect class="cls-11" x="208.19" y="559.42" width="9.03" height="15.44" rx="3.53" ry="3.53"/>
          <path class="cls-11" d="m196.52,559.42h2.18c1.89,0,3.42,1.53,3.42,3.42v8.6c0,1.89-1.53,3.42-3.42,3.42h-2.18c-1.89,0-3.42-1.53-3.42-3.42v-8.6c0-1.89,1.53-3.42,3.42-3.42Z"/>
        </g>
        <g>
          <g>
            <g>
              <path class="cls-8" d="m66.35,52.91l.07-.04h.04c5.25-7.22,12.8-14.94,21.12-20.86-9.85,3.77-19.82,9.63-29.07,17.69l7.84,3.21Z"/>
              <path class="cls-8" d="m66.46,52.88c60.34-34.93,57.13-33.04,57.51-33.33,2.09-1.31,4.18-2.57,6.34-3.66-22.2,2.37-41.47,12.64-54.75,26.38-2.86,2.86-6.62,7.18-9.11,10.6Z"/>
              <path class="cls-8" d="m130.32,15.89c-2.16,1.08-4.25,2.35-6.34,3.66l6.34-3.66Z"/>
              <path class="cls-8" d="m141.66,25.15c.4-.4,2.95-5.01,8.47-10.52.11-.11.22-.26.34-.34.11-.15.22-.22.34-.34.55-.55,1.12-1.08,1.94-1.75,1.83-1.64,4.34-3.53,7.28-5.19-10.04,1.12-19.67,3.84-28.62,8.36l10.26,9.78Z"/>
              <path class="cls-8" d="m160.02,7.01c-11.5,6.5-17.72,17.5-18.36,18.14C196.48.22,184.78,5.75,189.17,2.98c-10.93-2.28-20.64-.78-29.15,4.03Z"/>
              <path class="cls-8" d="m196.22.26c-3.71.64-6.49,2.13-9.18,4.25l30,12.05v-8.51s-8.55-9.74-20.82-7.8Z"/>
              <path class="cls-8" d="m130.8,15.63c.19-.07.37-.19.6-.26l-.04-.04-.56.3Z"/>
              <path class="cls-8" d="m367.63,52.88h.04l.07.04,7.84-3.21c-9.26-8.06-19.22-13.92-29.07-17.69,8.32,5.92,15.87,13.64,21.12,20.86Z"/>
              <path class="cls-8" d="m303.78,15.89c2.16,1.08,4.25,2.35,6.34,3.66.37.28-2.84-1.6,57.51,33.33-2.49-3.42-6.24-7.74-9.11-10.6-13.27-13.75-32.54-24.01-54.75-26.38Z"/>
              <path class="cls-8" d="m310.12,19.55c-2.09-1.31-4.18-2.57-6.34-3.66l6.34,3.66Z"/>
              <path class="cls-8" d="m281.35,12.2c.82.68,1.39,1.21,1.94,1.75.11.11.22.19.34.34.11.07.22.22.34.34,5.52,5.52,8.07,10.13,8.47,10.52l10.26-9.78c-8.96-4.52-18.58-7.24-28.62-8.36,2.94,1.66,5.45,3.54,7.28,5.19Z"/>
              <path class="cls-8" d="m274.07,7.01c-8.51-4.81-18.21-6.31-29.15-4.03,4.39,2.77-7.31-2.76,47.51,22.17-.64-.64-6.86-11.64-18.36-18.14Z"/>
              <path class="cls-8" d="m217.05,8.06v8.51l30-12.05c-2.69-2.12-5.47-3.62-9.18-4.25-12.28-1.94-20.82,7.8-20.82,7.8Z"/>
              <path class="cls-8" d="m302.69,15.37c.22.07.41.19.6.26l-.56-.3-.04.04Z"/>
            </g>
            <g>
              <path class="cls-4" d="m167.56,57.35l49.48,32.95V16.56c-4.7-5.01-22.8-11.53-30-12.05-12.65,10.29-17.4,36.67-19.48,52.84Z"/>
              <path class="cls-4" d="m137.3,32.61v.04c-5.54,11.07-10.4,23.88-14.37,46.05-1.03,5.15-2.65,18.56-2.65,19.44-.24,1.76-.2,1.9-.78,8.47h.04l48.03-49.26c2.09-16.21,6.83-42.56,19.48-52.84-27.35,6.69-37.75,14.84-45.57,20.97-1.02,1.53-2.21,3.43-4.18,7.13Z"/>
              <path class="cls-4" d="m131.4,15.37c-.64.21-2.85,1.54-7.43,4.18-.39.3-2.88,1.78-6.34,4.55-.43.22-5.09,4.23-5.63,4.78-5.03,4.75-9.66,10.26-13.55,16.08-2.76,3.99-5.68,9.36-7.84,13.77h-.04c-.23.59-5.33,10.55-9.14,25.34,9.12,1.36,32.8,13.49,38.07,22.54.26-2.86,1.04-12.27,1.9-17.88,0-1.29,2.39-15.69,3.62-20.6,4.21-18.4,8.05-27.04,12.28-35.49v-.04c2.08-3.89,3.26-5.74,4.18-7.13.04-.11.11-.22.19-.34.95-4.07-5.56-8.9-10.26-9.78Z"/>
              <path class="cls-4" d="m66.46,52.88h-.04c-.25.37-3.44,4.33-8.14,12.65v.04c-2.39,4.22-4.42,8.73-6.19,12.95-5.3,12.64-9.5,30.59-10.75,42.54,0,.11-.04.19-.04.3-.22,1.49-.37,3.02-.52,4.59,0,1.19-1.23,8.07-1.23,26.53l41.83-68.4h.04c3.72-14.43,8.82-24.52,9.14-25.34h.04c6.73-14.31,17.46-28.29,30.49-37.24.6-.41,1.19-.82,1.79-1.23.22-.15.41-.26.63-.41-14.09-.57-48.72,19.32-57.06,33.03Z"/>
              <path class="cls-4" d="m58.52,49.7c-9.61,8.24-18.4,19.16-24.71,30.08-1.61,2.86-1.64,2.75-2.13,3.84-6.86,12.28-12.9,29.38-15.9,48.37.05,3.94,12.24,18.84,23.77,20.49,0-15.11,1.12-27.64,2.05-33.51.04-.34.11-.63.15-.97,1.93-14.9,6.82-33.19,13.77-47.1.22-.66,2.27-4.48,2.76-5.34v-.04c5.68-10.07,8.5-12.83,8.06-12.61.14-3.46-4.61-4.71-7.84-3.21Z"/>
              <path class="cls-4" d="m0,182.89l15.75-50.94.04.04c2.69-17.04,8.26-35.13,16.87-50.19.61-1.21,4.71-7.93,6.12-9.85,4.55-6.65,7.55-10,10.67-13.44C10.19,87.15-1.63,134.75,0,182.89Z"/>
            </g>
            <g>
              <path class="cls-4" d="m247.05,4.51c-7.2.52-25.31,7.05-30,12.05v73.74l49.48-32.95c-2.08-16.17-6.83-42.55-19.48-52.84Z"/>
              <path class="cls-4" d="m311.16,78.7c-3.96-22.17-8.83-34.98-14.37-46.05v-.04c-1.97-3.7-3.16-5.6-4.18-7.13-7.82-6.13-18.21-14.28-45.57-20.97,12.65,10.29,17.39,36.63,19.48,52.84l48.03,49.26h.04c-.58-6.57-.55-6.71-.78-8.47,0-.88-1.62-14.3-2.65-19.44Z"/>
              <path class="cls-4" d="m343.48,58.73c-2.16-4.41-5.08-9.78-7.84-13.77-3.88-5.82-8.51-11.33-13.55-16.08-.54-.55-5.2-4.56-5.63-4.78-3.47-2.77-5.95-4.26-6.34-4.55-4.57-2.64-6.79-3.97-7.43-4.18-4.7.88-11.21,5.71-10.26,9.78.07.11.15.22.19.34.92,1.39,2.1,3.24,4.18,7.13v.04c4.22,8.45,8.06,17.09,12.28,35.49,1.23,4.91,3.62,19.31,3.62,20.6.86,5.61,1.65,15.01,1.9,17.88,5.26-9.05,28.94-21.18,38.07-22.54-3.82-14.79-8.91-24.75-9.14-25.34h-.04Z"/>
              <path class="cls-4" d="m392.78,121.36c0-.11-.04-.19-.04-.3-1.25-11.95-5.45-29.91-10.75-42.54-1.78-4.22-3.8-8.73-6.19-12.95v-.04c-4.69-8.32-7.89-12.28-8.14-12.65h-.04c-8.34-13.7-42.97-33.6-57.06-33.03.22.15.41.26.63.41.6.41,1.19.82,1.79,1.23,13.03,8.95,23.76,22.94,30.49,37.24h.04c.33.82,5.42,10.91,9.14,25.34h.04l41.83,68.4c0-18.47-1.23-25.35-1.23-26.53-.15-1.57-.3-3.1-.52-4.59Z"/>
              <path class="cls-4" d="m400.28,79.78c-6.3-10.92-15.09-21.84-24.71-30.08-3.22-1.5-7.98-.25-7.84,3.21-.44-.22,2.38,2.55,8.06,12.61v.04c.49.86,2.54,4.68,2.76,5.34,6.95,13.9,11.85,32.19,13.77,47.1.04.34.11.64.15.97.93,5.87,2.05,18.4,2.05,33.51,11.53-1.64,23.72-16.55,23.77-20.49-2.99-18.98-9.04-36.09-15.9-48.37-.49-1.1-.52-.98-2.13-3.84Z"/>
              <path class="cls-4" d="m384.64,58.51c3.13,3.44,6.12,6.78,10.67,13.44,1.41,1.92,5.51,8.64,6.12,9.85,8.61,15.07,14.18,33.15,16.87,50.19l.04-.04,15.75,50.94c1.63-48.14-10.19-95.75-49.45-124.38Z"/>
            </g>
            <g>
              <path class="cls-3" d="m14.14,180.95c-.97-12.58-.93-24.33,0-35.3-.93,10.97-1.01,22.73,0,35.3Z"/>
              <path class="cls-3" d="m14.14,180.95c-.97-12.58-.93-24.33,0-35.3-.93,10.97-1.01,22.73,0,35.3Z"/>
              <path class="cls-3" d="m167.56,57.35c-2.97,23.23-3.43,51.1-2.91,74.71,12.43,3.62,42.29,22.05,52.4,32.09v-73.85c-8.31-10.74-37.01-31.48-49.48-32.95Z"/>
              <path class="cls-3" d="m119.53,106.61h-.04c-2.05,28.42-.97,51.32,1.08,75.42l43.89-50.08c.44.26,0,1.14,0-14.59-.04-24.52,1.08-44.26,3.1-60.01-22.03,11.18-37.46,28.11-48.03,49.26Z"/>
              <path class="cls-3" d="m119.49,106.61c-5.85-10.25-29.76-21.99-38.07-22.54-4.97,18.75-6.75,38.75-6.75,57.99,0,7.42.44,18.25.9,23.96l45.01,16.05v-.04c-2.19-25.65-3.02-48.54-1.08-75.42Z"/>
              <path class="cls-3" d="m81.39,84.07c-24.89,14.35-36.03,39.71-41.83,68.4,0,10.61.93,23.63,2.13,34.22,1.36,13.22,4.13,28.54,7.95,42.54l25.94-63.22c-1.96-24.52-.94-58.16,5.86-81.95h-.04Z"/>
              <path class="cls-3" d="m39.56,152.48c-3.75-1.33-21.52-9.02-23.77-20.49-.12.83-.53,3.16-.78,5.52-3.46,27.29-1.06,57.51,5.93,83.41h.04c2.75,5.86,19.6,10.84,28.66,8.32-1.82-6.65-4.55-18.57-5.71-26.2-2.41-13.68-4.37-35.62-4.37-50.57Z"/>
              <path class="cls-3" d="m14.59,185.99c-2.06-23.12-1.28-36.73,1.19-54l-.04-.04C2.89,155.59,1.91,167.16,0,183.12c.99,25.7,6.35,52.07,19.67,82.89l1.27-45.08c-.97-3.59-3.09-12.69-4.44-20.82-.63-4.42-.62-2.98-1.9-14.11Z"/>
              <path class="cls-3" d="m14.14,180.95c-.97-12.58-.93-24.33,0-35.3-.93,10.97-1.01,22.73,0,35.3Z"/>
            </g>
            <g>
              <path class="cls-3" d="m419.95,180.95c1.01-12.58.93-24.33,0-35.3.93,10.97.97,22.73,0,35.3Z"/>
              <path class="cls-3" d="m419.95,180.95c1.01-12.58.93-24.33,0-35.3.93,10.97.97,22.73,0,35.3Z"/>
              <path class="cls-3" d="m217.05,90.31v73.85c10.11-10.04,39.96-28.48,52.4-32.09.52-23.61.06-51.48-2.91-74.71-12.48,1.48-41.17,22.21-49.48,32.95Z"/>
              <path class="cls-3" d="m314.56,106.61c-10.57-21.15-26-38.08-48.03-49.26,2.02,15.75,3.13,35.49,3.1,60.01,0,15.73-.44,14.85,0,14.59l43.89,50.08c2.05-24.1,3.13-47,1.08-75.42h-.04Z"/>
              <path class="cls-3" d="m314.6,106.61c1.94,26.89,1.1,49.77-1.08,75.42v.04l45.01-16.05c.46-5.71.9-16.54.9-23.96,0-19.25-1.78-39.24-6.75-57.99-8.3.55-32.21,12.29-38.07,22.54Z"/>
              <path class="cls-3" d="m352.7,84.07h-.04c6.8,23.79,7.82,57.43,5.86,81.95l25.94,63.22c3.82-14.01,6.59-29.33,7.95-42.54,1.2-10.59,2.13-23.61,2.13-34.22-5.8-28.69-16.94-54.06-41.83-68.4Z"/>
              <path class="cls-3" d="m418.31,131.99c-2.25,11.46-20.02,19.16-23.77,20.49,0,14.95-1.95,36.89-4.37,50.57-1.16,7.63-3.89,19.54-5.71,26.2,9.06,2.52,25.91-2.47,28.66-8.32h.04c6.99-25.9,9.39-56.12,5.93-83.41-.25-2.36-.66-4.69-.78-5.52Z"/>
              <path class="cls-3" d="m418.31,131.99c2.47,17.27,3.25,30.88,1.19,54-1.28,11.12-1.27,9.68-1.9,14.11-1.35,8.13-3.47,17.24-4.44,20.82l1.27,45.08c13.32-30.82,18.68-57.19,19.67-82.89-1.91-15.95-2.89-27.53-15.75-51.16l-.04.04Z"/>
              <path class="cls-3" d="m419.95,180.95c1.01-12.58.93-24.33,0-35.3.93,10.97.97,22.73,0,35.3Z"/>
            </g>
            <g>
              <path class="cls-5" d="m164.65,132.07c.46,23.92,2.09,52.61,3.77,73.44l48.63,31.87v-73.22c-8.99-10.78-41.17-29.86-52.4-32.09Z"/>
              <path class="cls-5" d="m164.46,131.95c-13.23,5.15-36.75,38.06-43.89,50.08,0,2.01,2.38,23.9,4.89,39.56.1,1.22,1.98,12.05,2.05,12.43.08.41,2.15,12.17,3.73,19.56l37.17-48.07c-1.72-21.28-3.32-49.87-3.77-73.44l-.19-.11Z"/>
              <path class="cls-5" d="m75.57,166.03c0,1.55,1.82,22.39,4.1,35.79.22,1.77,1.4,8.05,1.83,10.19,1.66,9.13,5.62,24.21,6.16,25.82,7.86,5.15,32.93,14.99,43.59,15.75-5.14-23.96-9.22-54.02-10.67-71.5-6.93-6.86-34.31-19.4-45.01-16.05Z"/>
              <path class="cls-5" d="m77.06,182.45c-.46-4.1-1.49-14.98-1.49-16.42-6.71,8.2-23.61,43.78-25.94,63.22,2.3,8.43,3.82,13.66,7.61,24.44,3.85,11.02,9.91,25.78,15.82,37.99l14.59-53.85c-.36-1.09-2.22-8.29-2.87-10.97-3.71-14.84-6.14-29.79-7.73-44.41Z"/>
              <path class="cls-5" d="m20.97,220.92c4.42,16.85,10.24,34.04,19.26,53.66.04.15.11.26.19.37,1.62,3.61,3.65,7.86,4.4,9.37,3.39,5.4,22.5,10.01,28.25,7.35-10.77-22.26-19.45-46.79-23.44-62.43-4.85.16-23.03-.19-28.66-8.32Z"/>
              <path class="cls-5" d="m20.97,220.92h-.04c-4.47,25.06-2.3,29.17-1.27,45.12,6.84,15.95,15.4,31.7,24.56,46.35l.6-28.06c-2.85-5.7-8.5-18.41-8.99-19.74-6.6-15.63-10.95-28.76-14.85-43.66Z"/>
            </g>
            <g>
              <path class="cls-5" d="m217.05,164.16v73.22l48.63-31.87c1.68-20.83,3.31-49.52,3.77-73.44-11.23,2.24-43.41,21.32-52.4,32.09Z"/>
              <path class="cls-5" d="m269.63,131.95l-.19.11c-.45,23.58-2.05,52.16-3.77,73.44l37.17,48.07c1.59-7.39,3.65-19.14,3.73-19.56.08-.38,1.95-11.21,2.05-12.43,2.5-15.66,4.89-37.55,4.89-39.56-7.14-12.03-30.65-44.93-43.89-50.08Z"/>
              <path class="cls-5" d="m313.52,182.07c-1.45,17.48-5.53,47.54-10.67,71.5,10.66-.76,35.72-10.59,43.59-15.75.54-1.61,4.5-16.69,6.16-25.82.42-2.14,1.61-8.41,1.83-10.19,2.29-13.4,4.1-34.24,4.1-35.79-10.7-3.35-38.08,9.19-45.01,16.05Z"/>
              <path class="cls-5" d="m357.03,182.45c-1.59,14.62-4.02,29.57-7.73,44.41-.66,2.68-2.51,9.88-2.87,10.97l14.59,53.85c5.91-12.21,11.98-26.97,15.82-37.99,3.79-10.79,5.31-16.01,7.61-24.44-2.33-19.44-19.23-55.02-25.94-63.22,0,1.43-1.04,12.32-1.49,16.42Z"/>
              <path class="cls-5" d="m384.46,229.24c-3.98,15.65-12.66,40.18-23.44,62.43,5.75,2.66,24.86-1.95,28.25-7.35.75-1.51,2.78-5.76,4.4-9.37.07-.11.15-.22.19-.37,9.01-19.62,14.84-36.81,19.26-53.66-5.64,8.13-23.81,8.48-28.66,8.32Z"/>
              <path class="cls-5" d="m413.12,220.92c-3.91,14.91-8.26,28.04-14.85,43.66-.5,1.33-6.14,14.04-8.99,19.74l.6,28.06c9.16-14.65,17.72-30.4,24.56-46.35,1.03-15.95,3.2-20.06-1.27-45.12h-.04Z"/>
            </g>
            <g>
              <path class="cls-3" d="m168.42,205.51c1.76,24.56,5.18,53.01,7.61,72.96,6.81,11.28,17.43,25.95,41.01,32.47v-73.56c-8.74-10.07-40.53-25.78-48.63-31.87Z"/>
              <path class="cls-3" d="m131.25,253.58c3.78,18.89,10.55,45.6,17.5,68.29,13.62-10.22,28-40.46,27.28-43.4-2.48-20.39-5.87-48.53-7.61-72.96-9.46,6.62-29.85,36.16-37.17,48.07Z"/>
              <path class="cls-3" d="m87.66,237.83c.97,4.85,10.82,36.64,22.76,64.3v-.07c7.07,7.56,29.18,20.25,38.33,19.85v-.04c-7.43-24.23-13.95-50.55-17.5-68.29-9.64-1.99-35.57-10.25-43.59-15.75Z"/>
              <path class="cls-3" d="m100.76,277.91c-4.38-12.04-6.93-19-10.93-32.58-.9-2.95-2.08-7.06-2.16-7.5-6.23,9.22-12.48,41.16-14.59,53.85,8.58,18.1,20.24,38.77,30.15,54.19,2.73-6.58,8.11-31.49,7.2-43.74-2.96-6.86-7.06-17.47-9.66-24.22Z"/>
              <path class="cls-3" d="m44.82,284.33s.04.11.07.15c8.88,17.96,18.14,34.02,29.78,51.95h.04c4.16,3.45,21.77,10,28.51,9.48v-.04c-9.38-14.59-21.39-35.72-30.15-54.19-6,1.11-22.13-.5-28.25-7.35Z"/>
              <path class="cls-3" d="m44.82,284.33c-2.09,4.07-2.44,18.17-.6,28.06,7.97,12.8,19.36,29.13,32.92,45.98l-2.46-21.94c-21.38-32.91-29.24-51.47-29.86-52.1Z"/>
            </g>
            <g>
              <path class="cls-3" d="m216.77,237.38v73.56c23.58-6.52,34.2-21.19,41.01-32.47,2.43-19.94,5.86-48.4,7.61-72.96-8.1,6.09-39.89,21.8-48.63,31.87Z"/>
              <path class="cls-3" d="m265.39,205.51c-1.75,24.43-5.13,52.57-7.61,72.96-.72,2.94,13.66,33.18,27.28,43.4,6.96-22.69,13.72-49.41,17.5-68.29-7.32-11.91-27.71-41.44-37.17-48.07Z"/>
              <path class="cls-3" d="m285.06,321.87v.04c9.14.39,31.25-12.29,38.33-19.85v.07c11.94-27.66,21.79-59.45,22.76-64.3-8.02,5.49-33.95,13.75-43.59,15.75-3.55,17.74-10.08,44.06-17.5,68.29Z"/>
              <path class="cls-3" d="m343.98,245.33c-4.01,13.57-6.55,20.54-10.93,32.58-2.6,6.75-6.7,17.36-9.66,24.22-.91,12.25,4.47,37.15,7.2,43.74,9.92-15.42,21.57-36.09,30.15-54.19-2.11-12.69-8.37-44.63-14.59-53.85-.09.44-1.26,4.55-2.16,7.5Z"/>
              <path class="cls-3" d="m360.74,291.68c-8.76,18.47-20.77,39.6-30.15,54.19v.04c6.75.52,24.36-6.03,28.51-9.48h.04c11.64-17.93,20.9-33.99,29.78-51.95.04-.04.04-.11.07-.15-6.12,6.85-22.25,8.47-28.25,7.35Z"/>
              <path class="cls-3" d="m359.14,336.42l-2.46,21.94c13.55-16.84,24.95-33.17,32.92-45.98,1.84-9.89,1.49-23.99-.6-28.06-.62.63-8.48,19.18-29.86,52.1Z"/>
            </g>
            <g>
              <path class="cls-8" d="m176.07,278.51c2.89,23.1,6.95,51.37,10.19,71.8,4.06,9.76,21.66,28.95,30.79,33.03v-72.4c-11.22-1.65-35.02-23.4-40.98-32.43Z"/>
              <path class="cls-8" d="m176.03,278.47c-3.95,12.91-21.85,36.6-27.28,43.4,0,.37,5.21,16.57,5.34,16.94,7.34,22.36,12.59,35.97,17.17,47.95.34.86.63,1.68.97,2.5,4.35-1.89,14.35-24.12,14.03-38.96-3.19-20.11-7.26-48.42-10.19-71.8l-.04-.04Z"/>
              <path class="cls-8" d="m148.75,321.91c-11.03-.21-31.83-15.56-38.33-19.85,0,.48,7.86,18.05,11.38,25.56,6.6,13.98,11.46,23.64,17.32,34.89,5.88,7.57,24.09,24.04,33.1,26.76-.26-.64-3.62-9.38-4.66-12.17-13.5-36.41-17.09-50.05-18.81-55.19Z"/>
              <path class="cls-8" d="m110.43,302.13c-2.78,26.15-4.33,37.05-7.2,43.77,2.61,4.11,5.19,8.1,7.76,11.98h.04c11.03,16.55,16.8,24.47,28.03,39.41,1.73-5.61,2.69-26.04.07-34.78-10.78-20.71-19.94-39.76-28.7-60.38Z"/>
              <path class="cls-8" d="m110.99,357.88c-2.58-3.88-5.15-7.87-7.76-11.98-4.96-.23-22.08-4.22-28.51-9.48,10.15,15.6,22.1,31.92,31.95,44.3,4.78,6.27,23.55,16.24,32.39,16.57-12.83-17.09-18.14-24.58-28.03-39.41h-.04Z"/>
              <path class="cls-8" d="m74.71,336.42h-.04c.29,3.27.08,16.07,2.46,21.94,10.08,12.5,20.67,24.56,31.24,35.79l-1.72-13.43c-9.98-12.54-21.91-28.87-31.95-44.3Z"/>
            </g>
            <g>
              <path class="cls-8" d="m216.58,310.94v72.4c9.12-4.08,26.73-23.27,30.79-33.03,3.24-20.43,7.29-48.7,10.19-71.8-5.95,9.03-29.76,30.78-40.98,32.43Z"/>
              <path class="cls-8" d="m257.56,278.51c-2.93,23.38-7,51.69-10.19,71.8-.32,14.85,9.68,37.07,14.03,38.96.34-.82.63-1.64.97-2.5,4.58-11.99,9.83-25.59,17.17-47.95.12-.37,5.34-16.57,5.34-16.94-5.43-6.81-23.33-30.49-27.28-43.4l-.04.04Z"/>
              <path class="cls-8" d="m266.07,377.1c-1.05,2.79-4.4,11.52-4.66,12.17,9.01-2.72,27.22-19.19,33.1-26.76,5.86-11.25,10.72-20.91,17.32-34.89,3.52-7.52,11.38-25.08,11.38-25.56-6.49,4.3-27.3,19.64-38.33,19.85-1.72,5.15-5.31,18.78-18.81,55.19Z"/>
              <path class="cls-8" d="m294.51,362.51c-2.62,8.75-1.66,29.17.07,34.78,11.22-14.94,17-22.86,28.03-39.41h.04c2.58-3.88,5.15-7.87,7.76-11.98-2.87-6.72-4.42-17.62-7.2-43.77-8.76,20.62-17.92,39.68-28.7,60.38Z"/>
              <path class="cls-8" d="m322.64,357.88h-.04c-9.89,14.83-15.19,22.32-28.03,39.41,8.85-.33,27.61-10.3,32.39-16.57,9.84-12.38,21.8-28.7,31.95-44.3-6.43,5.26-23.56,9.25-28.51,9.48-2.61,4.11-5.19,8.1-7.76,11.98Z"/>
              <path class="cls-8" d="m326.97,380.72l-1.72,13.43c10.57-11.23,21.15-23.28,31.24-35.79,2.38-5.88,2.17-18.67,2.46-21.94h-.04c-10.04,15.42-21.97,31.76-31.95,44.3Z"/>
            </g>
            <g>
              <path class="cls-4" d="m158.87,398.6c-5.97-10.49-12.73-22.65-19.74-36.09.08,6.17,2.49,21.79-.07,34.78,4.62,6.03-.94-1.02,17.2,22.2,3.88,4.89,7.09,8.96,9.48,12.13h12.43c-5.94-10.25-7.77-12.92-19.26-33.03h-.04Z"/>
              <path class="cls-4" d="m201.19,431.62h15.86v-48.29l-30.79-33.03c3,19.26,10.24,62.64,14.93,81.32Z"/>
              <path class="cls-4" d="m172.23,389.27c5.6,14.56,15.44,38.45,16.83,42.36h12.13c-4.7-18.7-11.94-62.14-14.93-81.32-1.68,8.27-6.08,30.94-14.03,38.96Z"/>
              <path class="cls-4" d="m139.12,362.51c7.02,13.44,13.77,25.6,19.74,36.09h.04c11.7,20.48,12.39,21.19,19.26,33.03h10.9c-1.26-3.52-12.38-30.77-16.83-42.36-7.78-3.94-26.45-19.64-33.1-26.76Z"/>
              <path class="cls-4" d="m106.66,380.72c13.33,16.93,29.18,35.31,44.78,50.9h14.29c-3.97-5.28-12.44-15.74-26.68-34.33-3.41-.59-24.14-6.89-32.39-16.57Z"/>
              <path class="cls-4" d="m108.37,394.16c14.7,15.8,30.06,30.45,37.13,37.47h5.93c-15.57-15.56-31.46-33.98-44.78-50.9-1.15,1.76.02,9.9,1.72,13.43Z"/>
            </g>
            <g>
              <path class="cls-4" d="m294.51,362.51c-7.02,13.44-13.77,25.6-19.74,36.09h-.04c-11.49,20.1-13.32,22.78-19.26,33.03h12.43c2.39-3.17,5.6-7.24,9.48-12.13,18.14-23.22,12.59-16.17,17.2-22.2-2.56-12.99-.15-28.61-.07-34.78Z"/>
              <path class="cls-4" d="m216.58,431.62h15.86c4.69-18.68,11.93-62.06,14.93-81.32l-30.79,33.03v48.29Z"/>
              <path class="cls-4" d="m232.44,431.62h12.13c1.39-3.9,11.23-27.79,16.83-42.36-7.95-8.02-12.35-30.69-14.03-38.96-2.98,19.18-10.23,62.61-14.93,81.32Z"/>
              <path class="cls-4" d="m261.4,389.27c-4.46,11.58-15.57,38.84-16.83,42.36h10.9c6.86-11.84,7.55-12.55,19.26-33.03h.04c5.97-10.49,12.73-22.65,19.74-36.09-6.65,7.12-25.32,22.82-33.1,26.76Z"/>
              <path class="cls-4" d="m294.58,397.29c-14.24,18.6-22.71,29.06-26.68,34.33h14.29c15.6-15.59,31.46-33.98,44.78-50.9-8.26,9.68-28.98,15.98-32.39,16.57Z"/>
              <path class="cls-4" d="m282.19,431.62h5.93c7.07-7.02,22.44-21.67,37.13-37.47,1.7-3.54,2.87-11.67,1.72-13.43-13.32,16.92-29.21,35.34-44.78,50.9Z"/>
            </g>
          </g>
          <g class="cls-2">
            <g>
              <path class="cls-14" d="m66.35,52.91l.07-.04h.04c5.25-7.22,12.8-14.94,21.12-20.86-9.85,3.77-19.82,9.63-29.07,17.69l7.84,3.21Z"/>
              <path class="cls-15" d="m66.46,52.88c60.34-34.93,57.13-33.04,57.51-33.33,2.09-1.31,4.18-2.57,6.34-3.66-22.2,2.37-41.47,12.64-54.75,26.38-2.86,2.86-6.62,7.18-9.11,10.6Z"/>
              <path class="cls-19" d="m130.32,15.89c-2.16,1.08-4.25,2.35-6.34,3.66l6.34-3.66Z"/>
              <path class="cls-17" d="m141.66,25.15c.4-.4,2.95-5.01,8.47-10.52.11-.11.22-.26.34-.34.11-.15.22-.22.34-.34.55-.55,1.12-1.08,1.94-1.75,1.83-1.64,4.34-3.53,7.28-5.19-10.04,1.12-19.67,3.84-28.62,8.36l10.26,9.78Z"/>
              <path class="cls-18" d="m160.02,7.01c-11.5,6.5-17.72,17.5-18.36,18.14C196.48.22,184.78,5.75,189.17,2.98c-10.93-2.28-20.64-.78-29.15,4.03Z"/>
              <path class="cls-12" d="m196.22.26c-3.71.64-6.49,2.13-9.18,4.25l30,12.05v-8.51s-8.55-9.74-20.82-7.8Z"/>
              <path class="cls-13" d="m130.8,15.63c.19-.07.37-.19.6-.26l-.04-.04-.56.3Z"/>
              <polygon class="cls-89" points="217.05 16.9 217.53 16.75 217.05 16.56 217.05 16.9"/>
            </g>
            <g>
              <path class="cls-90" d="m167.56,57.35l49.48,32.95V16.56c-4.7-5.01-22.8-11.53-30-12.05-12.65,10.29-17.4,36.67-19.48,52.84Z"/>
              <path class="cls-88" d="m137.3,32.61v.04c-5.54,11.07-10.4,23.88-14.37,46.05-1.03,5.15-2.65,18.56-2.65,19.44-.24,1.76-.2,1.9-.78,8.47h.04l48.03-49.26c2.09-16.21,6.83-42.56,19.48-52.84-27.35,6.69-37.75,14.84-45.57,20.97-1.02,1.53-2.21,3.43-4.18,7.13Z"/>
              <path class="cls-87" d="m131.4,15.37c-.64.21-2.85,1.54-7.43,4.18-.39.3-2.88,1.78-6.34,4.55-.43.22-5.09,4.23-5.63,4.78-5.03,4.75-9.66,10.26-13.55,16.08-2.76,3.99-5.68,9.36-7.84,13.77h-.04c-.23.59-5.33,10.55-9.14,25.34,9.12,1.36,32.8,13.49,38.07,22.54.26-2.86,1.04-12.27,1.9-17.88,0-1.29,2.39-15.69,3.62-20.6,4.21-18.4,8.05-27.04,12.28-35.49v-.04c2.08-3.89,3.26-5.74,4.18-7.13.04-.11.11-.22.19-.34.95-4.07-5.56-8.9-10.26-9.78Z"/>
              <path class="cls-77" d="m66.46,52.88h-.04c-.25.37-3.44,4.33-8.14,12.65v.04c-2.39,4.22-4.42,8.73-6.19,12.95-5.3,12.64-9.5,30.59-10.75,42.54,0,.11-.04.19-.04.3-.22,1.49-.37,3.02-.52,4.59,0,1.19-1.23,8.07-1.23,26.53l41.83-68.4h.04c3.72-14.43,8.82-24.52,9.14-25.34h.04c6.73-14.31,17.46-28.29,30.49-37.24.6-.41,1.19-.82,1.79-1.23.22-.15.41-.26.63-.41-14.09-.57-48.72,19.32-57.06,33.03Z"/>
              <path class="cls-83" d="m58.52,49.7c-9.61,8.24-18.4,19.16-24.71,30.08-1.61,2.86-1.64,2.75-2.13,3.84-6.86,12.28-12.9,29.38-15.9,48.37.05,3.94,12.24,18.84,23.77,20.49,0-15.11,1.12-27.64,2.05-33.51.04-.34.11-.63.15-.97,1.93-14.9,6.82-33.19,13.77-47.1.22-.66,2.27-4.48,2.76-5.34v-.04c5.68-10.07,8.5-12.83,8.06-12.61.14-3.46-4.61-4.71-7.84-3.21Z"/>
              <path class="cls-85" d="m0,182.89l15.75-50.94.04.04c2.69-17.04,8.26-35.13,16.87-50.19.61-1.21,4.71-7.93,6.12-9.85,4.55-6.65,7.55-10,10.67-13.44C10.19,87.15-1.63,134.75,0,182.89Z"/>
            </g>
            <g>
              <path class="cls-86" d="m14.14,180.95c-.97-12.58-.93-24.33,0-35.3-.93,10.97-1.01,22.73,0,35.3Z"/>
              <path class="cls-78" d="m14.14,180.95c-.97-12.58-.93-24.33,0-35.3-.93,10.97-1.01,22.73,0,35.3Z"/>
              <path class="cls-84" d="m167.56,57.35c-2.97,23.23-3.43,51.1-2.91,74.71,12.43,3.62,42.29,22.05,52.4,32.09v-73.85c-8.31-10.74-37.01-31.48-49.48-32.95Z"/>
              <path class="cls-80" d="m119.53,106.61h-.04c-2.05,28.42-.97,51.32,1.08,75.42l43.89-50.08c.44.26,0,1.14,0-14.59-.04-24.52,1.08-44.26,3.1-60.01-22.03,11.18-37.46,28.11-48.03,49.26Z"/>
              <path class="cls-81" d="m119.49,106.61c-5.85-10.25-29.76-21.99-38.07-22.54-4.97,18.75-6.75,38.75-6.75,57.99,0,7.42.44,18.25.9,23.96l45.01,16.05v-.04c-2.19-25.65-3.02-48.54-1.08-75.42Z"/>
              <path class="cls-79" d="m81.39,84.07c-24.89,14.35-36.03,39.71-41.83,68.4,0,10.61.93,23.63,2.13,34.22,1.36,13.22,4.13,28.54,7.95,42.54l25.94-63.22c-1.96-24.52-.94-58.16,5.86-81.95h-.04Z"/>
              <path class="cls-82" d="m39.56,152.48c-3.75-1.33-21.52-9.02-23.77-20.49-.12.83-.53,3.16-.78,5.52-3.46,27.29-1.06,57.51,5.93,83.41h.04c2.75,5.86,19.6,10.84,28.66,8.32-1.82-6.65-4.55-18.57-5.71-26.2-2.41-13.68-4.37-35.62-4.37-50.57Z"/>
              <path class="cls-92" d="m14.59,185.99c-2.06-23.12-1.28-36.73,1.19-54l-.04-.04C2.89,155.59,1.91,167.16,0,183.12c.99,25.7,6.35,52.07,19.67,82.89l1.27-45.08c-.97-3.59-3.09-12.69-4.44-20.82-.63-4.42-.62-2.98-1.9-14.11Z"/>
              <path class="cls-100" d="m14.14,180.95c-.97-12.58-.93-24.33,0-35.3-.93,10.97-1.01,22.73,0,35.3Z"/>
            </g>
            <g>
              <path class="cls-93" d="m164.65,132.07c.46,23.92,2.09,52.61,3.77,73.44l48.63,31.87v-73.22c-8.99-10.78-41.17-29.86-52.4-32.09Z"/>
              <path class="cls-91" d="m164.46,131.95c-13.23,5.15-36.75,38.06-43.89,50.08,0,2.01,2.38,23.9,4.89,39.56.1,1.22,1.98,12.05,2.05,12.43.08.41,2.15,12.17,3.73,19.56l37.17-48.07c-1.72-21.28-3.32-49.87-3.77-73.44l-.19-.11Z"/>
              <path class="cls-101" d="m75.57,166.03c0,1.55,1.82,22.39,4.1,35.79.22,1.77,1.4,8.05,1.83,10.19,1.66,9.13,5.62,24.21,6.16,25.82,7.86,5.15,32.93,14.99,43.59,15.75-5.14-23.96-9.22-54.02-10.67-71.5-6.93-6.86-34.31-19.4-45.01-16.05Z"/>
              <path class="cls-102" d="m77.06,182.45c-.46-4.1-1.49-14.98-1.49-16.42-6.71,8.2-23.61,43.78-25.94,63.22,2.3,8.43,3.82,13.66,7.61,24.44,3.85,11.02,9.91,25.78,15.82,37.99l14.59-53.85c-.36-1.09-2.22-8.29-2.87-10.97-3.71-14.84-6.14-29.79-7.73-44.41Z"/>
              <path class="cls-104" d="m20.97,220.92c4.42,16.85,10.24,34.04,19.26,53.66.04.15.11.26.19.37,1.62,3.61,3.65,7.86,4.4,9.37,3.39,5.4,22.5,10.01,28.25,7.35-10.77-22.26-19.45-46.79-23.44-62.43-4.85.16-23.03-.19-28.66-8.32Z"/>
              <path class="cls-106" d="m20.97,220.92h-.04c-4.47,25.06-2.3,29.17-1.27,45.12,6.84,15.95,15.4,31.7,24.56,46.35l.6-28.06c-2.85-5.7-8.5-18.41-8.99-19.74-6.6-15.63-10.95-28.76-14.85-43.66Z"/>
            </g>
            <g>
              <path class="cls-105" d="m367.55,52.88h.04l.07.04,7.84-3.21c-9.26-8.06-19.22-13.92-29.07-17.69,8.32,5.92,15.87,13.64,21.12,20.86Z"/>
              <path class="cls-103" d="m303.7,15.89c2.16,1.08,4.25,2.35,6.34,3.66.37.28-2.84-1.6,57.51,33.33-2.49-3.42-6.24-7.74-9.11-10.6-13.27-13.75-32.54-24.01-54.75-26.38Z"/>
              <path class="cls-97" d="m310.04,19.55c-2.09-1.31-4.18-2.57-6.34-3.66l6.34,3.66Z"/>
              <path class="cls-95" d="m281.27,12.2c.82.68,1.39,1.21,1.94,1.75.11.11.22.19.34.34.11.07.22.22.34.34,5.52,5.52,8.07,10.13,8.47,10.52l10.26-9.78c-8.96-4.52-18.58-7.24-28.62-8.36,2.94,1.66,5.45,3.54,7.28,5.19Z"/>
              <path class="cls-99" d="m273.99,7.01c-8.51-4.81-18.21-6.31-29.15-4.03,4.39,2.77-7.31-2.76,47.51,22.17-.64-.64-6.86-11.64-18.36-18.14Z"/>
              <path class="cls-96" d="m216.97,8.06v8.51l30-12.05c-2.69-2.12-5.47-3.62-9.18-4.25-12.28-1.94-20.82,7.8-20.82,7.8Z"/>
              <path class="cls-94" d="m302.62,15.37c.22.07.41.19.6.26l-.56-.3-.04.04Z"/>
              <polygon class="cls-98" points="216.97 16.9 216.97 16.56 216.48 16.75 216.97 16.9"/>
            </g>
            <g>
              <path class="cls-68" d="m246.97,4.51c-7.2.52-25.31,7.05-30,12.05v73.74l49.48-32.95c-2.08-16.17-6.83-42.55-19.48-52.84Z"/>
              <path class="cls-67" d="m311.09,78.7c-3.96-22.17-8.83-34.98-14.37-46.05v-.04c-1.97-3.7-3.16-5.6-4.18-7.13-7.82-6.13-18.21-14.28-45.57-20.97,12.65,10.29,17.39,36.63,19.48,52.84l48.03,49.26h.04c-.58-6.57-.55-6.71-.78-8.47,0-.88-1.62-14.3-2.65-19.44Z"/>
              <path class="cls-70" d="m343.4,58.73c-2.16-4.41-5.08-9.78-7.84-13.77-3.88-5.82-8.51-11.33-13.55-16.08-.54-.55-5.2-4.56-5.63-4.78-3.47-2.77-5.95-4.26-6.34-4.55-4.57-2.64-6.79-3.97-7.43-4.18-4.7.88-11.21,5.71-10.26,9.78.07.11.15.22.19.34.92,1.39,2.1,3.24,4.18,7.13v.04c4.22,8.45,8.06,17.09,12.28,35.49,1.23,4.91,3.62,19.31,3.62,20.6.86,5.61,1.65,15.01,1.9,17.88,5.26-9.05,28.94-21.18,38.07-22.54-3.82-14.79-8.91-24.75-9.14-25.34h-.04Z"/>
              <path class="cls-69" d="m392.7,121.36c0-.11-.04-.19-.04-.3-1.25-11.95-5.45-29.91-10.75-42.54-1.78-4.22-3.8-8.73-6.19-12.95v-.04c-4.69-8.32-7.89-12.28-8.14-12.65h-.04c-8.34-13.7-42.97-33.6-57.06-33.03.22.15.41.26.63.41.6.41,1.19.82,1.79,1.23,13.03,8.95,23.76,22.94,30.49,37.24h.04c.33.82,5.42,10.91,9.14,25.34h.04l41.83,68.4c0-18.47-1.23-25.35-1.23-26.53-.15-1.57-.3-3.1-.52-4.59Z"/>
              <path class="cls-73" d="m400.2,79.78c-6.3-10.92-15.09-21.84-24.71-30.08-3.22-1.5-7.98-.25-7.84,3.21-.44-.22,2.38,2.55,8.06,12.61v.04c.49.86,2.54,4.68,2.76,5.34,6.95,13.9,11.85,32.19,13.77,47.1.04.34.11.64.15.97.93,5.87,2.05,18.4,2.05,33.51,11.53-1.64,23.72-16.55,23.77-20.49-2.99-18.98-9.04-36.09-15.9-48.37-.49-1.1-.52-.98-2.13-3.84Z"/>
              <path class="cls-71" d="m384.57,58.51c3.13,3.44,6.12,6.78,10.67,13.44,1.41,1.92,5.51,8.64,6.12,9.85,8.61,15.07,14.18,33.15,16.87,50.19l.04-.04,15.75,50.94c1.63-48.14-10.19-95.75-49.45-124.38Z"/>
            </g>
            <g>
              <path class="cls-72" d="m419.87,180.95c1.01-12.58.93-24.33,0-35.3.93,10.97.97,22.73,0,35.3Z"/>
              <path class="cls-75" d="m419.87,180.95c1.01-12.58.93-24.33,0-35.3.93,10.97.97,22.73,0,35.3Z"/>
              <path class="cls-76" d="m216.97,90.31v73.85c10.11-10.04,39.96-28.48,52.4-32.09.52-23.61.06-51.48-2.91-74.71-12.48,1.48-41.17,22.21-49.48,32.95Z"/>
              <path class="cls-74" d="m314.48,106.61c-10.57-21.15-26-38.08-48.03-49.26,2.02,15.75,3.13,35.49,3.1,60.01,0,15.73-.44,14.85,0,14.59l43.89,50.08c2.05-24.1,3.13-47,1.08-75.42h-.04Z"/>
              <path class="cls-29" d="m314.52,106.61c1.94,26.89,1.1,49.77-1.08,75.42v.04l45.01-16.05c.46-5.71.9-16.54.9-23.96,0-19.25-1.78-39.24-6.75-57.99-8.3.55-32.21,12.29-38.07,22.54Z"/>
              <path class="cls-27" d="m352.62,84.07h-.04c6.8,23.79,7.82,57.43,5.86,81.95l25.94,63.22c3.82-14.01,6.59-29.33,7.95-42.54,1.2-10.59,2.13-23.61,2.13-34.22-5.8-28.69-16.94-54.06-41.83-68.4Z"/>
              <path class="cls-28" d="m418.23,131.99c-2.25,11.46-20.02,19.16-23.77,20.49,0,14.95-1.95,36.89-4.37,50.57-1.16,7.63-3.89,19.54-5.71,26.2,9.06,2.52,25.91-2.47,28.66-8.32h.04c6.99-25.9,9.39-56.12,5.93-83.41-.25-2.36-.67-4.69-.78-5.52Z"/>
              <path class="cls-25" d="m418.23,131.99c2.47,17.27,3.25,30.88,1.19,54-1.28,11.12-1.27,9.68-1.9,14.11-1.35,8.13-3.47,17.24-4.44,20.82l1.27,45.08c13.32-30.82,18.68-57.19,19.67-82.89-1.91-15.95-2.89-27.53-15.75-51.16l-.04.04Z"/>
              <path class="cls-26" d="m419.87,180.95c1.01-12.58.93-24.33,0-35.3.93,10.97.97,22.73,0,35.3Z"/>
            </g>
            <g>
              <path class="cls-23" d="m216.97,164.16v73.22l48.63-31.87c1.68-20.83,3.31-49.52,3.77-73.44-11.23,2.24-43.41,21.32-52.4,32.09Z"/>
              <path class="cls-24" d="m269.55,131.95l-.19.11c-.45,23.58-2.05,52.16-3.77,73.44l37.17,48.07c1.59-7.39,3.65-19.14,3.73-19.56.08-.38,1.95-11.21,2.05-12.43,2.5-15.66,4.89-37.55,4.89-39.56-7.14-12.03-30.65-44.93-43.89-50.08Z"/>
              <path class="cls-21" d="m313.44,182.07c-1.45,17.48-5.53,47.54-10.67,71.5,10.66-.76,35.72-10.59,43.59-15.75.54-1.61,4.5-16.69,6.16-25.82.42-2.14,1.61-8.41,1.83-10.19,2.29-13.4,4.1-34.24,4.1-35.79-10.7-3.35-38.08,9.19-45.01,16.05Z"/>
              <path class="cls-22" d="m356.95,182.45c-1.59,14.62-4.02,29.57-7.73,44.41-.66,2.68-2.51,9.88-2.87,10.97l14.59,53.85c5.91-12.21,11.98-26.97,15.82-37.99,3.79-10.79,5.31-16.01,7.61-24.44-2.33-19.44-19.23-55.02-25.94-63.22,0,1.43-1.04,12.32-1.49,16.42Z"/>
              <path class="cls-20" d="m384.38,229.24c-3.98,15.65-12.66,40.18-23.44,62.43,5.75,2.66,24.86-1.95,28.25-7.35.75-1.51,2.78-5.76,4.4-9.37.07-.11.15-.22.19-.37,9.01-19.62,14.84-36.81,19.26-53.66-5.64,8.13-23.81,8.48-28.66,8.32Z"/>
              <path class="cls-47" d="m413.04,220.92c-3.91,14.91-8.26,28.04-14.85,43.66-.5,1.33-6.14,14.04-8.99,19.74l.6,28.06c9.16-14.65,17.72-30.4,24.56-46.35,1.03-15.95,3.2-20.06-1.27-45.12h-.04Z"/>
            </g>
            <g>
              <path class="cls-49" d="m216.97,237.38v73.56c23.58-6.52,34.2-21.19,41.01-32.47,2.43-19.94,5.86-48.4,7.61-72.96-8.1,6.09-39.89,21.8-48.63,31.87Z"/>
              <path class="cls-48" d="m265.6,205.51c-1.75,24.43-5.13,52.57-7.61,72.96-.72,2.94,13.66,33.18,27.28,43.4,6.96-22.69,13.72-49.41,17.5-68.29-7.32-11.91-27.71-41.44-37.17-48.07Z"/>
              <path class="cls-44" d="m285.26,321.87v.04c9.14.39,31.25-12.29,38.33-19.85v.07c11.94-27.66,21.79-59.45,22.76-64.3-8.01,5.49-33.95,13.75-43.59,15.75-3.55,17.74-10.08,44.06-17.5,68.29Z"/>
              <path class="cls-43" d="m344.19,245.33c-4.01,13.57-6.55,20.54-10.93,32.58-2.6,6.75-6.7,17.36-9.66,24.22-.91,12.25,4.47,37.15,7.2,43.74,9.92-15.42,21.57-36.09,30.15-54.19-2.11-12.69-8.37-44.63-14.59-53.85-.09.44-1.26,4.55-2.16,7.5Z"/>
              <path class="cls-46" d="m360.94,291.68c-8.76,18.47-20.77,39.6-30.15,54.19v.04c6.74.52,24.36-6.03,28.51-9.48h.04c11.64-17.93,20.9-33.99,29.78-51.95.04-.04.04-.11.07-.15-6.12,6.85-22.25,8.47-28.25,7.35Z"/>
              <path class="cls-45" d="m359.34,336.42l-2.46,21.94c13.55-16.84,24.95-33.17,32.92-45.98,1.84-9.89,1.49-23.99-.6-28.06-.62.63-8.48,19.18-29.86,52.1Z"/>
            </g>
            <g>
              <path class="cls-41" d="m216.97,310.94v72.4c9.12-4.08,26.73-23.27,30.79-33.03,3.24-20.43,7.29-48.7,10.19-71.8-5.95,9.03-29.76,30.78-40.98,32.43Z"/>
              <path class="cls-40" d="m257.94,278.51c-2.93,23.38-7,51.69-10.19,71.8-.32,14.85,9.68,37.07,14.03,38.96.34-.82.63-1.64.97-2.5,4.58-11.99,9.83-25.59,17.17-47.95.12-.37,5.34-16.57,5.34-16.94-5.43-6.81-23.33-30.49-27.28-43.4l-.04.04Z"/>
              <path class="cls-42" d="m266.45,377.1c-1.05,2.79-4.4,11.52-4.66,12.17,9.01-2.72,27.22-19.19,33.1-26.76,5.86-11.25,10.72-20.91,17.32-34.89,3.52-7.52,11.38-25.08,11.38-25.56-6.49,4.3-27.3,19.64-38.33,19.85-1.72,5.15-5.31,18.78-18.81,55.19Z"/>
              <path class="cls-36" d="m294.89,362.51c-2.62,8.75-1.66,29.17.07,34.78,11.22-14.94,17-22.86,28.03-39.41h.04c2.58-3.88,5.15-7.87,7.76-11.98-2.87-6.72-4.42-17.62-7.2-43.77-8.76,20.62-17.92,39.68-28.7,60.38Z"/>
              <path class="cls-37" d="m323.03,357.88h-.04c-9.89,14.83-15.19,22.32-28.03,39.41,8.85-.33,27.61-10.3,32.39-16.57,9.84-12.38,21.8-28.7,31.95-44.3-6.43,5.26-23.56,9.25-28.51,9.48-2.61,4.11-5.19,8.1-7.76,11.98Z"/>
              <path class="cls-38" d="m327.36,380.72l-1.72,13.43c10.57-11.23,21.15-23.28,31.24-35.79,2.38-5.88,2.17-18.67,2.46-21.94h-.04c-10.04,15.42-21.97,31.76-31.95,44.3Z"/>
            </g>
            <g>
              <path class="cls-39" d="m294.89,362.51c-7.02,13.44-13.77,25.6-19.74,36.09h-.04c-11.49,20.1-13.32,22.78-19.26,33.03h12.43c2.39-3.17,5.6-7.24,9.48-12.13,18.14-23.22,12.59-16.17,17.2-22.2-2.56-12.99-.15-28.61-.07-34.78Z"/>
              <path class="cls-33" d="m216.97,431.62h15.86c4.69-18.68,11.93-62.06,14.93-81.32l-30.79,33.03v48.29Z"/>
              <path class="cls-34" d="m232.83,431.62h12.13c1.39-3.9,11.23-27.79,16.83-42.36-7.95-8.02-12.35-30.69-14.03-38.96-2.98,19.18-10.23,62.61-14.93,81.32Z"/>
              <path class="cls-35" d="m261.79,389.27c-4.46,11.58-15.57,38.84-16.83,42.36h10.9c6.86-11.84,7.55-12.55,19.26-33.03h.04c5.97-10.49,12.73-22.65,19.74-36.09-6.65,7.12-25.32,22.82-33.1,26.76Z"/>
              <path class="cls-30" d="m294.96,397.29c-14.24,18.6-22.71,29.06-26.68,34.33h14.29c15.6-15.59,31.46-33.98,44.78-50.9-8.26,9.68-28.98,15.98-32.39,16.57Z"/>
              <path class="cls-31" d="m282.57,431.62h5.93c7.07-7.02,22.44-21.67,37.13-37.47,1.7-3.54,2.87-11.67,1.72-13.43-13.32,16.92-29.21,35.34-44.78,50.9Z"/>
            </g>
            <g>
              <path class="cls-32" d="m168.42,205.51c1.76,24.56,5.18,53.01,7.61,72.96,6.81,11.28,17.43,25.95,41.01,32.47v-73.56c-8.74-10.07-40.53-25.78-48.63-31.87Z"/>
              <path class="cls-58" d="m131.25,253.58c3.78,18.89,10.55,45.6,17.5,68.29,13.62-10.22,28-40.46,27.28-43.4-2.48-20.39-5.87-48.53-7.61-72.96-9.46,6.62-29.85,36.16-37.17,48.07Z"/>
              <path class="cls-57" d="m87.66,237.83c.97,4.85,10.82,36.64,22.76,64.3v-.07c7.07,7.56,29.18,20.25,38.33,19.85v-.04c-7.43-24.23-13.95-50.55-17.5-68.29-9.64-1.99-35.57-10.25-43.59-15.75Z"/>
              <path class="cls-66" d="m100.76,277.91c-4.38-12.04-6.93-19-10.93-32.58-.9-2.95-2.08-7.06-2.16-7.5-6.23,9.22-12.48,41.16-14.59,53.85,8.58,18.1,20.24,38.77,30.15,54.19,2.73-6.58,8.11-31.49,7.2-43.74-2.96-6.86-7.06-17.47-9.66-24.22Z"/>
              <path class="cls-65" d="m44.82,284.33s.04.11.07.15c8.88,17.96,18.14,34.02,29.78,51.95h.04c4.16,3.45,21.77,10,28.51,9.48v-.04c-9.38-14.59-21.39-35.72-30.15-54.19-6,1.11-22.13-.5-28.25-7.35Z"/>
              <path class="cls-64" d="m44.82,284.33c-2.09,4.07-2.44,18.17-.6,28.06,7.97,12.8,19.36,29.13,32.92,45.98l-2.46-21.94c-21.38-32.91-29.24-51.47-29.86-52.1Z"/>
            </g>
            <g>
              <path class="cls-63" d="m176.07,278.51c2.89,23.1,6.95,51.37,10.19,71.8,4.06,9.76,21.66,28.95,30.79,33.03v-72.4c-11.22-1.65-35.02-23.4-40.98-32.43Z"/>
              <path class="cls-62" d="m176.03,278.47c-3.95,12.91-21.85,36.6-27.28,43.4,0,.37,5.21,16.57,5.34,16.94,7.34,22.36,12.59,35.97,17.17,47.95.34.86.63,1.68.97,2.5,4.35-1.89,14.35-24.12,14.03-38.96-3.19-20.11-7.26-48.42-10.19-71.8l-.04-.04Z"/>
              <path class="cls-61" d="m148.75,321.91c-11.03-.21-31.83-15.56-38.33-19.85,0,.48,7.86,18.05,11.38,25.56,6.6,13.98,11.46,23.64,17.32,34.89,5.88,7.57,24.09,24.04,33.1,26.76-.26-.64-3.62-9.38-4.66-12.17-13.5-36.41-17.09-50.05-18.81-55.19Z"/>
              <path class="cls-59" d="m110.43,302.13c-2.78,26.15-4.33,37.05-7.2,43.77,2.61,4.11,5.19,8.1,7.76,11.98h.04c11.03,16.55,16.8,24.47,28.03,39.41,1.73-5.61,2.69-26.04.07-34.78-10.78-20.71-19.94-39.76-28.7-60.38Z"/>
              <path class="cls-60" d="m110.99,357.88c-2.58-3.88-5.15-7.87-7.76-11.98-4.96-.23-22.08-4.22-28.51-9.48,10.15,15.6,22.1,31.92,31.95,44.3,4.78,6.27,23.55,16.24,32.39,16.57-12.83-17.09-18.14-24.58-28.03-39.41h-.04Z"/>
              <path class="cls-56" d="m74.71,336.42h-.04c.29,3.27.08,16.07,2.46,21.94,10.08,12.5,20.67,24.56,31.24,35.79l-1.72-13.43c-9.98-12.54-21.91-28.87-31.95-44.3Z"/>
            </g>
            <g>
              <path class="cls-50" d="m158.87,398.6c-5.97-10.49-12.73-22.65-19.74-36.09.08,6.17,2.49,21.79-.07,34.78,4.62,6.03-.94-1.02,17.2,22.2,3.88,4.89,7.09,8.96,9.48,12.13h12.43c-5.94-10.25-7.77-12.92-19.26-33.03h-.04Z"/>
              <path class="cls-54" d="m201.19,431.62h15.86v-48.29l-30.79-33.03c3,19.26,10.24,62.64,14.93,81.32Z"/>
              <path class="cls-55" d="m172.23,389.27c5.6,14.56,15.44,38.45,16.83,42.36h12.13c-4.7-18.7-11.94-62.14-14.93-81.32-1.68,8.27-6.08,30.94-14.03,38.96Z"/>
              <path class="cls-53" d="m139.12,362.51c7.02,13.44,13.77,25.6,19.74,36.09h.04c11.7,20.48,12.39,21.19,19.26,33.03h10.9c-1.26-3.52-12.38-30.77-16.83-42.36-7.78-3.94-26.45-19.64-33.1-26.76Z"/>
              <path class="cls-51" d="m106.66,380.72c13.33,16.93,29.18,35.31,44.78,50.9h14.29c-3.97-5.28-12.44-15.74-26.68-34.33-3.41-.59-24.14-6.89-32.39-16.57Z"/>
              <path class="cls-52" d="m108.37,394.16c14.7,15.8,30.06,30.45,37.13,37.47h5.93c-15.57-15.56-31.46-33.98-44.78-50.9-1.15,1.76.02,9.9,1.72,13.43Z"/>
            </g>
          </g>
          <path class="cls-7" d="m145.51,431.62c7.31,15.23,14.59,26.12,20.11,50.68h102.85c6.87-30.34,12.02-37.32,20.11-50.68-24.27-12.76-120.37-10.59-143.08,0Z"/>
          <path class="cls-6" d="m217.05,476.06c-28.4,0-51.43,2.8-51.43,6.25s23.02,6.25,51.43,6.25,51.43-2.8,51.43-6.25-23.02-6.25-51.43-6.25Z"/>
        </g>
      </g>
    </g>
  </g>
</svg>