<?xml version="1.0" encoding="UTF-8"?>
<svg id="Layer_1" data-name="Layer 1" xmlns="http://www.w3.org/2000/svg" xmlns:xlink="http://www.w3.org/1999/xlink" viewBox="0 0 439.09 609.89">
  <defs>
    <style>
      .cls-1 {
        fill: url(#linear-gradient);
      }

      .cls-2 {
        fill: #c1d459;
      }

      .cls-3 {
        fill: #967c77;
      }

      .cls-4 {
        fill: #2c113e;
      }

      .cls-5 {
        fill: #81bd88;
      }

      .cls-6 {
        fill: #4c4869;
      }

      .cls-7 {
        fill: #7aa845;
      }

      .cls-8 {
        fill: url(#linear-gradient-8);
      }

      .cls-9 {
        fill: url(#linear-gradient-9);
      }

      .cls-10 {
        fill: url(#linear-gradient-3);
      }

      .cls-11 {
        fill: url(#linear-gradient-4);
      }

      .cls-12 {
        fill: url(#linear-gradient-2);
      }

      .cls-13 {
        fill: url(#linear-gradient-6);
      }

      .cls-14 {
        fill: url(#linear-gradient-7);
      }

      .cls-15 {
        fill: url(#linear-gradient-5);
      }

      .cls-16 {
        fill: url(#linear-gradient-14);
      }

      .cls-17 {
        fill: url(#linear-gradient-18);
      }

      .cls-18 {
        fill: url(#linear-gradient-20);
      }

      .cls-19 {
        fill: url(#linear-gradient-15);
      }

      .cls-20 {
        fill: url(#linear-gradient-19);
      }

      .cls-21 {
        fill: url(#linear-gradient-16);
      }

      .cls-22 {
        fill: url(#linear-gradient-17);
      }

      .cls-23 {
        fill: url(#linear-gradient-13);
      }

      .cls-24 {
        fill: url(#linear-gradient-12);
      }

      .cls-25 {
        fill: url(#linear-gradient-10);
      }

      .cls-26 {
        fill: url(#linear-gradient-11);
      }
    </style>
    <linearGradient id="linear-gradient" x1="217.05" y1="36.53" x2="217.52" y2="36.53" gradientUnits="userSpaceOnUse">
      <stop offset="0" stop-color="#2c2c59"/>
      <stop offset="1" stop-color="#fff"/>
    </linearGradient>
    <linearGradient id="linear-gradient-2" x1="216.5" y1="36.53" x2="216.97" y2="36.53" gradientUnits="userSpaceOnUse">
      <stop offset="0" stop-color="#fff"/>
      <stop offset="1" stop-color="#2c2c59"/>
    </linearGradient>
    <linearGradient id="linear-gradient-3" x1="302.81" y1="35.35" x2="303.06" y2="35.21" gradientUnits="userSpaceOnUse">
      <stop offset="0" stop-color="#006e5a"/>
      <stop offset="1" stop-color="#52b259"/>
    </linearGradient>
    <linearGradient id="linear-gradient-4" x1="252.22" y1="247.91" x2="380.81" y2="231.32" xlink:href="#linear-gradient-3"/>
    <linearGradient id="linear-gradient-5" x1="202.14" y1="239.6" x2="273.22" y2="230.43" xlink:href="#linear-gradient-3"/>
    <linearGradient id="linear-gradient-6" x1="221.41" y1="240.05" x2="311.52" y2="228.43" xlink:href="#linear-gradient-3"/>
    <linearGradient id="linear-gradient-7" x1="237.72" y1="242.63" x2="349.69" y2="228.18" xlink:href="#linear-gradient-3"/>
    <linearGradient id="linear-gradient-8" x1="357.83" y1="356.98" x2="359.14" y2="356.81" xlink:href="#linear-gradient-3"/>
    <linearGradient id="linear-gradient-9" x1="267.42" y1="257.69" x2="404.59" y2="239.99" xlink:href="#linear-gradient-3"/>
    <linearGradient id="linear-gradient-10" x1="283.26" y1="271.74" x2="418.91" y2="254.24" xlink:href="#linear-gradient-3"/>
    <linearGradient id="linear-gradient-11" x1="-4.89" y1="84.73" x2="77.2" y2="54.87" xlink:href="#linear-gradient-3"/>
    <linearGradient id="linear-gradient-12" x1="64.22" y1="274.86" x2="146.33" y2="245" xlink:href="#linear-gradient-3"/>
    <linearGradient id="linear-gradient-13" x1="169.91" y1="240.47" x2="225.07" y2="233.36" xlink:href="#linear-gradient-3"/>
    <linearGradient id="linear-gradient-14" x1="129.89" y1="251.68" x2="190.61" y2="235.82" xlink:href="#linear-gradient-3"/>
    <linearGradient id="linear-gradient-15" x1="92.24" y1="262.5" x2="168.74" y2="240.11" xlink:href="#linear-gradient-3"/>
    <linearGradient id="linear-gradient-16" x1="75.15" y1="357.08" x2="75.6" y2="356.86" xlink:href="#linear-gradient-3"/>
    <linearGradient id="linear-gradient-17" x1="41.16" y1="293.65" x2="120.46" y2="254.46" xlink:href="#linear-gradient-3"/>
    <linearGradient id="linear-gradient-18" x1="29.19" y1="301.97" x2="87.43" y2="271.64" xlink:href="#linear-gradient-3"/>
    <linearGradient id="linear-gradient-19" x1="219.18" y1="551.28" x2="219.3" y2="530.09" gradientUnits="userSpaceOnUse">
      <stop offset="0" stop-color="#ffe8c0"/>
      <stop offset=".12" stop-color="#f6c468"/>
      <stop offset="1" stop-color="#ff4963"/>
    </linearGradient>
    <linearGradient id="linear-gradient-20" x1="218.81" y1="551.82" x2="218.89" y2="538.06" gradientUnits="userSpaceOnUse">
      <stop offset="0" stop-color="#ffe8c0"/>
      <stop offset=".36" stop-color="#f6c468"/>
      <stop offset="1" stop-color="#ff4963"/>
    </linearGradient>
  </defs>
  <g>
    <path class="cls-5" d="m384.57,78.31c.26.29.52.58.78.87-.06-.05-.11-.1-.17-.15-10.47-11.54-23.31-21.09-37.87-26.84-.14-.1-.27-.22-.42-.31-.24-.15-.41-.12-.54-.02-12.64-9.05-26.94-14.38-42.1-16.09-.1-.03-.2-.07-.31-.06-.01,0-.02,0-.03,0-.07,0-.14-.02-.21-.03.03.02.07.04.11.06,0,0,0,0-.01,0-.57-.31-.98-.52-1.18-.59-8.96-4.52-18.58-7.24-28.62-8.36-8.51-4.81-18.21-6.31-29.15-4.03.02.01.03.02.05.03-.02,0-.04.02-.06.03-2.14-1.36-4.47-2.35-7.04-2.79-11.98-1.89-20.38,7.3-20.78,7.76-.41-.45-8.81-9.65-20.79-7.76-2.58.44-4.91,1.42-7.05,2.79-.02,0-.04-.01-.06-.02.02-.02.03-.02.06-.04-10.93-2.28-20.64-.78-29.15,4.03-10.04,1.12-19.67,3.84-28.62,8.36-.24.08-.7.31-1.41.71.11-.06.24-.14.33-.19-15.06,1.61-29.57,6.95-42.5,16.16-.04,0-.08-.03-.12-.01-.12.03-.21.1-.32.14.07-.05.14-.12.22-.17-14.6,5.58-27.48,15.03-38.05,26.48-.01.01-.03,0-.04.02-.06.06-.09.11-.14.17-.13.14-.27.28-.41.42-.03.02-.06.03-.08.05.19-.21.38-.43.57-.64C10.19,106.95-1.63,154.55,0,202.69l.04-.14c-.01.12-.03.24-.04.36,3.07,79.7,53.93,153.19,108.37,211.04,14.7,15.8,30.06,30.45,37.13,37.47h143c7.07-7.02,22.44-21.67,37.13-37.47,54.3-57.69,105.3-131.23,108.37-211.04-.01-.12-.03-.24-.04-.36l.04.14c1.63-48.14-10.19-95.75-49.45-124.38Z"/>
    <path class="cls-1" d="m217.05,36.7c.64-.2.61-.1,0-.34v.34Z"/>
    <path class="cls-12" d="m216.97,36.7v-.34c-.61.24-.64.14,0,.34Z"/>
    <g>
      <g>
        <path class="cls-10" d="m302.61,35.17c.49.16,1.04.5.04-.04l-.04.04Z"/>
        <path class="cls-11" d="m375.72,85.33c-17.14-30.4-43.07-46.55-72.03-49.63,1.71.98,6.34,3.68,6.81,3.96-.41,0,19.77,10.98,32.9,38.89h.04c.33.82,5.42,10.91,9.14,25.34,11.5,40.25,6.74,102.37-3.36,142.78-14.21,58.12-44.59,119.96-74.08,171.74h-.04c-11.49,20.1-13.32,22.78-19.26,33.03h12.43c9.75-12.94,29.98-36.64,54.71-73.74h.04c2.58-3.88,5.15-7.87,7.76-11.98-.88-2.05-.66-1.64,0-.04,30.19-46.94,55.8-103.24,61.54-159.16,4.48-39.57,2.96-86.65-16.61-121.14v-.04Z"/>
      </g>
      <path class="cls-15" d="m237.79,20.05c-12.28-1.94-20.82,7.8-20.82,7.8v423.57h15.86c8.46-33.68,27.74-155.87,32.77-226.12,3.46-42.86,6.35-105.28.86-148.16-2.58-20.05-8.82-53.69-28.66-57.1Z"/>
      <path class="cls-13" d="m292.54,45.28c-1-.79-.98-.7-.19-.34-.64-.64-6.86-11.64-18.36-18.14-8.51-4.81-18.21-6.31-29.15-4.03,1.6,1.01,1.07.92,2.39,1.6-.09-.02-.17-.05-.26-.07,51.22,41.66,2.05,362.63-14.14,427.11h12.13c1.39-3.9,11.23-27.79,16.83-42.36.73,0,23.47-64.57,23.47-67.4,20.68-67.48,34.29-145.41,29.26-215.26-2.32-26.03-7.36-59.18-21.98-81.13Z"/>
      <path class="cls-14" d="m316.39,43.9c-3.47-2.77-5.95-4.26-6.34-4.55-4.57-2.64-6.79-3.97-7.43-4.18-8.96-4.52-18.58-7.24-28.62-8.36,29.4,16.62,37.53,65.95,40.53,99.6,6.48,89.99-16.45,185.19-48.07,270.49-7.75,20.63-19.94,50.15-21.5,54.52h10.9c9.97-17.2,32.61-53.71,56.35-104.01,11.51-24.58,11.38-26.04,11.38-25.49,11.94-27.66,21.79-59.45,22.76-64.3-1.04.71-1.04.68,0,0,.54-1.61,4.5-16.69,6.16-25.82,11.63-58.49,13.08-142.01-30.49-183.12-.54-.55-5.2-4.56-5.63-4.78Z"/>
      <path class="cls-8" d="m359.3,356.22c-2.51,2.06-1.81,1.5,0,0h0Z"/>
      <path class="cls-9" d="m402.33,103.43c-.49-1.1-.52-.98-2.13-3.84-11.95-20.72-30.8-38.98-53.78-47.77,11.63,8.27,20.92,18.66,29.3,33.51v.04c14.61,25.75,18.73,57.41,18.73,86.92,0,76.66-29.45,142.13-71.43,205.4h-.04c-24.25,36.38-43.96,59.47-54.71,73.74h14.29c25.16-25.14,54.65-61.28,76.73-95.2-1.81,1.5-2.51,2.06,0,0h.04c38.98-60.03,68.63-128.19,59.67-198.91-1.76-16.4-7.83-38.05-16.68-53.89Z"/>
      <path class="cls-25" d="m384.57,78.31c3.13,3.44,6.12,6.78,10.67,13.44,1.41,1.92,5.51,8.64,6.12,9.85,14.15,24.76,19.76,55.9,19.13,86.35.05-1.83.11-3.66.1-5.44,0,1.78-.05,3.62-.1,5.44,0,.09,0,.18,0,.27-.01.51-.01,1-.03,1.51.02-.51.01-1,.03-1.51-.4,18.26-3.03,36.27-7.41,52.5-.63,0-2.78,14.98-14.89,43.66-7.94,21.18-40.11,78.78-70.83,116.14-13.68,16.63-29.21,35.34-44.78,50.9h5.93c7.07-7.02,22.44-21.67,37.13-37.47,54.3-57.69,105.3-131.23,108.37-211.04-.01-.12-.03-.24-.04-.36l.04.14c1.63-48.14-10.19-95.75-49.45-124.38Zm36.03,104.18c0-5.59-.25-10.98-.67-16.21.45,5.24.69,10.5.67,16.21Z"/>
      <g>
        <path class="cls-26" d="m131.4,35.17l-.04-.04c-1.05.56-.37.17.04.04Z"/>
        <path class="cls-24" d="m158.87,418.4c-37.34-65.59-73.7-141.52-81.8-216.15C61.58,63.09,127.19,39.65,123.51,39.65c.47-.28,5.1-2.97,6.81-3.96-22.03,2.35-43,12.44-59.38,31.41-1.86,1.92-3.39,3.8-4.47,5.57h-.04c-.25.37-3.44,4.33-8.14,12.65v.04c-8.89,15.67-15.16,38.49-16.94,55.49,0,2.59-1.79,9.18-1.79,31.42,0,70.24,25.86,134.61,63.67,193.39v.04c2.61,4.11,5.19,8.1,7.76,11.98h.04c24.45,36.69,45.16,61.06,54.71,73.74h12.43c-5.94-10.25-7.77-12.92-19.26-33.03h-.04Z"/>
      </g>
      <path class="cls-23" d="m196.22,20.05c-19.83,3.41-26.08,37.04-28.66,57.1-5.48,42.85-2.6,105.21.86,148.16,4.83,67.5,23.75,190.23,32.77,226.12h15.86V27.85s-8.55-9.74-20.82-7.8Z"/>
      <path class="cls-16" d="m164.65,151.87h-.02c.63-.51-5.37-104.96,22.41-127.56-.09.02-.17.04-.26.07,1.32-.68.79-.59,2.39-1.6-10.93-2.28-20.64-.78-29.15,4.03-11.5,6.5-17.72,17.5-18.36,18.14.8-.36.81-.45-.19.34-9.91,14.88-15.41,35.67-18.55,53.22-1.61,8.05-2.76,20.36-3.43,27.91-2.05,28.42-.97,51.32,1.08,75.42,0,4,4.42,39.41,6.94,51.98.64,3.22,6.44,39.6,21.23,87.85,0,.37,5.21,16.57,5.34,16.94,15.1,45.99,30.71,80.88,34.97,92.81h12.13c-4.7-18.7-11.94-62.14-14.93-81.32-11.12-70.07-20.27-147.83-21.61-218.24Z"/>
      <path class="cls-19" d="m119.49,126.41c2.33-26.21,5.91-50.19,17.8-73.97,0-.39,3.47-6.15,4.37-7.5.57-.57,6.71-11.55,18.36-18.14-10.04,1.12-19.67,3.84-28.62,8.36-.64.21-2.85,1.54-7.43,4.18-.39.29-2.88,1.78-6.34,4.55-.43.22-5.09,4.23-5.63,4.78-43.64,41.18-42.08,124.84-30.49,183.12,1.66,9.13,5.62,24.21,6.16,25.82,2.69,13.44,22.76,66.4,22.76,64.23,0,.48,7.86,18.05,11.38,25.56,23.59,49.98,46.66,87.29,56.35,104.01h10.9c-12.13-33.96-80.15-178.03-69.56-325.01Z"/>
      <path class="cls-21" d="m74.71,356.22c1.81,1.5,2.51,2.06,0,0h0Z"/>
      <path class="cls-22" d="m73.07,311.48c-10.77-22.26-19.45-46.79-23.44-62.43-13.37-49.02-16.43-119.47,8.66-163.68v-.04c5.68-10.07,8.5-12.83,8.06-12.61l.07-.04h.04c5.25-7.22,12.8-14.94,21.12-20.86-22.96,8.78-41.81,27.03-53.78,47.77-1.61,2.86-1.64,2.75-2.13,3.84-21.89,39.16-22.26,94.64-10.75,137.3.69,0,3.81,19.97,19.29,53.66.04.15.11.26.19.37,13.11,29.13,33.92,61.46,34.3,61.46,2.51,2.06,1.81,1.5,0,0,22.08,33.92,51.57,70.06,76.73,95.2h14.29c-11.01-14.62-30.39-37.26-54.71-73.74-.91,0-28.12-45.47-37.95-66.2Z"/>
      <path class="cls-17" d="m74.68,356.22C33.65,293.05,5.21,225.73,15.79,151.79c2.69-17.04,8.26-35.13,16.87-50.19.61-1.21,4.71-7.93,6.12-9.85,4.55-6.65,7.55-10,10.67-13.44C10.19,106.95-1.63,154.55,0,202.69l.04-.14c-.01.12-.03.24-.04.36,3.07,79.7,53.93,153.19,108.37,211.04,14.7,15.8,30.06,30.45,37.13,37.47h5.93c-25.29-25.28-54.77-61.46-76.73-95.2h-.04ZM14.09,166.28c-.42,5.23-.67,10.62-.67,16.21-.01-5.71.23-10.98.67-16.21Zm-.67,16.23c0,2.37.06,4.79.14,7.22-.08-2.43-.14-4.86-.14-7.22Zm.53,14.94s0,.07,0,.11c0-.04,0-.07,0-.11Z"/>
    </g>
    <path class="cls-7" d="m145.51,451.42c7.31,15.23,14.59,26.12,20.11,50.68h102.85c6.87-30.34,12.02-37.32,20.12-50.68-24.27-12.76-120.37-10.59-143.08,0Z"/>
    <path class="cls-2" d="m217.05,495.86c-28.4,0-51.43,2.8-51.43,6.25s23.02,6.24,51.43,6.24,51.43-2.8,51.43-6.24-23.02-6.25-51.43-6.25Z"/>
  </g>
  <g>
    <path class="cls-3" d="m228.92,552.26h-18.37c-2.9,0-5.36,1.56-5.99,3.78l-5.39,19,2.25.64,5.39-19c.34-1.19,1.94-2.08,3.74-2.08h18.37c1.77,0,3.38.88,3.73,2.05l5.79,19.05,2.24-.68-5.79-19.05c-.67-2.19-3.12-3.71-5.97-3.71Z"/>
    <g>
      <path class="cls-20" d="m224.93,533.77c-1.11,0-2.62,6.7-2.62,6.7,0,0-1.41-10.33-2.92-10.25-1.51.08-3.02,9.52-3.02,9.52,0,0-1.91-7.02-3.42-6.94-1.51.08-2.77,15.18-1.01,17.11,2.21,2.42,11.88,2.5,14.39.4,2.52-2.1-.3-16.55-1.41-16.55Z"/>
      <path class="cls-18" d="m222.55,540.44c-.72,0-1.7,4.35-1.7,4.35,0,0-.92-6.71-1.9-6.66s-1.96,6.19-1.96,6.19c0,0-1.24-4.56-2.22-4.51s-1.8,9.86-.65,11.12c1.44,1.57,7.72,1.63,9.35.26,1.63-1.36-.2-10.75-.92-10.75Z"/>
    </g>
    <polygon class="cls-3" points="172.6 499.08 208.16 554.18 208.95 553.68 173.38 498.58 172.6 499.08"/>
    <rect class="cls-3" x="213.85" y="525.55" width="63.18" height=".93" transform="translate(-333.26 480.94) rotate(-60.53)"/>
    <rect class="cls-3" x="196.54" y="524.24" width="57.59" height=".93" transform="translate(-313.94 712.53) rotate(-85.96)"/>
    <polygon class="cls-3" points="172.54 498.96 195.49 575.49 196.39 575.22 173.44 498.69 172.54 498.96"/>
    <polygon class="cls-3" points="244.1 573.2 245.01 573.4 261.46 498.62 260.55 498.42 244.1 573.2"/>
    <polygon class="cls-3" points="199.84 496.31 214.46 553.54 215.36 553.31 200.75 496.08 199.84 496.31"/>
    <path class="cls-4" d="m242.54,572.64h-45.23c-1.91,0-3.47,1.56-3.47,3.47l3.44,30.31c0,1.91,1.35,3.47,3.01,3.47h39.26c1.66,0,3.01-1.56,3.01-3.47l3.44-30.31c0-1.91-1.56-3.47-3.47-3.47Z"/>
    <path class="cls-6" d="m240.84,578.73h3.02c1.66,0,3,1.35,3,3v9.44c0,1.66-1.35,3-3,3h-3.02c-1.66,0-3-1.35-3-3v-9.44c0-1.66,1.35-3,3-3Z"/>
    <rect class="cls-6" x="222.75" y="578.73" width="9.03" height="15.44" rx="3.33" ry="3.33"/>
    <rect class="cls-6" x="207.66" y="578.73" width="9.03" height="15.44" rx="3.53" ry="3.53"/>
    <rect class="cls-6" x="192.57" y="578.73" width="9.03" height="15.44" rx="3.42" ry="3.42"/>
  </g>
</svg>