<?xml version="1.0" encoding="UTF-8"?>
<svg xmlns="http://www.w3.org/2000/svg" xmlns:xlink="http://www.w3.org/1999/xlink" viewBox="0 0 434.3 610.62">
  <defs>
    <style>
      .cls-1 {
        fill: url(#linear-gradient);
      }

      .cls-2 {
        fill: #f8b33e;
      }

      .cls-3 {
        fill: #f08084;
      }

      .cls-4 {
        fill: #ffca66;
      }

      .cls-5 {
        fill: #e6645c;
      }

      .cls-6 {
        fill: #e66070;
      }

      .cls-7 {
        fill: #967c77;
      }

      .cls-8 {
        fill: #2c113e;
      }

      .cls-9 {
        fill: #4c4869;
      }

      .cls-10 {
        fill: url(#linear-gradient-8);
      }

      .cls-11 {
        fill: url(#linear-gradient-9);
      }

      .cls-12 {
        fill: url(#linear-gradient-3);
      }

      .cls-13 {
        fill: url(#linear-gradient-4);
      }

      .cls-14 {
        fill: url(#linear-gradient-2);
      }

      .cls-15 {
        fill: url(#linear-gradient-6);
      }

      .cls-16 {
        fill: url(#linear-gradient-7);
      }

      .cls-17 {
        fill: url(#linear-gradient-5);
      }

      .cls-18 {
        fill: url(#linear-gradient-14);
      }

      .cls-19 {
        fill: url(#linear-gradient-18);
      }

      .cls-20 {
        fill: url(#linear-gradient-15);
      }

      .cls-21 {
        fill: url(#linear-gradient-16);
      }

      .cls-22 {
        fill: url(#linear-gradient-17);
      }

      .cls-23 {
        fill: url(#linear-gradient-13);
      }

      .cls-24 {
        fill: url(#linear-gradient-12);
      }

      .cls-25 {
        fill: url(#linear-gradient-10);
      }

      .cls-26 {
        fill: url(#linear-gradient-11);
      }

      .cls-27 {
        isolation: isolate;
      }

      .cls-28 {
        mix-blend-mode: soft-light;
        opacity: .79;
      }
    </style>
    <linearGradient id="linear-gradient" x1="302.96" y1="35.59" x2="303.2" y2="35.45" gradientUnits="userSpaceOnUse">
      <stop offset="0" stop-color="#fff"/>
      <stop offset="1" stop-color="#541922"/>
    </linearGradient>
    <linearGradient id="linear-gradient-2" x1="252.37" y1="248.16" x2="380.96" y2="231.57" gradientUnits="userSpaceOnUse">
      <stop offset="0" stop-color="#541922"/>
      <stop offset="1" stop-color="#fff"/>
    </linearGradient>
    <linearGradient id="linear-gradient-3" x1="202.29" y1="239.84" x2="273.36" y2="230.67" xlink:href="#linear-gradient-2"/>
    <linearGradient id="linear-gradient-4" x1="221.56" y1="240.3" x2="311.66" y2="228.67" xlink:href="#linear-gradient-2"/>
    <linearGradient id="linear-gradient-5" x1="237.87" y1="242.87" x2="349.84" y2="228.42" xlink:href="#linear-gradient-2"/>
    <linearGradient id="linear-gradient-6" x1="357.97" y1="357.22" x2="359.28" y2="357.05" xlink:href="#linear-gradient-2"/>
    <linearGradient id="linear-gradient-7" x1="267.57" y1="257.94" x2="404.73" y2="240.24" xlink:href="#linear-gradient-2"/>
    <linearGradient id="linear-gradient-8" x1="283.41" y1="271.98" x2="419.06" y2="254.48" xlink:href="#linear-gradient-2"/>
    <linearGradient id="linear-gradient-9" x1="-4.81" y1="84.99" x2="77.32" y2="55.13" xlink:href="#linear-gradient-2"/>
    <linearGradient id="linear-gradient-10" x1="64.37" y1="275.1" x2="146.47" y2="245.25" xlink:href="#linear-gradient-2"/>
    <linearGradient id="linear-gradient-11" x1="170.06" y1="240.72" x2="225.21" y2="233.6" xlink:href="#linear-gradient-2"/>
    <linearGradient id="linear-gradient-12" x1="130.04" y1="251.92" x2="190.76" y2="236.06" xlink:href="#linear-gradient-2"/>
    <linearGradient id="linear-gradient-13" x1="92.38" y1="262.75" x2="168.89" y2="240.36" xlink:href="#linear-gradient-2"/>
    <linearGradient id="linear-gradient-14" x1="75.29" y1="357.33" x2="75.75" y2="357.1" xlink:href="#linear-gradient-2"/>
    <linearGradient id="linear-gradient-15" x1="41.3" y1="293.89" x2="120.61" y2="254.71" xlink:href="#linear-gradient-2"/>
    <linearGradient id="linear-gradient-16" x1="29.33" y1="302.22" x2="87.57" y2="271.89" xlink:href="#linear-gradient-2"/>
    <linearGradient id="linear-gradient-17" x1="219.29" y1="552.01" x2="219.41" y2="530.82" gradientUnits="userSpaceOnUse">
      <stop offset="0" stop-color="#ffe8c0"/>
      <stop offset=".12" stop-color="#f6c468"/>
      <stop offset="1" stop-color="#ff4963"/>
    </linearGradient>
    <linearGradient id="linear-gradient-18" x1="218.92" y1="552.55" x2="219" y2="538.79" gradientUnits="userSpaceOnUse">
      <stop offset="0" stop-color="#ffe8c0"/>
      <stop offset=".36" stop-color="#f6c468"/>
      <stop offset="1" stop-color="#ff4963"/>
    </linearGradient>
  </defs>
  <g class="cls-27">
    <g id="Layer_1" data-name="Layer 1">
      <g>
        <g>
          <g>
            <g>
              <path class="cls-2" d="m302.76,35.41c.49.16,1.04.5.04-.04l-.04.04Z"/>
              <path class="cls-2" d="m375.87,85.57c-17.14-30.4-43.07-46.55-72.03-49.63,1.71.98,6.34,3.68,6.81,3.96-.41,0,19.77,10.98,32.9,38.89h.04c.33.82,5.42,10.91,9.14,25.34,11.5,40.25,6.74,102.38-3.36,142.78-14.21,58.12-44.59,119.96-74.08,171.74h-.04c-11.49,20.1-13.31,22.78-19.26,33.03h12.43c9.75-12.94,29.98-36.64,54.71-73.74h.04c2.58-3.88,5.15-7.87,7.76-11.98-.88-2.05-.66-1.64,0-.04,30.19-46.94,55.8-103.24,61.54-159.16,4.48-39.57,2.96-86.65-16.61-121.14v-.04Z"/>
            </g>
            <path class="cls-2" d="m237.94,20.3c-12.28-1.94-20.82,7.8-20.82,7.8v423.57h15.86c8.46-33.68,27.74-155.86,32.77-226.12,3.46-42.86,6.35-105.28.86-148.16-2.58-20.04-8.83-53.69-28.66-57.1Z"/>
            <path class="cls-3" d="m292.68,45.53c-1-.79-.98-.7-.19-.34-.64-.64-6.86-11.64-18.36-18.14-8.51-4.81-18.21-6.31-29.15-4.03,1.6,1.01,1.07.92,2.39,1.6-.09-.02-.17-.05-.26-.07,51.22,41.66,2.05,362.63-14.14,427.11h12.13c1.39-3.9,11.23-27.79,16.83-42.36.73,0,23.47-64.57,23.47-67.4,20.68-67.48,34.29-145.41,29.26-215.26-2.32-26.03-7.36-59.18-21.98-81.13Z"/>
            <path class="cls-6" d="m316.53,44.15c-3.47-2.77-5.95-4.26-6.34-4.55-4.57-2.64-6.79-3.97-7.43-4.18-8.96-4.52-18.58-7.24-28.62-8.36,29.4,16.62,37.53,65.95,40.53,99.6,6.48,89.99-16.45,185.19-48.07,270.49-7.75,20.63-19.94,50.15-21.5,54.52h10.9c9.97-17.2,32.61-53.71,56.35-104.01,11.51-24.58,11.38-26.04,11.38-25.49,11.94-27.66,21.79-59.45,22.76-64.3-1.04.71-1.04.68,0,0,.54-1.61,4.5-16.69,6.16-25.82,11.63-58.49,13.08-142.01-30.49-183.12-.54-.55-5.2-4.56-5.63-4.78Z"/>
            <path class="cls-3" d="m359.45,356.47c-2.51,2.06-1.81,1.5,0,0h0Z"/>
            <path class="cls-3" d="m402.48,103.67c-.49-1.1-.52-.98-2.13-3.84-11.95-20.72-30.8-38.98-53.78-47.77,11.63,8.27,20.92,18.66,29.3,33.51v.04c14.61,25.75,18.73,57.41,18.73,86.92,0,76.66-29.45,142.13-71.43,205.4h-.04c-24.25,36.38-43.96,59.47-54.71,73.74h14.29c25.16-25.14,54.65-61.28,76.73-95.2-1.81,1.5-2.51,2.06,0,0h.04c38.98-60.03,68.63-128.19,59.67-198.91-1.76-16.4-7.83-38.05-16.68-53.89Z"/>
            <path class="cls-6" d="m384.71,78.55c3.13,3.44,6.12,6.79,10.67,13.44,1.41,1.92,5.51,8.64,6.12,9.85,14.15,24.76,19.76,55.89,19.13,86.34.05-1.82.11-3.65.1-5.43,0,1.78-.05,3.61-.1,5.43,0,.1,0,.2,0,.29-.01.5-.01.99-.03,1.5.02-.5.01-.99.03-1.5-.4,18.26-3.03,36.26-7.41,52.49-.63,0-2.78,14.98-14.89,43.66-7.94,21.18-40.11,78.78-70.83,116.14-13.68,16.63-29.21,35.34-44.78,50.9h5.93c7.07-7.02,22.44-21.67,37.13-37.47,54.3-57.69,105.3-131.23,108.37-211.04-.02-.12-.03-.24-.04-.36l.04.14c1.63-48.14-10.19-95.75-49.45-124.38Zm36.03,104.18c0-5.59-.25-10.98-.67-16.21.45,5.24.69,10.5.67,16.21Z"/>
            <g>
              <path class="cls-6" d="m131.54,35.41l-.04-.04c-1.05.56-.37.17.04.04Z"/>
              <path class="cls-6" d="m159.01,418.64c-37.34-65.59-73.7-141.52-81.8-216.15C61.72,63.33,127.33,39.89,123.65,39.89c.47-.28,5.1-2.97,6.81-3.96-22.03,2.35-43,12.44-59.38,31.41-1.86,1.92-3.39,3.8-4.47,5.57h-.04c-.25.37-3.44,4.33-8.14,12.65v.04c-8.89,15.67-15.16,38.49-16.94,55.49,0,2.59-1.79,9.18-1.79,31.42,0,70.24,25.86,134.61,63.67,193.39v.04c2.61,4.11,5.19,8.1,7.76,11.98h.04c24.45,36.69,45.16,61.06,54.71,73.74h12.43c-5.94-10.25-7.77-12.92-19.26-33.03h-.04Z"/>
            </g>
            <path class="cls-6" d="m196.37,20.3c-19.83,3.41-26.08,37.04-28.66,57.1-5.48,42.85-2.6,105.21.86,148.16,4.83,67.5,23.75,190.23,32.77,226.12h15.86V28.1s-8.55-9.74-20.82-7.8Z"/>
            <path class="cls-3" d="m164.79,152.11h-.02c.63-.51-5.37-104.96,22.41-127.56-.09.02-.17.04-.26.07,1.32-.68.79-.59,2.39-1.6-10.93-2.28-20.64-.78-29.15,4.03-11.5,6.5-17.72,17.5-18.36,18.14.79-.36.81-.45-.19.34-9.91,14.88-15.41,35.67-18.55,53.22-1.61,8.05-2.76,20.36-3.43,27.91-2.05,28.42-.97,51.32,1.08,75.42,0,4,4.42,39.41,6.94,51.98.64,3.22,6.45,39.6,21.23,87.85,0,.37,5.21,16.57,5.34,16.94,15.1,45.99,30.71,80.88,34.97,92.81h12.13c-4.7-18.7-11.94-62.14-14.93-81.32-11.12-70.07-20.27-147.84-21.61-218.24Z"/>
            <path class="cls-2" d="m119.64,126.66c2.33-26.21,5.91-50.19,17.8-73.97,0-.39,3.47-6.15,4.37-7.5.57-.57,6.71-11.55,18.36-18.14-10.04,1.12-19.67,3.84-28.62,8.36-.64.21-2.85,1.54-7.43,4.18-.39.3-2.88,1.78-6.34,4.55-.43.22-5.09,4.23-5.63,4.78-43.64,41.18-42.08,124.84-30.49,183.12,1.66,9.13,5.62,24.21,6.16,25.82,2.69,13.44,22.76,66.4,22.76,64.23,0,.48,7.86,18.05,11.38,25.56,23.59,49.99,46.66,87.29,56.35,104.01h10.9c-12.13-33.96-80.15-178.03-69.56-325.01Z"/>
            <path class="cls-3" d="m74.86,356.47c1.81,1.5,2.51,2.06,0,0h0Z"/>
            <path class="cls-3" d="m73.21,311.72c-10.77-22.26-19.45-46.79-23.44-62.43-13.37-49.02-16.43-119.47,8.66-163.68v-.04c5.68-10.07,8.5-12.83,8.06-12.61l.07-.04h.04c5.25-7.22,12.8-14.94,21.12-20.86-22.96,8.78-41.81,27.03-53.78,47.77-1.61,2.86-1.64,2.75-2.13,3.84-21.89,39.16-22.26,94.64-10.75,137.3.69,0,3.81,19.97,19.29,53.66.04.15.11.26.19.37,13.11,29.13,33.92,61.46,34.3,61.46,2.51,2.06,1.81,1.5,0,0,22.08,33.93,51.57,70.06,76.73,95.2h14.29c-11.01-14.62-30.39-37.26-54.71-73.74-.91,0-28.12-45.47-37.95-66.2Z"/>
            <path class="cls-2" d="m74.82,356.47C33.79,293.29,5.36,225.97,15.93,152.03c2.69-17.04,8.26-35.13,16.87-50.19.61-1.21,4.71-7.93,6.12-9.85,4.55-6.65,7.55-10,10.67-13.44C10.34,107.19-1.48,154.79.14,202.94l.04-.14c-.01.12-.03.24-.04.36,3.07,79.7,53.93,153.19,108.37,211.04,14.7,15.8,30.06,30.45,37.13,37.47h5.93c-25.29-25.28-54.77-61.46-76.73-95.2h-.04ZM14.23,166.52c-.42,5.23-.67,10.62-.67,16.21-.01-5.71.23-10.98.67-16.21Zm-.67,16.23c0,2.37.06,4.79.14,7.22-.08-2.43-.14-4.86-.14-7.22Zm.53,14.94s0,.07,0,.11c0-.04,0-.07,0-.11Z"/>
          </g>
          <g class="cls-28">
            <g>
              <path class="cls-1" d="m302.76,35.41c.49.16,1.04.5.04-.04l-.04.04Z"/>
              <path class="cls-14" d="m375.87,85.57c-17.14-30.4-43.07-46.55-72.03-49.63,1.71.98,6.34,3.68,6.81,3.96-.41,0,19.77,10.98,32.9,38.89h.04c.33.82,5.42,10.91,9.14,25.34,11.5,40.25,6.74,102.38-3.36,142.78-14.21,58.12-44.59,119.96-74.08,171.74h-.04c-11.49,20.1-13.31,22.78-19.26,33.03h12.43c9.75-12.94,29.98-36.64,54.71-73.74h.04c2.58-3.88,5.15-7.87,7.76-11.98-.88-2.05-.66-1.64,0-.04,30.19-46.94,55.8-103.24,61.54-159.16,4.48-39.57,2.96-86.65-16.61-121.14v-.04Z"/>
            </g>
            <path class="cls-12" d="m237.94,20.3c-12.28-1.94-20.82,7.8-20.82,7.8v423.57h15.86c8.46-33.68,27.74-155.86,32.77-226.12,3.46-42.86,6.35-105.28.86-148.16-2.58-20.04-8.83-53.69-28.66-57.1Z"/>
            <path class="cls-13" d="m292.68,45.53c-1-.79-.98-.7-.19-.34-.64-.64-6.86-11.64-18.36-18.14-8.51-4.81-18.21-6.31-29.15-4.03,1.6,1.01,1.07.92,2.39,1.6-.09-.02-.17-.05-.26-.07,51.22,41.66,2.05,362.63-14.14,427.11h12.13c1.39-3.9,11.23-27.79,16.83-42.36.73,0,23.47-64.57,23.47-67.4,20.68-67.48,34.29-145.41,29.26-215.26-2.32-26.03-7.36-59.18-21.98-81.13Z"/>
            <path class="cls-17" d="m316.53,44.15c-3.47-2.77-5.95-4.26-6.34-4.55-4.57-2.64-6.79-3.97-7.43-4.18-8.96-4.52-18.58-7.24-28.62-8.36,29.4,16.62,37.53,65.95,40.53,99.6,6.48,89.99-16.45,185.19-48.07,270.49-7.75,20.63-19.94,50.15-21.5,54.52h10.9c9.97-17.2,32.61-53.71,56.35-104.01,11.51-24.58,11.38-26.04,11.38-25.49,11.94-27.66,21.79-59.45,22.76-64.3-1.04.71-1.04.68,0,0,.54-1.61,4.5-16.69,6.16-25.82,11.63-58.49,13.08-142.01-30.49-183.12-.54-.55-5.2-4.56-5.63-4.78Z"/>
            <path class="cls-15" d="m359.45,356.47c-2.51,2.06-1.81,1.5,0,0h0Z"/>
            <path class="cls-16" d="m402.48,103.67c-.49-1.1-.52-.98-2.13-3.84-11.95-20.72-30.8-38.98-53.78-47.77,11.63,8.27,20.92,18.66,29.3,33.51v.04c14.61,25.75,18.73,57.41,18.73,86.92,0,76.66-29.45,142.13-71.43,205.4h-.04c-24.25,36.38-43.96,59.47-54.71,73.74h14.29c25.16-25.14,54.65-61.28,76.73-95.2-1.81,1.5-2.51,2.06,0,0h.04c38.98-60.03,68.63-128.19,59.67-198.91-1.76-16.4-7.83-38.05-16.68-53.89Z"/>
            <path class="cls-10" d="m384.71,78.55c3.13,3.44,6.12,6.79,10.67,13.44,1.41,1.92,5.51,8.64,6.12,9.85,14.15,24.76,19.76,55.89,19.13,86.34.05-1.82.11-3.65.1-5.43,0,1.78-.05,3.61-.1,5.43,0,.1,0,.2,0,.29-.01.5-.01.99-.03,1.5.02-.5.01-.99.03-1.5-.4,18.26-3.03,36.26-7.41,52.49-.63,0-2.78,14.98-14.89,43.66-7.94,21.18-40.11,78.78-70.83,116.14-13.68,16.63-29.21,35.34-44.78,50.9h5.93c7.07-7.02,22.44-21.67,37.13-37.47,54.3-57.69,105.3-131.23,108.37-211.04-.02-.12-.03-.24-.04-.36l.04.14c1.63-48.14-10.19-95.75-49.45-124.38Zm36.03,104.18c0-5.59-.25-10.98-.67-16.21.45,5.24.69,10.5.67,16.21Z"/>
            <g>
              <path class="cls-11" d="m131.54,35.41l-.04-.04c-1.05.56-.37.17.04.04Z"/>
              <path class="cls-25" d="m159.01,418.64c-37.34-65.59-73.7-141.52-81.8-216.15C61.72,63.33,127.33,39.89,123.65,39.89c.47-.28,5.1-2.97,6.81-3.96-22.03,2.35-43,12.44-59.38,31.41-1.86,1.92-3.39,3.8-4.47,5.57h-.04c-.25.37-3.44,4.33-8.14,12.65v.04c-8.89,15.67-15.16,38.49-16.94,55.49,0,2.59-1.79,9.18-1.79,31.42,0,70.24,25.86,134.61,63.67,193.39v.04c2.61,4.11,5.19,8.1,7.76,11.98h.04c24.45,36.69,45.16,61.06,54.71,73.74h12.43c-5.94-10.25-7.77-12.92-19.26-33.03h-.04Z"/>
            </g>
            <path class="cls-26" d="m196.37,20.3c-19.83,3.41-26.08,37.04-28.66,57.1-5.48,42.85-2.6,105.21.86,148.16,4.83,67.5,23.75,190.23,32.77,226.12h15.86V28.1s-8.55-9.74-20.82-7.8Z"/>
            <path class="cls-24" d="m164.79,152.11h-.02c.63-.51-5.37-104.96,22.41-127.56-.09.02-.17.04-.26.07,1.32-.68.79-.59,2.39-1.6-10.93-2.28-20.64-.78-29.15,4.03-11.5,6.5-17.72,17.5-18.36,18.14.79-.36.81-.45-.19.34-9.91,14.88-15.41,35.67-18.55,53.22-1.61,8.05-2.76,20.36-3.43,27.91-2.05,28.42-.97,51.32,1.08,75.42,0,4,4.42,39.41,6.94,51.98.64,3.22,6.45,39.6,21.23,87.85,0,.37,5.21,16.57,5.34,16.94,15.1,45.99,30.71,80.88,34.97,92.81h12.13c-4.7-18.7-11.94-62.14-14.93-81.32-11.12-70.07-20.27-147.84-21.61-218.24Z"/>
            <path class="cls-23" d="m119.64,126.66c2.33-26.21,5.91-50.19,17.8-73.97,0-.39,3.47-6.15,4.37-7.5.57-.57,6.71-11.55,18.36-18.14-10.04,1.12-19.67,3.84-28.62,8.36-.64.21-2.85,1.54-7.43,4.18-.39.3-2.88,1.78-6.34,4.55-.43.22-5.09,4.23-5.63,4.78-43.64,41.18-42.08,124.84-30.49,183.12,1.66,9.13,5.62,24.21,6.16,25.82,2.69,13.44,22.76,66.4,22.76,64.23,0,.48,7.86,18.05,11.38,25.56,23.59,49.99,46.66,87.29,56.35,104.01h10.9c-12.13-33.96-80.15-178.03-69.56-325.01Z"/>
            <path class="cls-18" d="m74.86,356.47c1.81,1.5,2.51,2.06,0,0h0Z"/>
            <path class="cls-20" d="m73.21,311.72c-10.77-22.26-19.45-46.79-23.44-62.43-13.37-49.02-16.43-119.47,8.66-163.68v-.04c5.68-10.07,8.5-12.83,8.06-12.61l.07-.04h.04c5.25-7.22,12.8-14.94,21.12-20.86-22.96,8.78-41.81,27.03-53.78,47.77-1.61,2.86-1.64,2.75-2.13,3.84-21.89,39.16-22.26,94.64-10.75,137.3.69,0,3.81,19.97,19.29,53.66.04.15.11.26.19.37,13.11,29.13,33.92,61.46,34.3,61.46,2.51,2.06,1.81,1.5,0,0,22.08,33.93,51.57,70.06,76.73,95.2h14.29c-11.01-14.62-30.39-37.26-54.71-73.74-.91,0-28.12-45.47-37.95-66.2Z"/>
            <path class="cls-21" d="m74.82,356.47C33.79,293.29,5.36,225.97,15.93,152.03c2.69-17.04,8.26-35.13,16.87-50.19.61-1.21,4.71-7.93,6.12-9.85,4.55-6.65,7.55-10,10.67-13.44C10.34,107.19-1.48,154.79.14,202.94l.04-.14c-.01.12-.03.24-.04.36,3.07,79.7,53.93,153.19,108.37,211.04,14.7,15.8,30.06,30.45,37.13,37.47h5.93c-25.29-25.28-54.77-61.46-76.73-95.2h-.04ZM14.23,166.52c-.42,5.23-.67,10.62-.67,16.21-.01-5.71.23-10.98.67-16.21Zm-.67,16.23c0,2.37.06,4.79.14,7.22-.08-2.43-.14-4.86-.14-7.22Zm.53,14.94s0,.07,0,.11c0-.04,0-.07,0-.11Z"/>
          </g>
          <path class="cls-5" d="m145.65,451.67c7.31,15.23,14.59,26.12,20.11,50.68h102.85c6.87-30.34,12.02-37.32,20.11-50.68-24.27-12.76-120.37-10.59-143.08,0Z"/>
          <path class="cls-4" d="m217.19,496.1c-28.4,0-51.43,2.8-51.43,6.25s23.02,6.25,51.43,6.25,51.43-2.8,51.43-6.25-23.02-6.25-51.43-6.25Z"/>
        </g>
        <g>
          <path class="cls-7" d="m229.03,552.99h-18.37c-2.9,0-5.36,1.56-5.99,3.78l-5.39,19,2.25.64,5.39-19c.34-1.19,1.94-2.08,3.74-2.08h18.37c1.77,0,3.38.88,3.73,2.05l5.79,19.05,2.24-.68-5.79-19.05c-.67-2.19-3.12-3.71-5.97-3.71Z"/>
          <g>
            <path class="cls-22" d="m225.04,534.5c-1.11,0-2.62,6.7-2.62,6.7,0,0-1.41-10.33-2.92-10.25-1.51.08-3.02,9.52-3.02,9.52,0,0-1.91-7.02-3.42-6.94-1.51.08-2.77,15.18-1.01,17.11,2.21,2.42,11.88,2.5,14.39.4,2.52-2.1-.3-16.55-1.41-16.55Z"/>
            <path class="cls-19" d="m222.66,541.18c-.72,0-1.7,4.35-1.7,4.35,0,0-.92-6.71-1.9-6.66-.98.05-1.96,6.19-1.96,6.19,0,0-1.24-4.56-2.22-4.51-.98.05-1.8,9.86-.65,11.12,1.44,1.57,7.72,1.63,9.35.26,1.63-1.36-.2-10.75-.92-10.75Z"/>
          </g>
          <polygon class="cls-7" points="172.71 499.81 208.27 554.92 209.06 554.41 173.49 499.31 172.71 499.81"/>
          <rect class="cls-7" x="213.96" y="526.28" width="63.18" height=".93" transform="translate(-333.85 481.46) rotate(-60.54)"/>
          <rect class="cls-7" x="196.65" y="524.97" width="57.59" height=".93" transform="translate(-314.57 713.32) rotate(-85.96)"/>
          <polygon class="cls-7" points="172.65 499.69 195.6 576.22 196.5 575.95 173.55 499.43 172.65 499.69"/>
          <polygon class="cls-7" points="244.21 573.93 245.12 574.13 261.57 499.36 260.66 499.15 244.21 573.93"/>
          <polygon class="cls-7" points="199.95 497.05 214.57 554.27 215.47 554.04 200.86 496.81 199.95 497.05"/>
          <path class="cls-8" d="m242.65,573.38h-45.23c-1.91,0-3.47,1.56-3.47,3.47l3.44,30.31c0,1.91,1.35,3.47,3.01,3.47h39.26c1.66,0,3.01-1.56,3.01-3.47l3.44-30.31c0-1.91-1.56-3.47-3.47-3.47Z"/>
          <path class="cls-9" d="m240.95,579.46h3.02c1.66,0,3,1.35,3,3v9.44c0,1.66-1.35,3-3,3h-3.02c-1.66,0-3-1.35-3-3v-9.44c0-1.66,1.35-3,3-3Z"/>
          <rect class="cls-9" x="222.86" y="579.46" width="9.03" height="15.45" rx="3.33" ry="3.33"/>
          <rect class="cls-9" x="207.77" y="579.46" width="9.03" height="15.45" rx="3.53" ry="3.53"/>
          <rect class="cls-9" x="192.68" y="579.46" width="9.03" height="15.45" rx="3.42" ry="3.42"/>
        </g>
      </g>
    </g>
  </g>
</svg>