<svg version="1.2" xmlns="http://www.w3.org/2000/svg" viewBox="0 0 496 496" width="496" height="496">
	<title>rh city logo white-svg</title>
	<defs>
		<clipPath clipPathUnits="userSpaceOnUse" id="cp1">
			<path d="m0 0h496v496h-496z"/>
		</clipPath>
	</defs>
	<style>
		.s0 { fill: #ff583d } 
	</style>
	<g id="Clip-Path" clip-path="url(#cp1)">
		<g id="Layer">
			<path id="Layer" fill-rule="evenodd" class="s0" d="m248 0c49.1 0 97 14.5 137.8 41.8 40.8 27.2 72.6 66 91.3 111.3 18.8 45.3 23.7 95.2 14.1 143.3-9.5 48.1-33.2 92.3-67.8 127-34.7 34.6-78.9 58.3-127 67.8-48.1 9.6-98 4.7-143.3-14.1-45.3-18.7-84.1-50.5-111.3-91.3-27.3-40.8-41.8-88.8-41.8-137.8 0-65.8 26.1-128.9 72.6-175.4 46.5-46.5 109.6-72.6 175.4-72.6zm124.8 397.4c0 0 77.4-59.1 70.2-160.2-9-125.4-112.9-184.4-194.5-184.4-65.5 0-106.6 31.2-108.6 32.9h-0.2l-3 2.3c0 0 43.9-0.3 47.8 0 3.9 0.2 42-0.6 66.5 25.4 42.2 44.8 28.6 82.5 25.2 99-4 19.6-24.5 35.8-24.5 35.8 5.2 3.3 9.7 7.8 13 13.1 3.3 5.3 5.3 11.2 6 17.4v31.2h47.1v-93c-2.5 0.1-5.1-0.5-7.2-2-2.1-1.4-3.6-3.5-4.4-5.9 0 0-7.9-26-10.9-38.8-3.1-12.8 7.8-13.5 7.8-13.5h33.6v-33.1c0.2-4.3 2.2-7.8 8.6-7.7 2.2 0 4.4 0.8 6.1 2.3 1.6 1.5 2.6 3.5 2.8 5.8v32.1h31.9c1.5-0.1 3 0.2 4.5 0.8 1.4 0.6 2.7 1.5 3.7 2.6 1.1 1.2 1.9 2.5 2.4 4 0.4 1.4 0.6 3 0.5 4.5l-13.6 40c-0.9 2.2-2.4 4.1-4.3 5.6-1.9 1.5-4.1 2.4-6.5 2.8zm-54.8 32.9v-62.4h-47.5v74.2c0 0 36.7-5 47.5-11.8zm-99.8-241.4c3.1-29.9-27.8-44.8-45.4-45.2-17.5-0.5-87.8 0-87.8 0 0 0-1.6-0.3-2.2 0.7 0 0-55.3 80.9-15.7 177.8 3.6 8.8 43 102.4 146.8 118.1v-130.4c0 0 0-27.1-27.6-26.6h-34.8v52.7c0 0 0.5 7.4-5.9 7.4h-44.2q-1.1 0.1-2.1-0.2-1.1-0.3-1.9-1-0.9-0.8-1.4-1.8-0.4-0.9-0.5-2.1v-159.8c0 0 0.9-5.5 5.8-5.5h45.5c1.2 0.1 2.3 0.7 3.2 1.5 0.8 0.9 1.3 2 1.5 3.2v50.8c0 0 28.4 0.5 36.2 0 8.5-0.5 27.4-10.1 30.5-39.6z"/>
		</g>
	</g>
</svg>