<svg id="visual" viewBox="0 0 900 600" width="900" height="600" xmlns="http://www.w3.org/2000/svg" xmlns:xlink="http://www.w3.org/1999/xlink" version="1.1"><path d="M0 239L129 208L257 167L386 230L514 153L643 173L771 164L900 231L900 0L771 0L643 0L514 0L386 0L257 0L129 0L0 0Z" fill="#692b44"></path><path d="M0 153L129 156L257 178L386 154L514 192L643 176L771 160L900 179L900 0L771 0L643 0L514 0L386 0L257 0L129 0L0 0Z" fill="#59243f"></path><path d="M0 145L129 128L257 126L386 119L514 120L643 120L771 158L900 155L900 0L771 0L643 0L514 0L386 0L257 0L129 0L0 0Z" fill="#4a1d39"></path><path d="M0 110L129 113L257 60L386 61L514 57L643 62L771 79L900 71L900 0L771 0L643 0L514 0L386 0L257 0L129 0L0 0Z" fill="#3b1732"></path><path d="M0 26L129 35L257 46L386 37L514 52L643 48L771 64L900 31L900 0L771 0L643 0L514 0L386 0L257 0L129 0L0 0Z" fill="#2d112b"></path></svg>