<svg version="1.2" xmlns="http://www.w3.org/2000/svg" viewBox="0 0 900 250" width="900" height="250">
	<title>cave_down-svg</title>
	<style>
		.s0 { fill: #692b44 } 
		.s1 { fill: #59243f } 
		.s2 { fill: #4a1d39 } 
		.s3 { fill: #3b1732 } 
		.s4 { fill: #2d112b } 
	</style>
	<path id="Layer" class="s0" d="m0 0h129 128 129 128 129 128 129v231l-129-67-128 9-129-20-128 77-129-63-128 41-129 31z"/>
	<path id="Layer" class="s1" d="m0 0h129 128 129 128 129 128 129v179l-129-19-128 16-129 16-128-38-129 24-128-22-129-3z"/>
	<path id="Layer" class="s2" d="m0 0h129 128 129 128 129 128 129v155l-129 3-128-38h-129l-128-1-129 7-128 2-129 17z"/>
	<path id="Layer" class="s3" d="m0 0h129 128 129 128 129 128 129v71l-129 8-128-17-129-5-128 4-129-1-128 53-129-3z"/>
	<path id="Layer" class="s4" d="m0 0h129 128 129 128 129 128 129v31l-129 33-128-16-129 4-128-15-129 9-128-11-129-9z"/>
</svg>