<svg id="visual" viewBox="0 0 900 600" width="900" height="600" xmlns="http://www.w3.org/2000/svg" xmlns:xlink="http://www.w3.org/1999/xlink" version="1.1"><path d="M852 600L853.5 587.5C855 575 858 550 859.3 525C860.7 500 860.3 475 861.5 450C862.7 425 865.3 400 861.2 375C857 350 846 325 841.7 300C837.3 275 839.7 250 841.3 225C843 200 844 175 845 150C846 125 847 100 850.3 75C853.7 50 859.3 25 862.2 12.5L865 0L900 0L900 12.5C900 25 900 50 900 75C900 100 900 125 900 150C900 175 900 200 900 225C900 250 900 275 900 300C900 325 900 350 900 375C900 400 900 425 900 450C900 475 900 500 900 525C900 550 900 575 900 587.5L900 600Z" fill="#00213e" stroke-linecap="round" stroke-linejoin="miter"></path></svg>