<svg id="visual" viewBox="0 0 900 600" width="900" height="600" xmlns="http://www.w3.org/2000/svg" xmlns:xlink="http://www.w3.org/1999/xlink" version="1.1"><path d="M45 0L47.8 12.5C50.7 25 56.3 50 55.2 75C54 100 46 125 41 150C36 175 34 200 32.8 225C31.7 250 31.3 275 33.5 300C35.7 325 40.3 350 46 375C51.7 400 58.3 425 57 450C55.7 475 46.3 500 45.8 525C45.3 550 53.7 575 57.8 587.5L62 600L0 600L0 587.5C0 575 0 550 0 525C0 500 0 475 0 450C0 425 0 400 0 375C0 350 0 325 0 300C0 275 0 250 0 225C0 200 0 175 0 150C0 125 0 100 0 75C0 50 0 25 0 12.5L0 0Z" fill="#00213e" stroke-linecap="round" stroke-linejoin="miter"></path></svg>