<svg id="visual" viewBox="0 0 900 600" width="900" height="600" xmlns="http://www.w3.org/2000/svg" xmlns:xlink="http://www.w3.org/1999/xlink" version="1.1"><path d="M0 58L18.8 61.7C37.7 65.3 75.3 72.7 112.8 71C150.3 69.3 187.7 58.7 225.2 52.2C262.7 45.7 300.3 43.3 337.8 41.8C375.3 40.3 412.7 39.7 450.2 42.5C487.7 45.3 525.3 51.7 562.8 59.2C600.3 66.7 637.7 75.3 675.2 73.5C712.7 71.7 750.3 59.3 787.8 58.7C825.3 58 862.7 69 881.3 74.5L900 80L900 0L881.3 0C862.7 0 825.3 0 787.8 0C750.3 0 712.7 0 675.2 0C637.7 0 600.3 0 562.8 0C525.3 0 487.7 0 450.2 0C412.7 0 375.3 0 337.8 0C300.3 0 262.7 0 225.2 0C187.7 0 150.3 0 112.8 0C75.3 0 37.7 0 18.8 0L0 0Z" fill="#00213e" stroke-linecap="round" stroke-linejoin="miter"></path></svg>