<?xml version="1.0" encoding="UTF-8"?>
<svg id="Layer_1" data-name="Layer 1" xmlns="http://www.w3.org/2000/svg" viewBox="0 0 501 501.5">
  <defs>
    <style>
      .cls-1 {
        fill: #692b44;
        stroke: transparent;
        stroke-miterlimit: 10;
      }
    </style>
  </defs>
  <path class="cls-1"
    d="m487.45,451.65c3.73-2.84,8.43-4.58,13.05-4.38v-44.45c-3-3.1-5.31-6.79-6.12-11-1.47-7.7,1.85-15.14,6.12-21.97v-14.75c-1.59,1.46-3.15,2.94-4.78,4.34-6.16,5.24-12.78,9.83-20.8,12.1-8.69,2.46-18.45,1.89-26.21-2.73-10.87-6.48-32.95-39.84-15.35-48.83,3.24-1.65,6.99-1.89,10.63-2,17.55-.53,34.6,1.86,52.02,1.09,1.59-.07,3.06-.18,4.5-.29v-5.66c-13.39.26-26.76-.01-40.18-1.64-7.26-.88-15.92-3.19-17.92-10.22-.69-2.41-.41-4.97-.09-7.45.72-5.55,1.64-11.08,2.75-16.56.77-3.76,1.68-7.62,3.93-10.73,2.99-4.13,8.03-6.4,13.07-7.14,5.05-.74,10.18-.12,15.25.49,7.69.94,15.44,2.11,23.19,2.97v-9.53c-7.48.12-20.83,2.08-26.47-1.49-7.04-4.45-4.73-16.14-2.98-22.73,5.32-20.05,10.64-40.1,15.97-60.15,1.99-7.5,4.82-16,12-18.93.48-.2.99-.28,1.49-.42v-13.53c-1.74-.63-3.41-1.41-4.86-2.58-3.29-2.66-5.26-6.62-6.62-10.63-6.55-19.4-.25-40.35,11.48-57.67v-24.58c-3.03.86-5.92,1.57-8.53,2.09-4.23.84-8.61,1.4-12.82.51-9.73-2.07-16.36-11.58-18.63-21.27-1.68-7.14-1.47-14.34-.06-21.43h-11.77c.48.77.96,1.52,1.37,2.43,4.52,10.16,5.94,21.63,4.26,32.6-.86,5.62-2.94,10.59-4.67,15.94-1.39,4.28-2.21,8.5-5.71,11.76-2.91,2.71-6.9,3.91-10.78,4.76-20.84,4.55-43.21.65-61.67-9.88-6.43-3.67-20.98-11.58-21.07-20.19-.09-8.86,16.04-23.19,21.36-30.01,2.07-2.65,4.27-5.22,6.8-7.41h-10.29c-1.11,2.35-2.41,4.62-3.79,6.73-5.13,7.78-11.22,14.92-18.07,21.24-3.32,3.06-6.96,6-11.31,7.22-5.93,1.67-12.24-.09-18.08-2.06-6.3-2.12-12.93-4.83-16.56-10.39-3.81-5.84-3.39-13.39-2.75-20.33.06-.7.09-1.59.14-2.4h-36.11c-5.94,1.2-11.8,1.99-17.4,0h-14.39c.25,1.21.35,2.43.05,3.65-.77,3.15-3.02,5.72-5.33,7.99-11.08,10.86-25.16,18-39.14,24.79-.76.37-1.52.74-2.28,1.11-3.46,1.68-7.33,3.39-11.03,2.34-1.66-.47-3.13-1.48-4.41-2.63-6.61-5.95-9.21-18.93-12.81-26.99-1.51-3.38-2.84-6.82-4.22-10.25h-14.74c1.85,3.65,3.69,7.29,5.54,10.94,1.28,2.53,2.6,5.36,1.84,8.09-.72,2.62-3.13,4.36-5.39,5.86-9.26,6.16-18.75,11.99-28.44,17.45-11.16,6.29-13.85,6.4-21.33-4.28-8.58-12.24-16.43-24.97-23.64-38.06h-17.44c.09,21.05-26.61,34.39-46.66,40.11v24.58c3.65-5.39,7.81-10.44,12.28-14.97,9.69-9.8,21.02-18.22,33.95-23.01,5.51-2.04,11.87-3.35,17.1-.67,6.97,3.58,10.57,14.32,14.29,20.77,4.68,8.12,8.8,16.57,12.34,25.26,2.76,6.78,5.18,14.31,3.03,21.31-1.18,3.85-3.66,7.16-6.28,10.22-1.33,1.56-2.72,3.08-4.17,4.54-18.56,18.89-45.69,30-72.15,29.18-3.51-.11-7.12-.57-10.38-1.76v13.53c1.65-.47,3.35-.76,5.06-.93,9.49-.96,19.07-1.06,28.57-.28,3.93.32,8.02.85,11.26,3.1,4.22,2.92,6.18,8.29,6.26,13.42.08,5.13-1.46,10.13-2.98,15.02-5.01,16.13-10.02,32.25-15.03,48.38-2.7,8.69-6.09,18.24-14.14,22.48-5.25,2.77-11.49,2.67-17.42,2.51-.47-.01-1.05.01-1.58.02v9.53c4.04.45,8.09.84,12.12,1.01,2.69.11,5.37.15,8.05.08,11.88-.32,25.99-.65,37.2,3.8,10.08,4.01,8.09,16.44,7.29,25.84-.41,4.84-1.38,10.02-4.9,13.37-3.89,3.7-9.77,4.12-15.14,4.34-14.93.6-29.78,1.56-44.62,1.85v5.66c3.49-.25,6.7-.41,10.49.49,19.38,4.62,0,26.17-6.2,31.92-1.41,1.31-2.87,2.59-4.29,3.9v14.75c1.27-2.03,2.61-4,3.95-5.91,10.81-15.39,26.91-40.74,46.66-45.6,11.1-2.73,15.8,6.82,20.94,14.91,5.64,8.87,14.82,13.18,20.8,21.46,5.15,7.13,5.31,16.59,5.13,25.39-.16,8.02-.61,16.56-5.28,23.07-6.07,8.48-17.44,11.05-27.83,11.96-12.67,1.12-25.48.72-38.06-1.16-6.92-1.04-13.9-2.58-19.97-6.07-2.35-1.35-4.46-3.12-6.35-5.08v44.45c1.07.05,2.15.1,3.21.38,4.79,1.3,8.54,4.91,12.07,8.39,4.35,4.29,8.7,8.58,13.06,12.87,6.41,6.32,13,12.91,16.29,21.29,1.42,3.62,2.02,7.04,2.03,10.29h17.44c-3.71-6.73-7.3-13.52-10.63-20.45-2.15-4.47-4.25-9.09-4.72-14.04-.47-4.94.96-10.33,4.83-13.45,4.16-3.35,10-3.39,15.34-3.14,8.83.42,17.64,1.19,26.4,2.33,5.72.74,11.73,1.76,16.2,5.42,3.5,2.86,5.63,7.02,7.68,11.05,5.45,10.76,10.9,21.52,16.34,32.28h14.74c-3-7.45-5.81-14.97-8.2-22.64-.54-1.75-1.07-3.63-.51-5.37.64-1.96,2.49-3.23,4.24-4.31,9.69-5.95,20.11-10.7,30.96-14.1,4.32-1.35,8.99-2.49,13.3-1.12,4.08,1.29,7.14,4.6,9.95,7.83,6.84,7.87,13.42,16.03,19.45,24.55,2.97,4.21,8.86,9.6,10,15.15h14.39s-.1-.02-.15-.04c-5.66-2.06-9.95-6.68-13.82-11.28-6.7-7.95-12.87-16.34-18.46-25.1-2.77-4.34-6.12-7.08-2.96-11.49,2.1-2.94,7.2-4.35,10.55-4.79,5.07-.67,10.2.16,15.28.73,15.11,1.7,30.48,1.11,45.42-1.73,5.26-1,11.79-1.83,14.98,2.47,2.03,2.74,1.75,6.5,1.37,9.9-1.28,11.5-2.58,23.13-6.6,33.97-.68,1.84-1.56,3.79-3.29,4.72-1.82.97-4.02.53-6.07.32-6.24-.64-12.59,1.05-18.84,2.31h36.1c.65-11.77-.44-33.79,9.42-40.47,11.23-7.6,35.45,4.78,46.19,9.29,6.62,2.77,13.61,6.42,16.47,12.99,2.54,5.82,1.13,12.27-1.66,18.18h10.29c.54-.47,1-1.03,1.58-1.44,6.15-4.4,14.08-5.21,21.62-5.76,8.26-.6,16.6-.23,24.78-.72,9.01-.54,17.33.24,22.14,7.93h11.77c2.49-12.55,8.84-24.75,15.88-35.65,3.14-4.86,6.51-9.7,11.11-13.2Zm-433.23-5.45c-1.96,2.18-4.5,3.77-7.07,5.19-6.11,3.35-13.33,5.91-19.98,3.81-4.48-1.42-8.07-4.76-11.3-8.18-4.6-4.85-8.97-10.32-10.4-16.86-.56-2.53-.61-5.32.68-7.57,1.93-3.35,6.21-4.51,10.07-4.62,3.67-.1,7.32.46,10.94,1.03,6.95,1.09,13.87,2.14,20.85,2.82,5.32.52,8.95,5.7,9.95,10.74.95,4.79-.48,10-3.74,13.63Zm40.97-4.17c-.24.77-.56,1.57-1.22,2.03-.57.39-1.29.47-1.97.53-7.92.72-16.24,1.39-23.51-1.85-1.12-.5-2.24-1.11-3.01-2.07-.86-1.07-1.21-2.46-1.42-3.82-.48-2.98-.45-6.04.08-9,.39-2.15,1.09-4.36,2.68-5.87,1.4-1.33,3.31-1.96,5.16-2.51,3.03-.91,6.08-1.72,9.16-2.43,2.42-.56,4.96-1.07,7.38-.47,5.79,1.43,6.08,8.72,7.17,13.44.91,3.96.75,8.16-.48,12.03Zm333.44-82.81c3.08,6.49,2.9,15.15-2.47,19.92-4.09,3.63-10.24,4.15-15.48,2.62-5.25-1.53-9.78-4.82-14.07-8.2-20.03-15.76-38.39-36.74-40.93-62.11-.69-6.89,1.01-16.48,9.7-17.1,6.89-.49,10.32,6.57,14.13,11.29,10.77,13.31,22.5,25.83,35.14,37.38,5.3,4.84,10.9,9.71,13.98,16.2ZM145.16,202.52c6.36-9.18,13.52-17.79,21.39-25.71,7.7-7.76,17.02-15.24,27.95-15.53,9.74-.26,18.94,5.52,24.76,13.33,5.82,7.81,8.69,17.43,10.44,27.02,2.92,15.98,2.82,33.22-4.75,47.59-7.27,13.79-21.36,23.77-36.79,26.04-23.92,3.52-57.96-11.66-56.58-39.56.6-12.1,6.7-23.22,13.59-33.18Zm-17.76,16.58c-2.19.64-4.6-.03-6.5-1.28-1.87-1.23-3.54-2.82-5.07-4.6-3.54-4.14-6.34-9.31-9.17-13.48-.89-1.31-1.8-2.66-2.19-4.2-1.3-5.19,3.51-5.56,7.19-5.45,3.99.12,7.9-.45,11.94-.36,4.7.11,9.39.41,14.06.91.71.08,1.45.17,2.07.53,1.83,1.09,1.6,3.79.96,5.83-1.71,5.46-7.34,20.37-13.3,22.1Zm182.38,5.3c-.69,9.82-6.57,18.93-14.74,24.43-8.16,5.5-18.39,7.55-28.19,6.62-12.67-1.2-22.97-9.57-25.77-22.09-2.4-10.75-6.69-25.82-1.53-36.55.51-1.06,1.13-2.03,1.84-2.92,9.42-11.72,35.15-8.09,46.6-2.87,12.87,5.86,22.79,19.27,21.79,33.37Zm-2.51-69.2c6.96-2.24,14.53.42,20.97,3.88,14.74,7.94,26.72,20.05,38.47,31.98,6.69,6.79,13.93,15.5,11.48,24.71-1.53,5.75-6.71,9.95-12.32,11.92-5.61,1.97-11.68,2.07-17.63,2.15-4.56.06-9.27.09-13.47-1.67-6.86-2.88-10.94-9.84-14.54-16.35-6.11-11.07-36.64-48.99-12.95-56.62Zm-22.29,18.56c-3.19,2.69-7.28,4.07-11.36,4.91-36.17,7.49-67.47-14.94-73.37-50.36-.67-4.01-.99-8.23.38-12.05,1.87-5.2,6.73-8.93,12.02-10.55,5.28-1.62,10.97-1.39,16.44-.59,20.76,3.04,40.19,14.34,53.09,30.88,4.3,5.51,7.97,11.77,9.03,18.67,1.06,6.91-.88,14.57-6.22,19.08Zm-83.26,126.77c6.03-14.49,16.12-27.27,28.82-36.49,26.79-19.44,56.16,17.96,65.49,40.92,4.91,12.08,6.77,26.9-.96,37.4-5.94,8.08-16.13,11.71-25.89,13.97-14.16,3.27-29.26,4.53-43.06-.03-13.8-4.56-26.03-15.88-28.43-30.22-1.44-8.62.68-17.48,4.04-25.55Zm98.27-50.03c8.96-9.14,23.56-9.02,36.24-7.26,9.1,1.26,18.13,3.04,27.04,5.32,4.55,1.17,9.38,2.68,12.22,6.42,4.6,6.06,1.77,14.95-2.76,21.06-7.36,9.95-18.31,16.53-29.16,22.48-12.3,6.75-27.8,13.89-40.72,3.99-14.48-11.1-15.57-39.04-2.86-52.01Zm11.41,74.7c9.01-13.1,32.11-11.26,40.95.93,5.52,7.62,6.53,17.97,3.85,26.99-1.45,4.91-4.08,9.68-8.35,12.51-3.9,2.59-8.76,3.3-13.45,3.28-5.76-.02-11.61-1.09-16.66-3.88-5.04-2.79-9.2-7.43-10.65-13.01-.68-2.6-.76-5.32-.69-8.01.16-6.58,1.26-13.4,5-18.82Zm126.39-38.54c-2.09,26.1-25.99,51.43-45.93,21.3-8.29-12.53-10.42-27.67-10.88-42.38-.36-11.77-2.92-31.46,4.69-41.35.67-.88,1.42-1.67,2.22-2.39,7.21-6.48,19.21-7.1,28.32-7.31,11.5-.26,12.14,2.79,15.35,13.53,5.66,18.93,7.8,38.91,6.22,58.61Zm21.58-41.97c-.72,1.82-1.53,3.72-3.09,4.89-2.46,1.83-6.11,1.21-8.54-.66-2.43-1.87-3.89-4.71-5.15-7.51-4.21-9.33-7.05-19.27-8.42-29.41-.35-2.57-.6-5.2-.1-7.75.94-4.83,4.42-8.72,7.76-12.34,4.86-5.27,12.51-17.62,20.22-18.64,7.76-1.02,11.62,7.78,11.77,14.18.44,18.51-7.75,40.28-14.44,57.24Zm23.61-86.75c-1.32,3.2-3.9,5.96-7.19,7.03-2,.65-4.14.65-6.24.62-6.66-.12-13.88-.86-18.76-5.4-.55-.52-1.08-1.09-1.37-1.79-2.36-5.75,4.85-10.11,12.18-13.07,4.91-1.99,9.89-3.34,12.08-4.07,10.48-3.46,12.33,9.31,9.29,16.69Zm-81.33-78.66c.57-1.15,1.57-2.03,2.64-2.75,8.5-5.71,21.62-3.06,31.28-4.51,7.74-1.16,13.81-4.06,17.51-11.28,1.98-3.87,3.73-8.18,7.36-10.58,4.03-2.66,9.35-2.23,13.99-.94,5.82,1.61,11.95,5.24,13,11.19.45,2.57-.13,5.19-.71,7.74-2.02,8.86-4.06,17.71-6.06,26.57-1.56,6.93-1.15,14.06-2.36,21.17-1.24,7.23-2.99,14.76-7.86,20.25-14.93,16.81-43.87-7.33-56.05-17.09-8.7-6.97-10.94-18.31-12.46-29.05-.23-1.61-.44-3.22-.66-4.79-.27-1.99-.52-4.12.38-5.92Zm19.79,53c6.76,4.06,11.76,10.45,16.2,16.96,3.03,4.44,5.95,9.23,6.5,14.58.71,6.79-2.5,13.38-6.27,19.08-4.35,6.58-9.57,12.59-15.49,17.82-2.39,2.11-4.94,4.13-7.91,5.31-19.08,7.61-42.08-15.15-50.3-29.78-1.18-2.11-2.29-4.4-2.19-6.81.21-5.36,5.77-8.57,10.26-11.5,4.88-3.18,9.23-7.18,12.81-11.77,4.3-5.5,7.75-12.08,13.86-15.47,6.89-3.82,15.76-2.49,22.52,1.57Zm-87.66-87.12c9.06,2.17,16.23,7.31,24.13,11.89,9.01,5.22,18.5,9.77,27.71,14.65,2.49,1.32,5.03,2.68,6.92,4.77,2.53,2.8,3.6,6.61,4.23,10.33,2.04,12.06.51,24.79-5.83,35.31-4.2,6.97-8.74,13.73-13.61,20.25-2.54,3.4-5.28,6.84-9.02,8.84-6.81,3.65-15.1,1.76-22.64.09-14.71-3.25-29.99-5.43-43.23-12.64-13.24-7.21-24.25-21.02-22.88-36.03.66-7.24,4.07-13.9,7.42-20.35,10.86-20.95,17.96-44.03,46.82-37.11Zm-154.33,5.06c17.44-11.53,35.63-21.93,54.41-31.11,9.25-4.52,18.78-8.8,28.95-10.44,10.17-1.64,22.38.46,27.37,9.46,1.57,2.84,2.25,6.08,2.6,9.31,2.32,21.19-10.25,68.81-34.5,74.95-6.48,1.64-13.28.03-19.77-1.58-10.82-2.68-23.19-4.51-34.77-7.77-7.34-2.06-14.36-4.7-20.47-8.49-14.34-8.9-19.95-23.66-3.82-34.33Zm-77.28,18.09c2.35-8.89,9.53-15.62,16.87-21.15,6.26-4.71,12.89-8.93,19.8-12.6,3.01-1.6,6.39-3.14,9.72-2.39,2.09.47,3.88,1.81,5.34,3.38,4.33,4.69,5.86,11.25,6.97,17.54,1.54,8.68,2.31,18.53-3.19,25.41-4.46,5.58-11.89,7.68-18.81,9.46-8.73,2.25-22.34,9.28-29.93,3.96-6.75-4.73-8.73-16.22-6.77-23.61Zm-31.19,61.05c2.11-3.61,5.6-6.17,9.09-8.48,22.73-15.08,47.41-25.23,74.25-28.53,6.24-.77,12.6-1.53,18.77-.32,6.17,1.21,12.23,4.73,14.86,10.44,1.57,3.4,1.8,7.24,1.96,10.98.31,7.61,1.09,15.69-.42,23.21-1.72,8.54-7.49,14.58-13.44,20.58-5.08,5.11-10.15,10.23-15.23,15.34-3.78,3.81-7.57,9.11-12.52,11.43-1.93.9-4.12,1.01-6.25,1.09-10.2.37-20.42.37-30.62,0-2.59-.09-5.18-.21-7.77-.36-7.17-.39-12.3-4.63-15.83-10.69-3.15-5.41-6.75-9.7-10.71-14.55-6.91-8.44-12.22-19.73-6.12-30.13Zm-17.68,125.84c-4.4-2.4-8.5-5.89-10.19-10.61-1.13-3.13-1.12-6.56-.9-9.88.69-10.82,3.55-21.01,6.7-31.32,3.1-10.14,4.51-20.97,6.55-31.39.31-1.58.64-3.2,1.5-4.56,2.51-3.93,8.42-3.97,12.63-1.97,5.04,2.4,8.77,6.81,12.34,11.1,6.33,7.6,12.57,15.23,18.04,23.47.38.57.75,1.14,1.12,1.71,4.32,6.71,9.4,12.25,13.09,19.53,4.96,9.79,12.77,28.9-2.93,33.18-19.13,5.22-40.54,10.22-57.95.73Zm42.77,86.03c-8.03-2.09-15.66-6.96-19.42-14.36-2.53-4.98-3.14-10.69-3.42-16.27-.63-12.77-1.49-30.65,9.36-39.8,4.47-3.77,10.5-5.29,16.36-5.33,5.85-.04,11.62,1.27,17.33,2.57,19.31,4.41,38.73,6.85,57.87,13.02,4.09,1.32,8.31,2.8,11.39,5.8,15.19,14.8.04,39.21-15.63,44.54-15.89,5.4-32.39,9-49.09,10.71-8.25.84-16.71,1.21-24.74-.88Zm125.4,89.47c-.92,2.4-2.02,4.82-3.9,6.56-2.38,2.21-5.67,3.07-8.84,3.76-9.93,2.15-21.24,1.41-30.68,4.91-8.07,3-15.61,6.32-24.23,7.85-16.03,2.84-34.17.83-44.14-13.57-11.42-16.51-5.17-42.36-5.19-60.98,0-8.33.37-17.62,6.3-23.46,3.84-3.79,9.3-5.33,14.51-6.73,17.83-4.81,35.09-10.87,53.53-10.87,15.65,2.72,30.54,15.08,39.45,27.75,12.42,17.67,10.57,45.42,3.19,64.78Zm24.59,10.81c-5.12-.11-11.12-.68-13.9-4.93-.05-.07-.1-.15-.14-.23-3.6-5.9.57-16.13,1.16-22.61.67-7.38,1.75-14.9,1.96-22.3.16-5.61-2.26-13.04,1.93-17.75,1.32-1.49,3.13-2.44,4.92-3.31,18.95-9.13,43.39-12.1,62.78-2.63,9.02,4.4,17.86,9.16,26.51,14.26,7.19,4.24,14.64,9.17,17.92,16.84,5.46,12.78,3.89,30.93-11.64,34.26-30.2,6.47-60.67,9.03-91.51,8.39Zm111.78,21.81c-.69.29-1.46.26-2.21.21-9.73-.64-19.23-4.36-26.8-10.5-1.85-1.5-3.76-3.84-2.79-6.02.48-1.09,1.57-1.76,2.6-2.36,5.66-3.25,11.82-6.44,18.01-8.53,5.82-1.97,9.03,2.73,10.96,8.08,1.55,4.3,1.89,8.92,2.22,13.48.15,2.13-.01,4.82-1.98,5.64Zm62.12,21.24c-6.7,2.95-14.02,4.2-21.2,5.4-5.79.97-12.33,1.72-16.99-1.85-2.42-1.86-3.94-4.64-5.32-7.36-13.3-26.37-18.69-55.27-21.63-84.43-.58-5.74-1.03-11.59.2-17.22,2.98-13.73,12-16.79,23.44-9.82,12.4,7.55,24.96,16.82,33.44,28.81,4.48,6.33,6.36,16.07,8.42,23.45,2.3,8.22,4.1,16.57,5.4,25,1.74,11.32,7.71,32.1-5.77,38.03Zm37.21,1.15c-4.05,3.58-10.53,4.09-15.07,1.16-8.34-5.39-8.64-23.31-10.19-32-2.6-14.58-5.33-29.17-6.54-43.95-.69-8.5-.43-18.32,6.08-23.84,2.98-2.53,6.86-3.72,10.69-4.5,32.71-6.71,58.64,10.46,49.96,46.86-4.4,18.45-20.39,30.9-28.98,47.2-1.7,3.22-3.23,6.66-5.96,9.07Zm42.84,15.29H1V1h499v500Z" />
</svg>